<svg width="28" height="28" viewBox="0 0 28 28" fill="none" xmlns="http://www.w3.org/2000/svg">
<rect width="28" height="28" rx="14" fill="white" fill-opacity="0.2"/>
<path d="M19.2501 8.75843C18.9251 8.43343 18.4001 8.43343 18.0751 8.75843L14.0001 12.8251L9.9251 8.7501C9.6001 8.4251 9.0751 8.4251 8.7501 8.7501C8.4251 9.0751 8.4251 9.6001 8.7501 9.9251L12.8251 14.0001L8.7501 18.0751C8.4251 18.4001 8.4251 18.9251 8.7501 19.2501C9.0751 19.5751 9.6001 19.5751 9.9251 19.2501L14.0001 15.1751L18.0751 19.2501C18.4001 19.5751 18.9251 19.5751 19.2501 19.2501C19.5751 18.9251 19.5751 18.4001 19.2501 18.0751L15.1751 14.0001L19.2501 9.9251C19.5668 9.60843 19.5668 9.0751 19.2501 8.75843Z" fill="#FAFAFA"/>
</svg>
