<svg width="20" height="21" viewBox="0 0 20 21" fill="none" xmlns="http://www.w3.org/2000/svg">
<path d="M10 0.5C4.48 0.5 0 4.98 0 10.5C0 16.02 4.48 20.5 10 20.5C15.52 20.5 20 16.02 20 10.5C20 4.98 15.52 0.5 10 0.5ZM10 18.5C5.59 18.5 2 14.91 2 10.5C2 6.09 5.59 2.5 10 2.5C14.41 2.5 18 6.09 18 10.5C18 14.91 14.41 18.5 10 18.5ZM4.5 16L12.01 12.51L15.5 5L7.99 8.49L4.5 16ZM10 9.4C10.61 9.4 11.1 9.89 11.1 10.5C11.1 11.11 10.61 11.6 10 11.6C9.39 11.6 8.9 11.11 8.9 10.5C8.9 9.89 9.39 9.4 10 9.4Z" fill="#919191"/>
</svg>
