<svg width="16" height="16" viewBox="0 0 16 16" fill="none" xmlns="http://www.w3.org/2000/svg">
<path d="M10.3333 13.3335H3.66659V4.66683C3.66659 4.30016 3.36659 4.00016 2.99992 4.00016C2.63325 4.00016 2.33325 4.30016 2.33325 4.66683V13.3335C2.33325 14.0668 2.93325 14.6668 3.66659 14.6668H10.3333C10.6999 14.6668 10.9999 14.3668 10.9999 14.0002C10.9999 13.6335 10.6999 13.3335 10.3333 13.3335ZM13.6666 10.6668V2.66683C13.6666 1.9335 13.0666 1.3335 12.3333 1.3335H6.33325C5.59992 1.3335 4.99992 1.9335 4.99992 2.66683V10.6668C4.99992 11.4002 5.59992 12.0002 6.33325 12.0002H12.3333C13.0666 12.0002 13.6666 11.4002 13.6666 10.6668ZM12.3333 10.6668H6.33325V2.66683H12.3333V10.6668Z" fill="#BDBDBD"/>
</svg>
