<svg width="22" height="30" viewBox="0 0 22 30" fill="none" xmlns="http://www.w3.org/2000/svg">
<path d="M19.6831 12.0066C20.0986 11.4392 20.5 10.605 20.5 9.5C20.5 5.66821 17.21 4.11719 14.5664 2.87109C12.9211 2.09546 11.5 1.42554 11.5 0.5C11.5 0.223875 11.2761 0 11 0C10.7239 0 10.5 0.223875 10.5 0.5C10.5 1.42553 9.07885 2.09546 7.43359 2.87109C4.79004 4.11719 1.5 5.66821 1.5 9.5C1.5 10.605 1.90137 11.4392 2.3169 12.0066C1.02368 12.1008 0 13.1831 0 14.5V27.5C0 28.8784 1.12158 30 2.5 30H19.5C20.8784 30 22 28.8784 22 27.5V14.5C22 13.1831 20.9763 12.1008 19.6831 12.0066ZM8.5 29C7.12158 29 6 27.8784 6 26.5V18.5C6 17.6885 6.64865 17.0295 7.45417 17.0046C8.1576 17.4846 8.96702 17.7501 9.80558 17.7818C9.92695 18.0005 10 18.2445 10 18.5V18.9491C9.80673 18.7976 9.61334 18.562 9.43408 18.2483C9.29712 18.0088 8.99194 17.9253 8.75195 18.0623C8.51221 18.1992 8.42895 18.5046 8.56592 18.7444C8.87329 19.2822 9.22583 19.6709 9.6145 19.8997C10.0769 20.1711 10.6038 20.217 11.2253 20.0383C12.4751 19.6812 13.5371 19.3506 14.3813 19.0557C14.634 18.9683 14.9053 18.9834 15.1453 19.0991C15.386 19.2153 15.5671 19.4182 15.655 19.6704C15.8369 20.1909 15.561 20.7624 15.0405 20.9441C14.1604 21.2515 13.0618 21.5938 11.7749 21.9617C10.6233 22.2896 9.51807 22.1694 8.58325 21.6133C8.32471 21.4595 8.07568 21.2703 7.84301 21.051C7.64208 20.8616 7.32617 20.8708 7.13623 21.0718C6.94678 21.2727 6.95605 21.5894 7.15698 21.7786C7.44287 22.0481 7.75073 22.2815 8.07202 22.4727C8.66848 22.8277 9.31619 23.0366 10 23.1094V25.1819C10 25.4319 10.1848 25.6436 10.4324 25.6772L14.7029 26.2595C15.4424 26.3603 16 26.9993 16 27.7458V29L8.5 29ZM10.4092 12.7221L10.9749 16.6819L10.4797 16.7527C9.55518 16.884 8.63281 16.6487 7.88501 16.0879C7.13721 15.5269 6.65235 14.7083 6.52003 13.7827L6.44932 13.2877L10.4092 12.7221ZM6.30789 12.298L6.0957 10.813C6.0769 10.6809 6.1106 10.5491 6.19067 10.4424C6.27075 10.3354 6.38793 10.2664 6.52026 10.2473L9.48999 9.823C9.51367 9.81958 9.53759 9.81811 9.56103 9.81811C9.80542 9.81811 10.02 9.99828 10.0557 10.2473L10.2678 11.7323L6.30789 12.298ZM21 27.5C21 28.3271 20.3272 29 19.5 29H17V27.7458C17 26.5017 16.0706 25.4368 14.8379 25.2688L11 24.7454V23.1088C11.3473 23.077 11.6974 23.0235 12.0496 22.9231C13.3547 22.55 14.4722 22.2019 15.3701 21.8882C15.8539 21.7193 16.2255 21.3784 16.4551 20.9615L18.1374 20.4807C18.3174 20.4292 18.4536 20.2817 18.4902 20.0981L18.9902 17.5981C19.0269 17.4148 18.9583 17.2263 18.8125 17.1096C18.6665 16.9927 18.4675 16.9673 18.2969 17.0432L15.6296 18.2287C15.6123 18.2197 15.5977 18.207 15.5801 18.1985C15.0989 17.9665 14.5562 17.9358 14.0518 18.1116C13.2369 18.3961 12.2091 18.7163 11 19.0625V18.5C11 18.227 10.9496 17.9611 10.8638 17.7078L11.6111 17.6011C11.7424 17.5825 11.8608 17.5122 11.9404 17.4062C12.02 17.3 12.0542 17.1667 12.0354 17.0354L11.0454 10.1057C10.9285 9.28686 10.1685 8.71508 9.34839 8.83325L6.37866 9.25756C5.98218 9.3142 5.6311 9.52172 5.39087 9.84227C5.15039 10.1628 5.04908 10.5578 5.10596 10.9546L5.53028 13.9243C5.65262 14.781 6.0131 15.5641 6.56241 16.2059C5.65046 16.5766 5 17.456 5 18.5V26.5C5 27.479 5.40512 28.3641 6.05517 29H2.5C1.67285 29 1 28.3271 1 27.5V14.5C1 13.6728 1.67285 13 2.5 13H3.5C3.71948 13 3.91211 12.8562 3.97656 12.6467C4.04125 12.437 3.96069 12.209 3.77954 12.0855C3.7273 12.0498 2.5 11.1934 2.5 9.5C2.5 6.30225 5.34766 4.95996 7.85987 3.77563C9.1687 3.15869 10.3577 2.59815 11 1.82617C11.6423 2.59815 12.8313 3.15869 14.1401 3.77563C16.6523 4.95996 19.5 6.30225 19.5 9.5C19.5 11.1934 18.2727 12.0498 18.2227 12.084C18.0393 12.2063 17.9575 12.4341 18.0215 12.6448C18.0852 12.8557 18.2798 13 18.5 13H19.5C20.3272 13 21 13.6728 21 14.5V27.5ZM16.4242 18.9697L17.8203 18.3494L17.5696 19.603L16.6975 19.8522C16.6849 19.6814 16.6582 19.51 16.5991 19.3408C16.5534 19.2097 16.4939 19.0862 16.4242 18.9697Z" fill="#75BFC0"/>
</svg>
