<svg width="21" height="20" viewBox="0 0 21 20" fill="none" xmlns="http://www.w3.org/2000/svg">
<path d="M10.2 0C10.7522 0 11.2 0.447715 11.2 1V2C11.2 2.55228 10.7522 3 10.2 3C9.64767 3 9.19995 2.55228 9.19995 2V1C9.19995 0.447715 9.64767 0 10.2 0Z" fill="white"/>
<path d="M10.2 17C10.7522 17 11.2 17.4477 11.2 18V19C11.2 19.5523 10.7522 20 10.2 20C9.64767 20 9.19995 19.5523 9.19995 19V18C9.19995 17.4477 9.64767 17 10.2 17Z" fill="white"/>
<path d="M19.2 11C19.7522 11 20.2 10.5523 20.2 10C20.2 9.44771 19.7522 9 19.2 9H18.2C17.6477 9 17.2 9.44771 17.2 10C17.2 10.5523 17.6477 11 18.2 11H19.2Z" fill="white"/>
<path d="M3.19995 10C3.19995 10.5523 2.75224 11 2.19995 11H1.19995C0.647666 11 0.199951 10.5523 0.199951 10C0.199951 9.44771 0.647666 9 1.19995 9H2.19995C2.75224 9 3.19995 9.44771 3.19995 10Z" fill="white"/>
<path d="M15.1497 16.364L15.8568 17.0711C16.2473 17.4616 16.8805 17.4616 17.271 17.0711C17.6615 16.6805 17.6615 16.0474 17.271 15.6569L16.5639 14.9497C16.1734 14.5592 15.5402 14.5592 15.1497 14.9497C14.7592 15.3403 14.7592 15.9734 15.1497 16.364Z" fill="white"/>
<path d="M5.2502 5.05025C4.85968 5.44078 4.22651 5.44078 3.83599 5.05025L3.12888 4.34315C2.73836 3.95262 2.73836 3.31946 3.12888 2.92893C3.51941 2.53841 4.15257 2.53841 4.5431 2.92893L5.2502 3.63604C5.64073 4.02656 5.64073 4.65973 5.2502 5.05025Z" fill="white"/>
<path d="M3.12888 15.6569C2.73836 16.0474 2.73836 16.6805 3.12888 17.0711C3.51941 17.4616 4.15257 17.4616 4.5431 17.0711L5.2502 16.364C5.64073 15.9734 5.64073 15.3403 5.2502 14.9497C4.85968 14.5592 4.22651 14.5592 3.83599 14.9497L3.12888 15.6569Z" fill="white"/>
<path d="M15.1497 5.05025C14.7592 4.65973 14.7592 4.02656 15.1497 3.63604L15.8568 2.92893C16.2473 2.53841 16.8805 2.53841 17.271 2.92893C17.6615 3.31946 17.6615 3.95262 17.271 4.34315L16.5639 5.05025C16.1734 5.44078 15.5402 5.44078 15.1497 5.05025Z" fill="white"/>
<path fill-rule="evenodd" clip-rule="evenodd" d="M10.2 4.5C7.16238 4.5 4.69995 6.96243 4.69995 10C4.69995 13.0376 7.16238 15.5 10.2 15.5C13.2375 15.5 15.7 13.0376 15.7 10C15.7 6.96243 13.2375 4.5 10.2 4.5ZM6.69995 10C6.69995 8.067 8.26695 6.5 10.2 6.5C12.1329 6.5 13.7 8.067 13.7 10C13.7 11.933 12.1329 13.5 10.2 13.5C8.26695 13.5 6.69995 11.933 6.69995 10Z" fill="white"/>
</svg>
