<svg width="21" height="17" viewBox="0 0 21 17" fill="none" xmlns="http://www.w3.org/2000/svg">
<path d="M10.3999 0C10.9522 0 11.3999 0.447715 11.3999 1V2C11.3999 2.55228 10.9522 3 10.3999 3C9.84762 3 9.3999 2.55228 9.3999 2V1C9.3999 0.447715 9.84762 0 10.3999 0Z" fill="white"/>
<path d="M20.3999 10C20.3999 10.5523 19.9522 11 19.3999 11H18.3999C17.8476 11 17.3999 10.5523 17.3999 10C17.3999 9.44771 17.8476 9 18.3999 9H19.3999C19.9522 9 20.3999 9.44771 20.3999 10Z" fill="white"/>
<path d="M2.3999 11C2.95219 11 3.3999 10.5523 3.3999 10C3.3999 9.44771 2.95219 9 2.3999 9H1.3999C0.847618 9 0.399902 9.44771 0.399902 10C0.399902 10.5523 0.847618 11 1.3999 11H2.3999Z" fill="white"/>
<path d="M5.45016 5.05025C5.05963 5.44078 4.42647 5.44078 4.03594 5.05025L3.32884 4.34315C2.93831 3.95262 2.93831 3.31946 3.32884 2.92893C3.71936 2.53841 4.35252 2.53841 4.74305 2.92893L5.45016 3.63604C5.84068 4.02656 5.84068 4.65973 5.45016 5.05025Z" fill="white"/>
<path d="M16.0568 2.92893L15.3496 3.63604C14.9591 4.02656 14.9591 4.65973 15.3496 5.05025C15.7402 5.44078 16.3733 5.44078 16.7639 5.05025L17.471 4.34315C17.8615 3.95262 17.8615 3.31946 17.471 2.92893C17.0804 2.53841 16.4473 2.53841 16.0568 2.92893Z" fill="white"/>
<path d="M18.3999 16C18.3999 16.5523 17.9522 17 17.3999 17H3.3999C2.84762 17 2.3999 16.5523 2.3999 16C2.3999 15.4477 2.84762 15 3.3999 15H17.3999C17.9522 15 18.3999 15.4477 18.3999 16Z" fill="white"/>
<path d="M7.28843 11.6054C6.60779 10.2872 6.82176 8.6284 7.92503 7.52513C9.29186 6.15829 11.5079 6.15829 12.8748 7.52513C13.978 8.6284 14.192 10.2872 13.5114 11.6054C13.258 12.0961 13.4504 12.6993 13.9411 12.9527C14.4318 13.2061 15.0351 13.0137 15.2884 12.523C16.3568 10.4539 16.0255 7.84739 14.289 6.11091C12.1411 3.96303 8.6587 3.96303 6.51082 6.11091C4.77434 7.84739 4.44296 10.4539 5.51136 12.523C5.76475 13.0137 6.36797 13.2061 6.8587 12.9527C7.34942 12.6993 7.54182 12.0961 7.28843 11.6054Z" fill="white"/>
</svg>
