<svg width="32" height="32" viewBox="0 0 32 32" fill="none" xmlns="http://www.w3.org/2000/svg">
<g clip-path="url(#clip0_1712_5357)">
<path d="M27.3137 11.3138V4.68625H20.6863L16 0L11.3138 4.68625H4.68625V11.3138L0 16L4.68625 20.6863V27.3137H11.3138L16 32L20.6863 27.3137H27.3137V20.6863L32 16L27.3137 11.3138ZM25.4381 19.9094V25.4381H19.9094L16 29.3475L12.0906 25.4381H6.56187V19.9094L2.6525 16L6.56187 12.0906V6.56187H12.0906L16 2.6525L19.9094 6.56187H25.4381V12.0906L29.3475 16L25.4381 19.9094Z" fill="#75BFC0"/>
<path d="M23.5626 12.8675V8.43743H19.1325L16 5.30493L12.8675 8.43743H8.43743V12.8675L5.30493 16L8.43743 19.1325V23.5626H12.8675L16 26.6951L19.1325 23.5626H23.5626V19.1325L26.6951 16L23.5626 12.8675ZM21.6869 18.3556V21.6869H18.3556L16 24.0426L13.6444 21.6869H10.3131V18.3556L7.95743 16L10.3131 13.6444V10.3131H13.6444L16 7.95743L18.3556 10.3131H21.6869V13.6444L24.0426 16L21.6869 18.3556Z" fill="#E9FFFF"/>
</g>
<defs>
<clipPath id="clip0_1712_5357">
<rect width="32" height="32" fill="white"/>
</clipPath>
</defs>
</svg>
