<svg width="76" height="44" viewBox="0 0 76 44" fill="none" xmlns="http://www.w3.org/2000/svg">
<rect width="76" height="44" rx="22" fill="url(#paint0_linear_3216_6333)"/>
<rect width="76" height="44" rx="22" fill="url(#paint1_linear_3216_6333)"/>
<path d="M35.9986 29.3274V24.3274H39.9986V29.3274C39.9986 29.8774 40.4486 30.3274 40.9986 30.3274H43.9986C44.5486 30.3274 44.9986 29.8774 44.9986 29.3274V22.3274H46.6986C47.1586 22.3274 47.3786 21.7574 47.0286 21.4574L38.6686 13.9274C38.2886 13.5874 37.7086 13.5874 37.3286 13.9274L28.9686 21.4574C28.6286 21.7574 28.8386 22.3274 29.2986 22.3274H30.9986V29.3274C30.9986 29.8774 31.4486 30.3274 31.9986 30.3274H34.9986C35.5486 30.3274 35.9986 29.8774 35.9986 29.3274Z" fill="white"/>
<defs>
<linearGradient id="paint0_linear_3216_6333" x1="38" y1="0" x2="38" y2="44" gradientUnits="userSpaceOnUse">
<stop stop-color="#40CEFC"/>
<stop offset="1" stop-color="#1491B6"/>
</linearGradient>
<linearGradient id="paint1_linear_3216_6333" x1="38" y1="0" x2="38" y2="44" gradientUnits="userSpaceOnUse">
<stop stop-color="#40CEFC"/>
<stop offset="1" stop-color="#1491B6"/>
</linearGradient>
</defs>
</svg>
