<svg width="17" height="16" viewBox="0 0 17 16" fill="none" xmlns="http://www.w3.org/2000/svg">
<path fill-rule="evenodd" clip-rule="evenodd" d="M8.15016 0.529004C8.37561 0.842127 8.40081 1.25702 8.2149 1.59512C7.82311 2.30769 7.59985 3.12627 7.59985 3.99999C7.59985 6.76142 9.83843 9 12.5999 9C13.4736 9 14.2922 8.77674 15.0047 8.38495C15.3428 8.19904 15.7577 8.22424 16.0708 8.44969C16.384 8.67514 16.5395 9.06063 16.4704 9.44023C15.7915 13.1712 12.5271 16 8.59985 16C4.18158 16 0.599854 12.4183 0.599854 8C0.599854 4.07276 3.42867 0.80832 7.15961 0.129468C7.53922 0.0603968 7.92471 0.215881 8.15016 0.529004ZM5.71342 2.73833C3.8576 3.75873 2.59985 5.7331 2.59985 8C2.59985 11.3137 5.28615 14 8.59985 14C10.8667 14 12.8411 12.7423 13.8615 10.8864C13.452 10.961 13.0303 11 12.5999 11C8.73386 11 5.59985 7.86599 5.59985 3.99999C5.59985 3.56956 5.63881 3.14785 5.71342 2.73833Z" fill="white"/>
</svg>
