<svg width="17" height="16" viewBox="0 0 17 16" fill="none" xmlns="http://www.w3.org/2000/svg">
<path d="M8.56869 1.48181C8.75459 1.14371 8.72939 0.728815 8.50394 0.415692C8.27849 0.102569 7.89301 -0.052915 7.5134 0.0161558C4.19928 0.619166 1.68649 3.51871 1.68649 7.00724C1.68649 8.78304 2.33917 10.4089 3.41639 11.6542C3.77771 12.0719 4.40922 12.1176 4.82692 11.7563C5.24461 11.395 5.29032 10.7635 4.929 10.3458C4.15419 9.45007 3.68649 8.28453 3.68649 7.00724C3.68649 5.17336 4.65381 3.5643 6.10613 2.66389C6.06779 2.9433 6.04798 3.22847 6.04798 3.51805C6.04798 6.96087 8.83894 9.75183 12.2818 9.75183C12.5713 9.75183 12.8564 9.73203 13.1358 9.6937C12.9932 9.92375 12.8326 10.1418 12.6562 10.3458C12.2948 10.7635 12.3405 11.395 12.7582 11.7563C13.1759 12.1176 13.8074 12.0719 14.1688 11.6542C14.9806 10.7158 15.5518 9.56078 15.7837 8.28642C15.8527 7.90681 15.6972 7.52132 15.3841 7.29587C15.071 7.07042 14.6561 7.04522 14.318 7.23113C13.7148 7.56279 13.0219 7.75183 12.2818 7.75183C9.94351 7.75183 8.04798 5.8563 8.04798 3.51805C8.04798 2.77795 8.23703 2.08501 8.56869 1.48181Z" fill="white"/>
<path d="M15.7998 16C16.3521 16 16.7998 15.5523 16.7998 15C16.7998 14.4477 16.3521 14 15.7998 14H1.7998C1.24752 14 0.799805 14.4477 0.799805 15C0.799805 15.5523 1.24752 16 1.7998 16L15.7998 16Z" fill="white"/>
</svg>
