<svg width="24" height="24" viewBox="0 0 24 24" fill="none" xmlns="http://www.w3.org/2000/svg">
<g clip-path="url(#clip0_2464_1183)">
<path fill-rule="evenodd" clip-rule="evenodd" d="M6.45089 0.535811C6.86511 1.11256 6.73334 1.9159 6.1566 2.3301C5.04787 3.12637 4.14451 4.175 3.52113 5.38937C2.89773 6.60373 2.5722 7.94898 2.57143 9.31402C2.57103 10.0241 1.99507 10.5994 1.28499 10.599C0.574907 10.5986 -0.000401661 10.0226 2.10412e-07 9.31256C0.00100443 7.53959 0.423815 5.79231 1.23351 4.21503C2.04319 2.63775 3.21653 1.27574 4.6566 0.241511C5.23334 -0.172701 6.03669 -0.0409392 6.45089 0.535811ZM6.54518 4.40242C7.99188 2.95571 9.95405 2.14295 12 2.14295C14.0459 2.14295 16.0081 2.95571 17.4549 4.40242C18.9015 5.84912 19.7143 7.81129 19.7143 9.85724V15.8572C19.7143 16.3119 19.895 16.7479 20.2164 17.0694C20.5378 17.3908 20.9739 17.5715 21.4286 17.5715C21.9019 17.5715 22.2857 17.9554 22.2857 18.4287C22.2857 18.902 21.9019 19.2858 21.4286 19.2858H2.57143C2.09805 19.2858 1.71429 18.902 1.71429 18.4287C1.71429 17.9554 2.09805 17.5715 2.57143 17.5715C3.02609 17.5715 3.46212 17.3908 3.78362 17.0694C4.1051 16.7479 4.28571 16.3119 4.28571 15.8572V9.85724C4.28571 7.81129 5.09847 5.84912 6.54518 4.40242ZM9 22.7144C9 22.0043 9.57564 21.4287 10.2857 21.4287H13.7143C14.4244 21.4287 15 22.0043 15 22.7144C15 23.4244 14.4244 24.0001 13.7143 24.0001H10.2857C9.57564 24.0001 9 23.4244 9 22.7144ZM19.3435 0.241511C18.7666 -0.172701 17.9633 -0.0409392 17.5491 0.535811C17.1349 1.11256 17.2666 1.9159 17.8435 2.3301C18.9521 3.12637 19.8555 4.175 20.4789 5.38937C21.1023 6.60373 21.4279 7.94898 21.4286 9.31402C21.4289 10.0241 22.0049 10.5994 22.715 10.599C23.425 10.5986 24.0003 10.0226 24 9.31256C23.999 7.53959 23.5762 5.79231 22.7666 4.21503C21.9567 2.63775 20.7835 1.27574 19.3435 0.241511Z" fill="white"/>
</g>
<defs>
<clipPath id="clip0_2464_1183">
<rect width="24" height="24" fill="white"/>
</clipPath>
</defs>
</svg>
