<svg width="360" height="800" viewBox="0 0 360 800" fill="none" xmlns="http://www.w3.org/2000/svg">
<g clip-path="url(#clip0_3246_5055)">
<rect width="360" height="800" fill="url(#paint0_linear_3246_5055)"/>
<path opacity="0.6" d="M-287.08 87.1059C-284.596 83.9401 -281.151 82.4829 -277.306 81.9427C-276.544 81.8296 -275.695 82.2693 -274.822 82.4703C-275.271 83.2995 -275.646 84.003 -276.145 84.9451C-275.546 84.9828 -275.096 85.1461 -274.872 84.9954C-273.049 83.714 -270.939 82.6336 -269.554 80.9628C-267.968 79.0659 -265.933 78.4001 -263.874 77.6589C-261.776 76.9052 -259.604 76.4906 -257.307 76.9428C-254.723 77.4579 -252.002 77.0308 -249.455 78.1237C-248.132 78.689 -247.046 79.3046 -246.085 80.4478C-244.761 82.0055 -243.563 83.8145 -241.641 84.6311C-240.555 84.1788 -240.717 83.3874 -240.979 82.8095C-241.616 81.4025 -241.953 79.8448 -242.564 78.5132C-243.987 75.473 -242.589 72.6967 -242.352 69.8451C-242.277 68.8777 -241.353 67.9356 -240.717 67.0562C-238.283 63.702 -235.936 60.2599 -231.579 59.0916C-230.306 58.7524 -229.157 58.5765 -227.909 59.0288C-226.748 59.4433 -225.549 59.7448 -224.164 60.1594C-224.576 62.6216 -226.011 64.9206 -225.325 67.5084C-224.676 68.1868 -223.827 68.6516 -223.24 67.6592C-222.553 66.4783 -222.017 65.1467 -221.705 63.8025C-221.093 61.2146 -220.731 58.5514 -218.596 56.6419C-218.396 56.466 -218.247 56.1896 -218.147 55.9384C-216.349 51.0893 -212.192 48.6899 -208.135 46.1774C-204.44 43.891 -200.133 43.0367 -196.301 41.0519C-195.477 40.6247 -194.403 40.6876 -193.442 40.5745C-192.618 40.474 -191.719 40.6373 -190.983 40.3609C-189.847 39.9212 -188.836 40.072 -187.712 40.2981C-186.214 40.5996 -184.654 40.6247 -183.143 40.8634C-182.207 41.0142 -181.021 41.0393 -180.422 41.6172C-179.074 42.9111 -177.863 42.2579 -176.39 41.7051C-173.768 44.004 -170.722 45.5241 -167.152 46.0894C-165.055 46.416 -164.193 48.8783 -161.959 49.4562C-160.036 49.9587 -158.9 51.7928 -158.351 53.8153C-158.251 54.2048 -158.001 54.7073 -157.689 54.8455C-154.831 56.1017 -153.994 58.9283 -152.434 61.5413C-153.095 62.1443 -153.857 62.7096 -154.444 63.4256C-154.756 63.8151 -155.068 64.5939 -154.881 64.9206C-154.581 65.4608 -153.869 66.114 -153.358 66.1014C-151.847 66.0637 -150.249 65.9632 -148.864 65.4231C-147.216 64.7698 -145.718 64.3176 -144.07 65.1969C-143.833 65.3226 -143.508 65.4356 -143.258 65.3854C-138.44 64.5186 -135.868 68.124 -133.197 70.9254C-130.163 74.0912 -129.951 78.2619 -130.912 82.4578C-131.125 83.3748 -131.474 84.2668 -131.961 85.812C-130.937 85.3095 -130.313 85.2215 -130.126 84.8823C-129.464 83.6638 -128.678 82.4075 -128.453 81.0759C-128.016 78.5885 -127.904 76.0383 -127.729 73.5133C-127.629 72.056 -128.216 70.85 -129.102 69.644C-133.097 64.2296 -138.49 61.5287 -145.081 61.0011C-146.304 60.9006 -147.515 60.687 -148.764 60.5237C-150.424 56.0515 -152.796 52.333 -156.641 49.72C-157.203 49.3431 -157.764 48.7652 -158.026 48.1497C-159.112 45.612 -161.335 44.4814 -163.569 43.3006C-165.541 42.2579 -167.426 41.0519 -169.424 40.0594C-171.284 39.1298 -173.057 37.9364 -175.279 37.8736C-176.09 37.8484 -176.889 37.4339 -177.688 37.1575C-178.212 36.9816 -178.761 36.7932 -179.236 36.5168C-180.646 35.7128 -182.244 35.4741 -183.717 35.7631C-187.675 36.5294 -191.844 34.4691 -195.664 36.7304C-196.138 37.0193 -196.688 37.459 -197.162 37.4213C-199.834 37.1575 -201.868 38.8157 -204.203 39.5695C-209.471 41.278 -213.44 44.7075 -216.898 48.8029C-218.946 51.24 -220.631 53.9786 -222.441 56.5288C-223.952 55.9761 -225.362 55.4485 -227.047 54.8329C-226.998 54.0792 -226.998 53.137 -226.86 52.2073C-226.586 50.4235 -226.323 48.627 -225.886 46.8809C-225.437 45.0719 -223.614 44.1548 -222.965 42.3207C-221.792 38.9665 -219.395 36.3158 -216.861 33.9289C-214.14 31.3662 -211.331 28.8286 -207.598 27.7608C-207.461 27.7231 -207.324 27.6854 -207.211 27.5975C-203.741 24.9091 -199.521 24.4568 -195.439 23.5147C-192.78 22.9117 -190.146 23.0498 -187.5 23.2132C-185.827 23.3137 -184.167 23.6277 -182.519 23.9292C-181.87 24.0548 -181.271 24.4317 -180.422 24.7835C-181.708 27.4718 -183.443 29.8713 -183.068 33.125C-182.432 32.8737 -181.957 32.836 -181.745 32.5722C-179.311 29.7205 -176.602 27.1201 -174.779 23.7533C-174.217 22.7232 -173.081 21.5172 -172.033 21.3162C-169.099 20.7509 -167.377 18.3138 -164.842 17.2083C-163.569 16.6556 -162.358 15.7636 -161.035 15.5752C-158.825 15.2611 -156.616 15.0601 -154.556 14.1054C-154.206 13.9421 -153.732 13.9546 -153.333 14.03C-148.289 15.0476 -143.109 15.5626 -138.377 17.7862C-136.879 18.4897 -135.481 19.4067 -134.021 20.1982C-133.422 20.5248 -132.772 20.7384 -132.198 20.977C-131.424 20.3112 -131.899 19.8841 -132.273 19.5072C-135.282 16.4671 -138.69 14.1556 -142.784 12.7486C-145.955 11.6683 -148.988 10.2236 -152.384 9.95976C-152.621 9.9472 -152.833 9.64569 -153.083 9.45726C-153.532 8.66582 -152.883 8.15076 -152.484 7.67339C-148.864 3.37702 -145.156 -0.806282 -140.05 -3.40671C-139.189 -3.8464 -138.502 -4.61271 -137.666 -5.09008C-136.705 -5.64283 -135.681 -6.32121 -134.632 -6.43427C-132.51 -6.64783 -130.538 -7.26339 -128.553 -7.96689C-127.779 -8.24326 -126.93 -8.40658 -126.106 -8.4317C-121.924 -8.56989 -117.73 -8.34376 -113.598 -7.77845C-111.326 -7.47695 -109.179 -6.22071 -106.857 -5.34133C-107.044 -4.29865 -107.094 -3.45696 -107.356 -2.69065C-108.417 0.349466 -109.591 3.3519 -110.652 6.40458C-111.238 8.08795 -111.65 9.80901 -110.851 12.0954C-110.29 11.3165 -109.853 10.9396 -109.728 10.4874C-108.804 7.09551 -107.668 3.79158 -106.52 0.47509C-105.945 -1.19572 -105.009 -2.45197 -104.16 -3.85896C-102.125 -7.21314 -99.8535 -10.3035 -96.2208 -12.0874C-94.985 -14.1602 -92.7379 -14.7632 -90.828 -15.8812C-88.4936 -17.238 -85.7098 -17.0119 -83.3254 -18.1551C-78.5817 -18.2681 -73.8255 -18.4189 -69.0818 -18.4817C-67.6837 -18.5068 -66.3854 -18.0922 -65.0871 -17.3887C-63.664 -16.6099 -62.0162 -16.2707 -60.4807 -15.6677C-59.0701 -15.1149 -57.3474 -14.8009 -56.3861 -13.7959C-55.3375 -12.7029 -53.9893 -12.4643 -52.9657 -11.6854C-50.9933 -10.1904 -49.3704 -8.21814 -47.6727 -6.38402C-47.011 -5.66796 -46.674 -4.58759 -45.9375 -4.00971C-43.4033 -2.0374 -42.6044 0.66353 -42.18 3.67852C-41.9428 5.29908 -41.4559 6.84427 -40.6819 8.38945C-39.6458 10.4623 -40.0578 12.9873 -39.9454 15.3365C-39.858 17.2962 -39.5834 19.2434 -39.3088 21.178C-39.2713 21.4419 -38.7345 21.8313 -38.4224 21.8313C-38.0854 21.8313 -37.586 21.5298 -37.4238 21.2157C-36.1504 18.7535 -35.7385 15.2611 -36.3752 11.417C-36.5624 10.2738 -36.7871 9.21857 -36.113 7.78645C-32.1557 8.75376 -28.3483 9.87182 -25.0027 11.8818C-21.7196 13.8541 -18.4988 16.0777 -16.077 19.1932C-15.74 19.6329 -15.328 20.0474 -15.0909 20.5374C-14.3044 22.1579 -11.8077 21.8187 -11.4706 24.2433C-11.2459 25.8764 -9.74794 27.3211 -8.84913 28.8663C-6.27754 33.3134 -4.70462 37.9992 -5.69082 43.3759C-6.12774 43.5644 -6.63955 44.0041 -7.12641 43.9789C-12.6441 43.6021 -17.5251 45.8382 -22.4311 47.8105C-24.3411 48.5768 -25.964 50.0717 -27.7366 51.1898C-28.4357 51.6295 -29.2096 51.9184 -29.7839 52.1948C-32.1183 50.7878 -34.228 49.4687 -36.3876 48.2376C-38.1103 47.2577 -39.9829 46.7929 -41.9927 46.6673C-44.065 46.5291 -46.0998 46.0517 -48.172 45.7879C-54.7882 44.9588 -60.7054 46.617 -66.4478 50.0968C-69.8058 52.132 -71.6034 55.0088 -73.2263 58.2248C-74.1626 60.0966 -74.8991 62.0814 -75.6606 64.0286C-76.0476 65.0211 -76.2723 66.0637 -75.4234 67.6843C-74.9365 66.1014 -74.6744 65.0336 -74.2749 64.0286C-73.863 62.9859 -73.2887 62.0186 -72.7894 61.0136C-69.8308 54.9711 -65.0247 51.1898 -58.5582 49.7451C-55.1627 48.9788 -51.6674 48.514 -48.197 48.3884C-46.0249 48.313 -43.653 48.7652 -41.6681 49.6446C-39.1465 50.7501 -36.4376 51.6797 -34.4028 53.74C-33.9284 54.2173 -33.2293 54.5063 -32.5927 54.7701C-31.3943 55.2726 -30.433 55.9886 -29.7215 57.1193C-28.8601 58.4886 -27.4495 59.1418 -25.8266 59.8328C-25.0776 56.956 -27.0625 55.3731 -28.3857 53.74C-27.9488 52.0063 -26.4758 51.8933 -25.4771 51.2275C-20.2964 47.7979 -14.4168 46.504 -8.36228 46.2904C-5.49108 46.1899 -2.58244 47.0065 0.313722 47.3582C2.11134 47.5844 3.67179 48.1748 5.30712 49.1421C9.41418 51.5541 13.3714 54.142 17.0915 57.1067C17.9279 57.7725 20.5744 61.2146 21.1736 62.1945C22.4219 64.2171 23.7202 66.2145 25.031 68.1994C26.5415 70.4857 27.3279 72.86 27.0907 75.7117C26.9409 77.4579 27.6775 79.2795 27.9146 81.0759C28.2142 83.2995 28.389 85.5356 28.7136 87.7466C28.7885 88.2365 29.2254 89.0405 29.5375 89.0531C30.1367 89.0908 31.0105 88.8521 31.3351 88.3998C31.9593 87.5204 32.2839 86.4275 32.6958 85.4979C36.6531 85.1085 39.9487 86.5908 43.2194 88.136C43.5939 88.3119 43.9559 88.5254 44.268 88.8018C46.7647 91.0002 49.2364 93.2112 51.6707 95.3846C51.6082 96.2388 51.0839 96.3142 50.4972 96.2639C46.6273 95.9499 42.745 96.3895 38.8751 95.9373C38.0637 95.8368 37.1774 96.2137 36.4034 96.0127C34.1814 95.4599 31.9843 95.6609 29.7622 95.774C28.389 95.8494 26.9659 96.1257 25.6426 95.3971C25.2931 95.2087 24.7688 95.0328 24.4317 95.1584C21.6479 96.2011 18.8891 95.1207 16.1178 95.0831C13.1717 95.0454 10.2506 95.1207 7.31694 95.4599C5.38201 95.6861 3.40962 95.6358 1.4622 95.5353C-0.884692 95.4222 -3.19413 94.6559 -5.5535 95.6107C-6.11525 95.8368 -6.91419 95.4976 -7.60078 95.3971C-10.7965 94.97 -13.9798 94.6308 -17.1631 95.4725C-18.2367 95.7614 -19.2728 95.6986 -20.4338 95.372C-22.0067 94.9197 -23.7294 94.9323 -25.4022 94.9072C-27.774 94.8821 -30.1334 94.9449 -32.5053 95.0705C-39.1839 95.4474 -45.8626 95.0454 -52.5287 94.7062C-55.0254 95.6484 -57.7468 94.4675 -60.3059 95.7112C-61.367 96.2262 -63.0148 95.6861 -64.3506 95.4097C-65.8985 95.0956 -67.384 95.0328 -68.9195 95.372C-69.8683 95.5856 -70.792 95.5604 -71.7782 95.171C-72.4648 94.8946 -73.3761 95.171 -74.1875 95.2589C-74.587 95.2966 -75.1238 95.6609 -75.3735 95.5102C-77.4083 94.2288 -79.4805 95.4222 -81.5153 95.3217C-83.3129 95.2212 -85.123 95.9876 -86.8957 95.1459C-87.0205 95.0831 -87.2078 95.0202 -87.3076 95.0705C-90.1164 96.4901 -92.7629 94.9951 -95.4843 94.6685C-96.845 94.5052 -98.4054 95.171 -99.6038 94.7187C-101.801 93.8771 -103.698 94.97 -105.721 95.0831C-109.316 95.2841 -112.874 95.7614 -116.332 94.2037C-116.918 93.9399 -117.78 93.9273 -118.391 94.1409C-122.761 95.5981 -127.192 94.3921 -131.586 94.5554C-132.523 94.5931 -133.422 94.2037 -134.383 94.7564C-135.581 95.4348 -136.879 95.2841 -137.99 94.5554C-139.626 93.4751 -141.124 93.3117 -143.109 93.8268C-145.905 94.5554 -148.926 93.8896 -151.772 94.769C-152.134 94.8821 -152.621 94.769 -153.008 94.6308C-156.241 93.5002 -159.549 93.965 -162.858 94.0152C-165.204 94.0529 -167.526 94.1032 -169.923 93.6384C-172.595 93.1233 -175.453 93.5881 -178.225 93.6761C-178.911 93.7012 -179.698 94.166 -180.259 93.965C-183.106 92.9097 -186.027 94.2414 -188.886 93.5253C-189.934 93.2615 -191.195 93.2992 -192.206 93.6509C-194.865 94.5806 -197.524 94.2539 -200.096 93.7012C-203.991 92.8721 -207.91 93.1987 -211.818 93.0856C-216.686 92.9474 -221.555 93.0354 -226.423 93.0479C-227.946 93.0479 -229.482 93.0731 -231.005 93.0856C-232.128 93.0982 -233.252 93.1484 -234.363 93.0982C-238.695 92.8972 -243.014 92.6334 -247.333 92.4449C-249.842 92.3319 -252.351 92.5454 -254.848 91.8671C-255.884 91.5781 -257.07 91.9173 -258.194 91.8545C-263.212 91.5781 -268.23 91.2515 -273.249 90.9626C-274.872 90.8746 -280.19 90.3219 -284.409 90.1711C-285.57 89.9576 -286.731 89.744 -288.191 89.4676C-287.692 88.5506 -287.542 87.6963 -287.08 87.1059Z" fill="url(#paint1_linear_3246_5055)"/>
<path opacity="0.6" d="M175.282 11.1C176.46 9.68022 177.105 8.38268 177.301 7.11337C177.46 6.05091 177.955 5.1953 178.273 4.23627C179.236 1.37797 180.89 -1.14183 182.405 -3.73687C182.657 -4.16937 183.012 -4.59249 183.423 -4.90277C185.499 -6.45415 187.153 -8.51325 189.555 -9.66033C190.163 -9.9518 190.658 -10.4689 191.201 -10.892C191.406 -11.0519 191.574 -11.3433 191.799 -11.3715C193.911 -11.6536 195.575 -13.0075 197.519 -13.6751C197.921 -13.8161 198.435 -14.0418 198.772 -13.9102C200.847 -13.1016 202.857 -14.1076 204.895 -14.0418C206.278 -13.9948 207.671 -13.9478 209.054 -13.8632C209.998 -13.8067 210.896 -13.5717 211.896 -13.6751C212.672 -13.7597 213.522 -13.2144 214.326 -12.8947C214.962 -12.6409 215.551 -12.246 216.196 -12.0015C218 -11.3245 219.766 -10.6099 221.14 -9.1996C221.262 -9.07737 221.393 -8.94574 221.552 -8.87992C225.87 -6.99006 227.796 -3.04111 229.936 0.682197C231.264 2.98576 231.441 5.59962 231.18 8.22286C231.067 9.33233 230.89 10.4418 230.806 11.5607C230.778 11.965 230.937 12.3787 231.002 12.8018C231.75 12.6137 231.797 12.0496 231.853 11.5607C232.04 9.84945 232.18 8.13824 232.329 6.42702C232.376 5.90989 232.413 5.39275 232.451 4.88503C232.507 4.10464 232.965 3.66272 233.694 3.38065C235.704 2.60966 237.676 3.05158 239.639 3.5405C240.312 3.70974 240.966 4.00122 241.602 4.30209C242.565 4.7534 243.415 5.34576 243.892 6.3424C244.434 7.48948 245.463 8.4203 245.584 9.73662C243.939 10.8367 242.275 11.8051 240.798 12.9992C239.807 13.7984 239.097 14.9361 238.106 16.0926C239.359 16.3464 240.125 15.7071 240.901 15.2934C241.509 14.9737 241.995 14.4284 242.546 13.9959C243.995 12.8394 245.565 11.9367 247.426 11.523C248.874 11.2034 250.295 10.7521 251.716 10.3102C254.988 9.29472 258.231 8.34509 261.652 9.77423C262.353 10.0657 263.204 9.98109 263.971 10.1597C267.7 11.0059 270.299 13.4129 272.551 16.243C273.468 17.3901 274.206 18.6688 275.066 19.8629C275.234 20.0979 275.561 20.2296 275.86 20.4458C276.543 19.1671 275.122 18.4525 275.337 17.2208C276.16 16.6567 277.038 16.0361 278.31 16.5157C278.618 16.6285 279.085 16.6943 279.328 16.5439C280.422 15.8575 281.366 16.4687 282.338 16.7789C282.759 16.9106 283.123 17.2491 283.535 17.3149C285.339 17.6157 286.143 18.9697 286.909 20.3142C287.741 21.781 288.078 23.3887 287.563 25.0341C287.264 25.9838 286.928 26.877 285.853 27.4976C284.666 28.1745 283.946 29.4908 282.563 30.0738C280.001 31.1457 277.459 31.9355 274.599 31.2867C272.851 30.8918 271.205 30.2901 269.598 29.5849C268.999 29.3216 268.569 28.7105 267.953 28.1557C267.747 28.1839 267.364 28.1463 267.065 28.2779C264.737 29.2934 262.335 29.5379 259.802 29.331C257.876 29.1712 255.932 29.0771 254.006 28.9737C251.136 28.8233 248.659 27.8643 246.332 26.4727C245.481 25.965 244.631 25.6641 243.658 25.4008C243.191 26.2753 244.472 26.6608 244.275 27.4317C244.173 27.5634 244.098 27.7608 243.967 27.8078C241.724 28.5694 239.48 29.3874 237.05 29.3498C235.451 29.331 233.853 29.2276 232.255 29.2276C230.619 29.2276 229.104 28.607 227.702 28.0147C225.711 27.1685 223.767 26.2282 221.673 25.5983C221.86 23.9341 223.72 23.8589 224.3 22.4767C223.907 22.5426 223.561 22.5144 223.318 22.646C220.654 24.1598 218 25.6923 215.326 27.2061C215.027 27.3753 214.663 27.4599 214.326 27.5634C212.214 28.2215 210.11 28.8797 207.989 29.5002C207.484 29.6507 206.942 29.6977 206.418 29.7541C205.53 29.8387 204.642 29.8575 203.764 29.961C201.931 30.1772 200.118 30.243 198.277 30.0644C196.36 29.8763 194.388 30.4311 192.5 29.6037C192.126 29.4438 191.621 29.5285 191.182 29.5567C188.293 29.7165 185.583 28.8985 182.863 28.1651C181.33 27.7514 179.769 27.4411 178.245 27.0086C177.703 26.8488 177.235 26.4539 176.544 26.059C178.058 25.0248 179.189 23.9623 179.694 22.4955C179.339 21.8562 178.881 22.1383 178.507 22.2417C177.301 22.5896 176.198 23.1161 175.413 24.1222C175.198 24.3948 174.973 24.7333 174.674 24.8555C173.048 25.5231 171.655 26.6043 170.057 27.3001C168.767 27.8642 167.402 28.2591 166.056 28.6917C164.635 29.1524 163.177 29.4156 161.681 29.6601C159.765 29.9704 157.821 30.1302 155.914 30.4593C155.091 30.6003 154.344 30.5533 153.549 30.3841C152.689 30.196 151.801 30.1208 150.922 30.008C150.576 29.961 150.175 30.0174 149.875 29.8857C148.483 29.237 147.024 29.0677 145.482 29.0019C144.566 28.9643 143.631 28.4566 142.771 28.0335C141.809 27.554 140.836 27.4129 139.715 27.4505C140.603 29.1994 140.715 29.284 143.762 30.4969C142.36 31.6158 140.575 31.5594 138.958 31.926C137.602 32.2269 136.163 32.1705 134.761 32.2645C133.863 32.3209 133.031 32.1611 132.153 31.9166C131.367 31.7004 130.442 32.1611 129.619 31.6158C129.358 31.4371 128.881 31.3619 128.591 31.4559C127.217 31.8978 126.254 31.2115 125.189 30.5345C124.189 29.8951 122.805 29.8575 122.113 28.6729C121.992 28.4754 121.459 28.419 121.123 28.4284C120.422 28.4378 119.926 28.2121 119.599 27.601C119.515 27.4505 119.421 27.2249 119.291 27.1967C117.402 26.736 116.804 24.9589 115.58 23.8307C114.364 22.7024 113.177 21.5459 111.934 20.4552C111.719 20.2672 111.233 20.1638 110.99 20.2766C110.756 20.38 110.541 20.8031 110.541 21.0852C110.532 22.063 110.897 22.9751 111.532 23.7084C113 25.4009 114.103 27.4223 116.262 28.5036C117 28.8703 116.832 29.6789 116.028 30.102C114.327 31.0046 112.458 31.0892 110.588 31.1174C109.971 31.1268 109.335 30.9388 108.728 30.9858C106.288 31.1833 104.213 30.243 102.203 29.0866C102.073 29.0113 102.016 28.8045 101.867 28.56C103.241 27.648 104.98 27.1027 105.812 25.4761C105.568 25.429 105.344 25.3162 105.232 25.3726C102.344 26.9898 99.072 27.3941 95.8938 28.0147C94.6226 28.2591 93.2766 28.2686 91.996 28.607C91.6221 28.7105 88.5094 28.1557 88.1729 27.9865C87.0792 27.4223 85.9949 26.83 84.8919 26.3035C84.4339 26.0872 83.9198 25.9744 83.4337 25.824C83.0224 25.6923 82.4429 25.7111 82.2185 25.4385C81.4801 24.5358 80.4051 24.0939 79.5265 23.3982C79.1993 23.1443 78.9656 22.7494 78.7506 22.3827C78.5824 22.0912 78.5824 21.6587 78.358 21.4425C76.4792 19.5714 76.5166 17.0516 76.0585 14.7574C75.7033 13.0086 76.2268 11.1752 77.0307 9.52977C78.0963 7.36724 79.3675 5.29872 81.0034 3.50289C82.2092 2.17716 83.6206 1.05831 85.2191 0.146287C86.6679 -0.681115 88.1261 -1.41452 89.79 -1.66838C91.3416 -1.89403 92.8933 -2.07268 94.4543 -2.23252C97.8849 -2.58981 101.063 -1.56494 104.166 -0.361445C106.569 0.578785 108.391 2.32762 109.803 4.46194C110.27 5.16711 110.766 5.85347 111.317 6.62446C111.915 5.65602 112.046 4.88504 111.448 4.07644C111.196 3.73796 111.009 3.34307 110.766 2.99518C109.943 1.78229 109.12 0.578777 108.13 -0.869177C106.737 -1.04782 105.391 -1.98804 104.054 -2.94708C102.755 -3.8779 101.269 -4.36684 99.6889 -4.6113C98.9972 -4.72413 98.2961 -4.88395 97.6044 -4.88395C96.4453 -4.89335 95.7536 -5.40108 95.5947 -6.50114C95.3517 -8.19356 94.3515 -9.68854 94.4917 -11.5126C94.66 -13.6845 94.8656 -15.7718 96.1182 -17.6429C96.5482 -18.2822 96.8566 -19.0062 97.2025 -19.6926C98.2494 -21.7517 100.306 -22.8329 101.858 -24.4031C102.306 -24.8544 103.082 -25.0331 103.736 -25.2493C104.886 -25.6254 106.045 -25.9733 107.223 -26.2554C107.803 -26.3964 108.419 -26.4528 109.008 -26.3964C110.467 -26.2742 111.934 -26.1425 113.364 -25.8887C114.664 -25.6536 115.813 -25.2493 116.14 -23.6227C116.374 -22.4757 117.113 -21.432 117.561 -20.3225C118.505 -17.9626 120.085 -16.1385 122.029 -14.5025C123.011 -13.6751 123.936 -12.7725 125.067 -12.1425C125.731 -11.7664 126.451 -11.3809 127.348 -12.0767C127.152 -12.3494 127.03 -12.6973 126.787 -12.8571C125.329 -13.8161 123.918 -14.7752 123.048 -16.3736C122.702 -17.0129 121.833 -17.3608 121.412 -17.9814C120.412 -19.4763 119.309 -20.9807 118.683 -22.6355C118.001 -24.4501 117.683 -26.434 117.421 -28.3709C117.169 -30.2232 117.038 -32.113 117.627 -33.9653C117.832 -34.614 117.898 -35.3192 117.926 -36.0056C118.029 -38.3655 119.001 -40.434 120.104 -42.4461C120.552 -43.2547 121.384 -43.8377 121.515 -44.8625C121.543 -45.0788 121.833 -45.2574 121.955 -45.4831C122.618 -46.6208 124.198 -46.8464 124.647 -48.1721C125.067 -49.4226 126.535 -49.6201 127.142 -50.7014C127.283 -50.9458 127.722 -51.0304 128.03 -51.1715C129.208 -51.6792 130.414 -52.1399 131.564 -52.704C133.901 -53.8229 136.443 -54.2742 138.901 -54.9888C139.64 -55.2051 140.388 -55.3555 141.126 -55.5529C141.706 -55.7128 142.248 -55.882 142.884 -55.694C143.267 -55.5811 143.762 -55.5905 144.136 -55.7222C145.174 -56.0983 146.108 -56.1735 147.043 -55.4307C147.267 -55.2521 147.726 -55.2239 148.015 -55.3179C148.726 -55.5623 149.333 -55.4025 149.988 -55.1204C150.436 -54.923 151.016 -54.782 151.474 -54.876C152.988 -55.2145 154.315 -54.7631 155.624 -54.105C155.848 -53.9922 156.082 -53.7947 156.316 -53.7947C158.045 -53.7947 159.363 -52.8545 160.756 -51.9989C161.401 -51.604 162.205 -51.4818 162.887 -51.1527C163.411 -50.8988 164.121 -50.6073 164.289 -50.1654C164.841 -48.6893 166.028 -48.1157 167.187 -47.7208C167.692 -46.837 168 -46.0096 168.542 -45.3891C169.571 -44.2138 170.169 -42.8128 170.917 -41.4683C172.141 -39.2776 172.655 -36.8424 173.394 -34.5012C173.814 -33.1567 173.646 -31.6241 173.674 -30.1761C173.702 -28.982 173.59 -27.788 173.627 -26.6033C173.637 -26.3776 174.039 -26.0109 174.282 -25.9827C174.543 -25.9545 175.001 -26.2084 175.086 -26.434C175.955 -28.982 178.095 -30.0351 180.329 -31.0411C183.255 -32.3575 186.218 -32.1036 189.21 -31.389C189.864 -31.2292 190.49 -30.8813 191.088 -30.5616C191.696 -30.2419 192.219 -29.7436 192.846 -29.518C194.425 -28.9444 195.173 -27.7315 195.94 -26.3494C196.557 -25.2305 196.912 -24.0364 197.398 -22.8893C198.09 -21.2345 198.071 -19.4199 198.099 -17.6147C196.865 -16.5992 195.211 -17.0411 193.93 -16.2137C192.715 -15.4333 191.285 -14.982 189.808 -14.3239C188.705 -15.1419 187.462 -15.9128 186.387 -16.8719C184.386 -18.6677 181.909 -19.5703 179.451 -20.2755C176.759 -21.0465 173.917 -20.7832 171.244 -19.8336C167.477 -18.4985 164.392 -16.1855 161.859 -13.1392C161.429 -12.6314 161.176 -11.9827 160.84 -11.3998C158.531 -11.9357 156.26 -12.4622 153.988 -12.9981C151.324 -13.6281 148.614 -13.4494 145.931 -13.252C143.173 -13.0545 140.836 -11.616 138.387 -10.4971C138.079 -10.3561 137.817 -10.121 137.499 -9.98001C135.312 -8.98336 133.443 -7.59181 132.05 -5.64553C130.956 -4.12236 129.591 -2.77784 128.816 -1.03841C128.61 -0.577699 128.124 -0.154611 128.105 0.296699C128.04 1.68824 126.899 2.76013 127.021 4.22688C127.086 5.05429 126.684 5.90989 126.684 6.74669C126.675 8.19465 126.731 9.652 126.909 11.0906C127.133 12.877 127.46 14.654 127.843 16.4123C128.404 18.9979 129.947 21.0758 131.648 23.0597C131.882 23.3324 131.919 23.3041 133.237 23.2571C132.957 22.599 132.798 21.9314 132.433 21.4049C130.564 18.6688 130.078 15.519 129.507 12.4069C129.218 10.8085 130.049 6.65265 130.937 5.26111C131.498 4.3679 130.919 3.59691 131.022 2.64727C131.91 1.64123 132.863 0.625805 133.415 -0.793942C133.882 -1.98803 135.032 -2.98469 136.022 -3.92492C137.116 -4.97798 138.079 -6.13447 139.406 -7.01829C141.556 -8.45684 143.949 -9.21842 146.314 -10.0646C147.398 -10.4595 148.66 -10.7604 149.913 -10.2997C150.296 -10.1586 150.81 -10.1586 151.203 -10.2715C154.026 -11.1459 156.493 -10.0176 158.989 -9.01157C159.709 -8.7201 160.41 -8.37222 161.12 -8.04313C161.438 -7.8927 161.812 -7.79867 162.046 -7.57302C164.588 -5.11902 167.439 -2.92829 169.103 0.296699C169.365 0.795021 169.393 0.776234 170.206 1.02069C170.58 0.475361 170.169 0.0522483 169.972 -0.399062C169.58 -1.34869 169.178 -2.30773 168.748 -3.24796C167.813 -5.32586 166.579 -7.13111 164.504 -8.3064C163.7 -8.75771 163.046 -9.49107 162.242 -10.168C163.121 -11.6912 164.336 -12.7537 165.57 -13.7785C166.299 -14.3897 167.121 -14.8786 167.916 -15.4239C168.626 -15.9129 169.309 -16.477 170.253 -16.4488C170.337 -16.4488 170.449 -16.4676 170.505 -16.5146C172.291 -18.1318 174.627 -17.5206 176.693 -17.972C177.404 -18.1224 178.217 -17.8403 178.974 -17.7181C182.124 -17.2292 184.592 -15.5179 186.798 -13.3742C187.022 -13.1486 187.097 -12.7819 187.275 -12.4246C184.068 -9.9236 181.423 -6.98065 179.292 -3.61463C177.675 -1.05721 176.413 1.70706 175.833 4.65938C175.357 6.59626 174.581 8.59895 175.282 11.1Z" fill="url(#paint2_linear_3246_5055)"/>
<path opacity="0.6" d="M276.708 109.797C277.619 110.556 278.347 111.168 279.065 111.77C279.14 111.833 279.205 111.96 279.28 111.96C280.929 111.928 281.969 112.941 282.933 114.049C283.812 115.062 285.044 115.632 285.804 116.856C286.533 118.027 288.129 118.639 288.247 120.286C289.383 121.267 289.876 122.639 290.572 123.894C291.044 124.739 291.344 125.646 291.226 126.902C290.776 126.67 290.422 126.596 290.229 126.374C289.019 125.002 287.508 123.873 286.758 122.122C286.587 121.721 286.126 121.425 285.751 121.14C285.451 120.908 284.937 120.866 284.765 120.581C283.608 118.629 281.647 117.552 279.976 116.138C279.247 115.526 278.712 114.682 278.112 113.922C277.426 113.047 276.58 112.424 275.422 112.413C274.415 112.403 273.472 112.319 272.669 111.643C272.594 111.58 272.497 111.485 272.422 111.495C270.74 111.77 269.262 110.852 267.708 110.715C265.962 110.556 264.269 110.24 262.576 109.881C262.49 109.86 262.383 109.733 262.319 109.754C260.84 110.261 259.373 110.873 257.862 109.839C256.351 110.187 254.851 110.546 253.33 110.873C252.676 111.01 252.001 111.105 251.326 111.137C249.976 111.189 248.808 111.675 247.983 112.677C247.008 113.87 245.83 114.64 244.308 114.83C243.462 114.935 242.894 115.347 242.326 115.917C240.612 117.626 238.866 119.294 237.141 120.982C236.873 121.246 236.637 121.562 236.466 121.889C235.448 123.947 234.462 126.015 233.455 128.084C233.412 128.168 233.348 128.252 233.337 128.347C233.069 130.236 232.576 132.136 232.641 134.014C232.673 135.08 232.694 136.072 232.437 137.095C232.319 137.56 232.073 138.056 232.148 138.499C232.598 141.221 232.812 143.986 233.733 146.613C233.862 146.972 234.162 147.289 234.194 147.648C234.441 150.349 236.037 152.438 237.43 154.623C238.255 155.91 239.219 157.113 240.355 158.696C239.508 158.611 238.93 158.727 238.651 158.495C237.698 157.683 236.701 156.86 236.005 155.847C234.976 154.338 234.248 152.649 233.316 151.077C232.383 149.515 231.387 147.996 231.055 146.202C230.626 146.139 230.326 146.012 230.058 146.065C227.058 146.635 224.348 147.89 221.809 149.526C221.423 149.779 221.144 150.222 220.844 150.592C220.298 151.256 219.741 151.921 219.248 152.628C218.605 153.567 217.737 154.412 217.759 155.678C217.759 155.857 217.662 156.058 217.566 156.216C216.248 158.453 215.659 160.796 216.43 163.37C216.526 163.708 216.366 164.12 216.312 164.5C216.269 164.784 216.141 165.069 216.151 165.354C216.162 166.388 217.362 167.127 216.88 168.319C216.494 169.28 216.805 170.177 217.298 171.074C217.566 171.548 217.555 172.182 217.684 172.741C217.748 173.015 217.78 173.374 217.962 173.543C218.787 174.313 219.912 174.841 219.955 176.17C220.951 176.677 221.348 177.722 222.076 178.471C222.484 178.882 222.955 179.262 223.469 179.526C224.755 180.191 226.094 180.782 227.401 181.425C228.612 182.016 229.737 182.861 231.012 183.188C232.544 183.589 234.001 184.528 235.812 183.705C236.691 183.304 237.923 183.61 238.983 183.705C240.291 183.831 241.512 183.768 242.701 182.85C242.123 181.658 241.641 180.412 240.955 179.283C239.583 177.025 238.908 174.577 238.523 172.023C238.469 171.665 238.48 171.665 239.423 171.126C240.044 172.414 240.816 173.648 241.244 174.999C242.187 177.933 243.88 180.486 245.24 183.209C245.615 183.958 246.344 184.517 246.848 185.203C248.273 187.134 250.051 188.759 251.573 190.606C252.58 191.83 254.09 192.695 255.473 193.582C257.09 194.616 258.762 195.576 260.487 196.41C261.205 196.758 262.19 196.526 262.962 196.811C263.658 197.064 264.172 197.876 264.869 198.045C265.769 198.267 266.776 198.098 268.094 198.098C268.469 198.351 269.101 199.027 269.862 199.238C270.655 199.449 271.576 199.122 272.433 199.174C273.665 199.259 274.983 198.763 276.13 199.628C276.322 199.776 276.74 199.85 276.933 199.744C278.851 198.773 281.262 199.438 283.019 197.876C283.394 197.539 284.112 197.539 284.679 197.475C286.544 197.275 288.301 196.874 289.619 195.376C289.919 195.038 290.433 194.837 290.883 194.711C291.515 194.531 291.89 194.225 292.062 193.592C292.287 192.759 292.919 192.358 293.733 192.136C295.169 191.746 296.497 191.229 297.237 189.793C297.44 189.403 297.965 189.16 298.329 188.844C298.629 188.59 299.079 188.379 299.176 188.063C300.097 185.182 302.861 183.715 304.447 181.362C304.651 181.056 304.747 180.666 304.865 180.307C305.111 179.537 305.572 178.956 306.311 178.597C307.211 178.872 307.211 179.653 307.04 180.254C306.44 182.333 306.579 184.718 304.661 186.29C304.094 187.81 303.054 188.844 301.565 189.561C300.997 189.836 300.429 190.448 300.226 191.028C299.615 192.769 298.34 193.888 296.904 194.901C296.754 195.006 296.69 195.217 296.594 195.376C297.312 196.093 298.019 196.832 298.758 197.539C299.412 198.151 300.129 198.615 301.104 198.277C302.047 197.961 302.797 198.267 303.515 198.889C303.869 199.195 304.383 199.596 304.758 199.533C307.276 199.122 309.697 200.303 312.204 199.924C314.197 199.618 316.233 199.544 318.194 198.974C319.115 198.7 320.229 198.858 321.033 198.425C324.622 196.494 328.736 195.66 332.036 193.17C333.193 192.294 334.404 191.482 335.518 190.564C336.493 189.762 337.447 189.023 338.583 188.4C339.9 187.683 341.111 186.638 341.99 185.319C342.225 184.96 342.718 184.771 343.265 184.37C343.575 185.963 342.118 186.438 341.711 187.44C341.325 188.379 340.522 189.171 339.815 189.973C339.075 190.817 338.24 191.587 337.393 192.442C338.775 192.949 339.922 193.392 341.09 193.772C341.54 193.919 342.033 194.004 342.515 194.014C343.972 194.046 345.45 193.898 346.843 194.5C349.565 194.13 352.19 195.418 354.922 194.975C355.2 194.932 355.565 195.112 355.768 194.996C356.679 194.458 357.525 194.035 358.725 194.152C359.732 194.246 360.804 193.761 361.822 193.466C362.272 193.339 362.657 193.012 363.097 192.822C363.9 192.495 364.8 192.326 365.507 191.872C366.225 191.408 366.825 190.88 367.704 190.564C368.915 190.131 369.975 189.266 371.09 188.601C370.897 188.274 370.832 188 370.704 187.968C369.965 187.767 368.99 187.852 368.497 187.409C366.943 185.995 364.897 185.488 363.215 184.359C362.915 184.158 362.765 183.757 362.529 183.451C362.24 183.072 362.025 182.502 361.65 182.365C360.032 181.805 359.422 180.381 358.415 179.231C357.483 178.154 356.433 177.173 355.64 175.97C355.211 175.326 355.222 174.725 355.661 173.912C356.143 174.144 356.786 174.239 357.086 174.619C359.411 177.584 362.668 179.389 365.765 181.362C368.54 183.135 371.657 184.348 374.84 185.203C376.854 185.752 378.997 185.942 381.129 185.9C382.875 185.868 384.632 186.047 386.368 185.689C387.032 185.551 387.739 185.499 388.318 185.203C388.993 184.865 389.572 184.813 390.268 185.066C390.622 185.193 391.104 185.298 391.404 185.161C392.089 184.834 392.657 184.285 393.343 183.958C393.932 183.673 394.618 184.338 395.293 183.789C396.857 182.523 399 182.143 400.35 180.528C400.468 180.391 400.671 180.275 400.854 180.233C402.664 179.874 403.5 178.334 404.518 177.12C405.482 175.959 405.954 174.45 407.143 173.395C407.454 173.121 407.454 172.509 407.561 172.034C407.732 171.285 407.668 170.409 408.054 169.797C409.307 167.771 409.457 165.46 409.95 163.244C410.068 162.706 410.057 162.104 409.993 161.555C409.821 160.015 409.779 158.485 410.293 157.134C409.746 155.161 408.504 153.567 408.461 151.573C408.45 151.235 408.171 150.845 407.904 150.581C406.789 149.494 405.921 148.27 405.204 146.909C405.011 146.529 404.561 146.17 404.154 146.033C403.007 145.653 402.225 144.862 401.304 144.155C399.782 142.994 397.939 142.245 396.236 141.327C395.936 141.158 395.636 140.989 395.357 140.841C395.464 140.578 395.507 140.451 395.529 140.451C397.618 140.694 399.761 140.609 401.668 141.844C402.611 142.456 403.811 142.677 404.796 143.036C405.482 142.699 405.579 142.192 405.418 141.749C405 140.556 405.514 139.28 404.839 138.077C404.325 137.169 404.196 136.04 403.039 135.607C402.954 135.576 402.857 135.502 402.814 135.428C402.161 134.468 401.657 133.37 400.843 132.579C400.039 131.798 398.893 131.387 397.982 130.701C397.607 130.416 397.382 129.983 396.804 130.004C396.536 130.015 396.129 129.92 396.022 129.73C394.929 127.904 393.172 128.031 391.404 128.115C390.932 128.136 390.268 128.305 390 128.063C388.747 126.955 387.386 127.567 386.079 127.735C384.547 127.925 383.036 128.337 381.504 128.537C380.464 128.675 379.672 129.139 378.964 129.825C378.064 133.138 378.032 136.789 375.107 139.311C374.507 138.784 374.443 138.172 374.647 137.475C375 136.272 375.365 135.08 375.675 133.866C376.35 131.239 376.672 128.601 376.297 125.878C376.115 124.57 376.082 123.24 375.857 121.921C375.365 119.04 373.811 116.782 372.075 114.566C371.55 113.901 371.207 113.036 370.565 112.551C368.872 111.274 367.147 109.986 365.261 109.005C363.654 108.171 361.832 107.823 359.947 107.887C358.211 107.95 356.465 107.823 354.718 107.834C353.968 107.834 353.208 107.96 352.275 108.045C352.586 109.438 352.843 110.63 353.111 111.823C353.518 113.595 353.979 115.358 354.322 117.141C354.504 118.08 354.708 119.104 354.504 120.001C353.979 122.312 354.654 124.812 353.379 126.997C353.24 127.229 353.058 127.44 352.908 127.651C352.179 127.588 352.275 126.976 352.083 126.606C351.9 126.269 351.729 125.889 351.708 125.519C351.6 124 351.633 122.459 351.44 120.95C351.225 119.357 351.343 117.742 350.893 116.149C350.508 114.788 350.604 113.289 350.347 111.875C350.175 110.957 349.95 109.902 349.361 109.248C348.665 108.477 348.225 107.676 348.043 106.747C347.679 104.9 346.404 103.507 345.643 101.861C345.386 101.302 344.679 100.954 344.197 100.489C343.125 99.4447 341.283 99.1493 340.993 97.3343C339.675 96.8594 339.097 95.8042 338.701 94.5801C338.626 94.348 338.304 94.1791 338.068 93.9998C336.258 92.5963 334.501 91.1401 332.154 90.5386C331.083 90.2642 330.097 89.4728 329.197 88.7658C328.329 88.0905 327.493 87.584 326.336 87.4995C325.179 87.4257 324.022 87.183 323.111 86.3177C322.854 86.075 322.426 85.885 322.061 85.8639C320.122 85.7479 318.247 85.2519 316.254 85.273C314.519 85.2836 312.804 86.0222 311.058 85.4946C309.419 84.9987 307.769 85.3785 306.129 85.4102C305.261 85.4207 304.458 85.4207 303.665 86.0539C303.14 86.4654 302.176 86.286 301.458 86.5287C299.369 87.2568 297.269 87.9849 295.244 88.8819C293.926 89.4728 292.619 90.222 291.526 91.1506C290.487 92.037 289.554 92.9656 288.172 93.3244C287.84 93.4088 287.519 93.7676 287.315 94.0736C286.597 95.1394 285.687 95.9203 284.508 96.5218C283.876 96.8489 283.447 97.6086 283.019 98.2312C282.537 98.9382 282.301 99.8668 281.701 100.447C279.162 102.874 278.23 106.145 276.783 109.153C276.687 109.332 276.73 109.543 276.708 109.797Z" fill="url(#paint3_linear_3246_5055)"/>
<g clip-path="url(#clip1_3246_5055)">
<g clip-path="url(#clip2_3246_5055)">
<path fill-rule="evenodd" clip-rule="evenodd" d="M231.449 308.792C308.703 321.995 326.948 296.439 337.532 274.795C348.115 253.152 344.734 207.414 310.23 192.916C252.056 168.473 282.891 127.065 250.869 96.3083C108.38 -40.5621 -68.7311 257.49 231.449 308.792Z" fill="url(#paint4_linear_3246_5055)"/>
</g>
<path fill-rule="evenodd" clip-rule="evenodd" d="M314.3 139.028C314.3 139.028 321.772 178.28 330.853 191.286C339.934 204.292 351.089 215.586 365.676 219.632C380.263 223.678 389.147 218.118 396.16 199.411C403.174 180.703 385.664 166.315 367.976 160.04C350.288 153.764 347.759 144.281 336.808 136.264C322.596 125.86 313.139 132.172 314.3 139.028Z" fill="url(#paint5_linear_3246_5055)"/>
<g clip-path="url(#clip3_3246_5055)">
<mask id="mask0_3246_5055" style="mask-type:luminance" maskUnits="userSpaceOnUse" x="35" y="99" width="397" height="362">
<path d="M286.439 113.226C286.439 113.226 316.46 142.38 355.914 140.82C398.255 139.144 424.872 165.784 406.624 204.735C381.611 258.13 399.175 264.385 415.829 274.964C441.61 291.359 438.52 330.728 390.572 350.576C342.624 370.423 355.675 446.739 300.789 459.516C263.006 468.319 248.391 411.206 217.135 388.752C216.211 388.086 215.439 386.764 214.437 386.967C207.323 388.387 185.374 424.846 148.082 421.406C109.644 417.865 27.8308 361.119 36.09 312.22C43.5819 267.894 83.7305 265.17 100.524 238.04C117.322 210.923 88.5592 187.453 104.401 153.712C121.435 117.423 154.347 116.476 185.633 124.974C230.727 137.244 242.305 71.3896 286.439 113.226Z" fill="white"/>
</mask>
<g mask="url(#mask0_3246_5055)">
<path d="M186.007 145.665C184.714 149.113 180.876 150.864 177.435 149.574C173.995 148.284 172.253 144.441 173.546 140.993C174.838 137.545 178.677 135.794 182.118 137.084C185.558 138.374 187.3 142.216 186.007 145.665Z" fill="#844914"/>
<path d="M183.99 142.029C183.468 143.423 181.716 144.057 180.091 143.447C178.456 142.835 177.562 141.209 178.085 139.815C178.607 138.421 180.359 137.788 181.984 138.397C183.61 139.006 184.513 140.635 183.99 142.029Z" fill="#A05B22"/>
<path d="M175.32 148.204C174.027 151.652 170.188 153.403 166.748 152.113C163.307 150.823 161.565 146.98 162.858 143.532C164.151 140.084 167.99 138.333 171.43 139.623C174.867 140.922 176.612 144.755 175.32 148.204Z" fill="#844914"/>
<path d="M169.403 145.986C171.034 146.598 172.78 145.963 173.303 144.568C173.826 143.174 172.927 141.547 171.297 140.936C169.666 140.325 167.92 140.96 167.397 142.354C166.874 143.749 167.772 145.375 169.403 145.986Z" fill="#A05B22"/>
<path d="M166.999 156.914C165.707 160.362 161.868 162.113 158.427 160.823C154.987 159.533 153.245 155.69 154.538 152.242C155.83 148.794 159.669 147.043 163.11 148.333C166.55 149.623 168.292 153.465 166.999 156.914Z" fill="#844914"/>
<path d="M164.986 153.269C164.464 154.663 162.712 155.297 161.087 154.687C159.452 154.075 158.558 152.449 159.081 151.055C159.603 149.661 161.355 149.028 162.98 149.637C164.606 150.246 165.509 151.875 164.986 153.269Z" fill="#A05B22"/>
<path d="M154.224 172.037C157.665 173.327 161.503 171.577 162.796 168.128C164.089 164.679 162.348 160.837 158.907 159.547C155.465 158.257 151.628 160.007 150.335 163.456C149.042 166.905 150.783 170.747 154.224 172.037Z" fill="#844914"/>
<path d="M160.779 164.492C160.257 165.886 158.505 166.52 156.88 165.91C155.245 165.298 154.351 163.672 154.874 162.278C155.396 160.884 157.148 160.251 158.773 160.86C160.399 161.469 161.302 163.098 160.779 164.492Z" fill="#A05B22"/>
<path d="M337.868 237.457C337.868 237.457 351.8 263.676 383.351 282.152C414.903 300.628 442.799 314.71 442.799 314.71L396.126 392.007C396.126 392.007 351.928 357.703 328.668 341.891C305.407 326.079 283.225 322.418 276.108 320.741C281.781 311.792 337.868 237.457 337.868 237.457Z" fill="#EFA867"/>
<path d="M337.867 237.457C337.867 237.457 351.798 263.676 383.35 282.152C414.902 300.628 442.798 314.71 442.798 314.71L410.524 368.16C410.524 368.16 362.326 334.69 339.065 318.878C315.805 303.066 294.415 329.05 276.116 320.745C281.779 311.792 337.867 237.457 337.867 237.457Z" fill="#ECB67B"/>
<path d="M312.634 316.081C312.634 316.081 321.942 312.737 340.057 323.482C358.173 334.227 398.111 359.564 398.111 359.564C398.111 359.564 354.645 328.528 344.149 321.496C333.654 314.465 323.537 310.434 312.634 316.081Z" fill="#E28D4D"/>
<path d="M230.567 175.224C230.567 175.224 207.206 164.102 200.496 160.462C193.789 156.812 185.218 150.471 177.055 148.071C168.891 145.671 164.276 149.712 162.039 158.618C159.802 167.524 164.823 171.853 172.356 173.572C179.889 175.292 188 180.222 192.693 183.034C197.386 185.846 207.568 197.23 209.235 198.278C210.911 199.329 230.438 182.051 230.567 175.224Z" fill="#E28D4D"/>
<path d="M225.873 172.03C225.873 172.03 207.202 164.111 200.496 160.462C193.789 156.812 185.218 150.471 177.055 148.071C168.891 145.671 164.276 149.712 162.039 158.618C159.802 167.524 164.823 171.853 172.356 173.572C179.889 175.292 188 180.222 192.693 183.034C197.386 185.846 205.821 192.549 209.801 190.944C211.636 190.197 225.744 178.856 225.873 172.03Z" fill="#EFA867"/>
<path d="M212.537 166.204C204.014 165.558 195.868 166.272 188.893 172.019C187.817 173.35 186.471 176.448 186.906 179.656C189.121 180.889 191.115 182.081 192.703 183.037C197.396 185.849 205.831 192.552 209.811 190.948C211.643 190.21 225.755 178.86 225.883 172.033C225.874 172.03 219.288 169.24 212.537 166.204Z" fill="#EA9957"/>
<path d="M171.307 148.135C171.307 148.135 167.902 147.189 164.74 149.441C161.579 151.693 156.633 160.792 162.678 167.497C164.753 161.193 171.307 148.135 171.307 148.135Z" fill="#FFCFA4"/>
<path d="M172.389 148.541C172.389 148.541 168.984 147.595 165.822 149.847C162.661 152.099 157.715 161.198 163.76 167.903C165.835 161.599 172.389 148.541 172.389 148.541Z" fill="#EFA867"/>
<path d="M185.027 157.491C184.366 153.373 181.325 150.085 177.229 148.126C177.174 148.106 177.111 148.082 177.054 148.071C168.89 145.671 164.275 149.712 162.038 158.618C159.801 167.524 164.822 171.853 172.355 173.572C174.461 174.052 176.616 174.788 178.729 175.662C183.735 171.459 186.261 164.282 185.027 157.491Z" fill="#ECB67B"/>
<path d="M185.282 157.916C185.282 157.916 184.835 170.621 176.346 174.747C180.332 176.149 184.282 178.166 187.621 180.058C192.983 181.139 197.449 180.986 197.449 180.986L203.28 172.519C203.271 172.516 192.076 158.585 185.282 157.916Z" fill="#EA9957"/>
<path d="M269.045 193.716C269.045 193.716 236.282 172.566 231.399 172.211C226.516 171.857 214.81 193.658 209.245 198.281C203.681 202.905 192.067 216.575 187.252 221.562C182.437 226.549 174.653 256.736 177.303 263.046C179.953 269.356 194.359 283.624 208.863 292.901C223.368 302.179 249.366 318.573 277.435 321.56C305.503 324.547 321.871 283.25 321.871 283.25L269.045 193.716Z" fill="#ECB67B"/>
<path d="M218.582 259.445C209.926 246.187 194.066 241.459 182.16 232.475C178.522 243.416 175.5 258.758 177.298 263.055C179.239 267.685 187.52 276.612 197.528 284.699C197.665 271.227 202.149 258.415 218.582 259.445Z" fill="#EA9957"/>
<path d="M269.044 193.716C269.044 193.716 236.28 172.566 231.397 172.211C226.515 171.857 214.809 193.658 209.244 198.281C207.48 199.746 205.12 202.113 202.548 204.824C197.004 210.684 190.539 218.149 187.251 221.562C182.436 226.549 179.87 248.421 182.517 254.74C183.892 258.022 188.172 262.734 193.994 267.807C194.949 268.64 195.974 269.313 197.042 269.868C202.447 269.407 207.535 267.402 211.13 263.692C226.949 247.459 225.408 225.606 227.269 204.13C227.409 200.487 228.9 197.774 230.13 194.797C235.353 196.962 237.119 207.142 236.87 213.934C237.549 209.76 239.785 206.159 242.793 202.858C246.579 199.849 251.911 204.501 251.812 207.127C253.247 227.557 274.023 233.54 290.982 230.885L269.044 193.716Z" fill="#EA9957"/>
<path d="M321.866 283.259L290.973 230.882C274.014 233.536 253.237 227.554 251.802 207.124C251.901 204.497 246.569 199.846 242.784 202.855C239.775 206.156 237.539 209.756 236.86 213.93C237.119 207.142 235.344 196.959 230.12 194.794C228.89 197.771 227.403 200.475 227.259 204.127C225.402 225.594 226.942 247.446 211.12 263.688C207.529 267.39 202.429 269.4 197.033 269.865C203.203 273.076 210.947 271.788 215.857 266.383C218.277 263.718 223.17 259.266 226.786 254.758C224.391 258.949 219.838 265.821 218.266 268.968C214.669 276.146 217.645 284.911 224.825 288.48C224.884 288.513 224.948 288.537 225.016 288.573C227.569 289.84 230.454 287.804 230.223 284.961C229.646 277.983 231.732 255.632 237.543 250.46C235.663 260.037 238.82 284.829 244.27 292.766C246.834 296.504 250.622 299.256 254.944 300.639C257.96 301.605 261.015 302.523 264.091 303.356C261.814 299.374 259.8 294.831 262.025 290.762C267.715 297.757 274.724 304.142 283.127 307.416C284.757 307.655 286.379 307.861 287.985 308.029C316.053 311.016 321.866 283.259 321.866 283.259Z" fill="#EFA867"/>
<path d="M211.918 249.803C216.751 247.6 216.571 241.349 216.067 236.071C203.975 238.959 193.156 245.784 181.706 251.298C181.877 252.683 182.144 253.867 182.508 254.737C183.883 258.019 188.162 262.73 193.985 267.804C195.212 268.872 196.557 269.707 197.971 270.33C197.666 269.359 197.459 268.373 197.352 267.394C196.101 258.945 205.219 253.496 211.918 249.803Z" fill="#EA9957"/>
<path d="M264.066 181.475C264.066 181.475 235.941 224.96 282.484 274.327C260.704 260.856 237.41 214.393 264.066 181.475Z" fill="#E28D4D"/>
<path d="M244.414 181.53C244.414 181.53 244.052 191.149 238.128 206.952C232.204 222.755 234.978 232.662 234.978 232.662C235.852 220.881 237.807 214.099 240.606 206.632C243.402 199.174 247.28 183.337 244.414 181.53Z" fill="#E28D4D"/>
<path d="M230.066 203.486C230.066 203.486 230.967 215.56 230.099 232.711C229.222 249.859 230.915 254.932 223.08 264.403C215.245 273.874 211.71 294.732 211.71 294.732C211.71 294.732 211.322 279.061 218.234 267.686C225.155 256.314 227.572 258.108 227.822 242.686C228.082 227.268 230.066 203.486 230.066 203.486Z" fill="#E28D4D"/>
<path d="M243.992 222.58C243.992 222.58 239.473 256.447 271.237 274.962C263.092 267.211 247.781 252.584 243.992 222.58Z" fill="#E28D4D"/>
<path d="M209.848 201.593C209.848 201.593 196.566 199.277 189.008 189.352C181.451 179.427 170.026 188.667 170.026 188.667C170.026 188.667 161.964 204.267 171.586 213.407C181.205 222.557 196.644 223.245 201.834 222.971C207.025 222.698 209.848 201.593 209.848 201.593Z" fill="#D89456"/>
<path d="M191.433 151.892C190.14 155.34 186.301 157.091 182.861 155.801C179.42 154.511 177.679 150.668 178.971 147.22C180.264 143.772 184.103 142.021 187.543 143.311C190.984 144.601 192.726 148.444 191.433 151.892Z" fill="#844914"/>
<path d="M189.42 148.247C188.898 149.641 187.146 150.275 185.521 149.665C183.886 149.053 182.992 147.427 183.514 146.033C184.037 144.639 185.788 144.006 187.414 144.615C189.048 145.228 189.943 146.854 189.42 148.247Z" fill="#A05B22"/>
<path d="M197.199 163.272C195.906 166.72 192.067 168.471 188.627 167.181C185.186 165.891 183.444 162.048 184.737 158.6C186.03 155.151 189.868 153.401 193.309 154.691C196.75 155.98 198.491 159.823 197.199 163.272Z" fill="#844914"/>
<path d="M195.182 159.636C194.659 161.03 192.908 161.664 191.282 161.054C189.648 160.441 188.753 158.816 189.276 157.422C189.799 156.028 191.55 155.394 193.176 156.004C194.81 156.617 195.704 158.242 195.182 159.636Z" fill="#A05B22"/>
<path d="M199.331 176.541C198.039 179.989 194.2 181.74 190.759 180.45C187.319 179.16 185.577 175.317 186.87 171.869C188.162 168.421 192.001 166.67 195.442 167.96C198.879 169.259 200.624 173.092 199.331 176.541Z" fill="#844914"/>
<path d="M197.315 172.905C196.792 174.299 195.04 174.933 193.415 174.323C191.781 173.711 190.886 172.085 191.409 170.691C191.931 169.297 193.683 168.664 195.308 169.273C196.934 169.882 197.837 171.511 197.315 172.905Z" fill="#A05B22"/>
<path d="M190.314 193.858C193.755 195.148 197.593 193.398 198.886 189.949C200.179 186.5 198.438 182.658 194.996 181.368C191.555 180.078 187.717 181.828 186.424 185.277C185.131 188.726 186.873 192.568 190.314 193.858Z" fill="#844914"/>
<path d="M196.873 186.304C196.351 187.698 194.599 188.332 192.974 187.723C191.339 187.11 190.445 185.484 190.967 184.09C191.49 182.697 193.242 182.063 194.867 182.672C196.492 183.282 197.396 184.911 196.873 186.304Z" fill="#A05B22"/>
<path d="M199.308 203.113C198.015 206.562 194.176 208.312 190.736 207.023C187.295 205.733 185.554 201.89 186.846 198.442C188.139 194.993 191.978 193.243 195.418 194.532C198.859 195.822 200.601 199.665 199.308 203.113Z" fill="#844914"/>
<path d="M197.291 199.478C196.769 200.872 195.017 201.505 193.392 200.896C191.766 200.287 190.863 198.658 191.385 197.264C191.908 195.87 193.659 195.236 195.285 195.846C196.91 196.455 197.814 198.084 197.291 199.478Z" fill="#A05B22"/>
<path d="M199.538 215.824C198.246 219.273 194.407 221.023 190.966 219.733C187.526 218.444 185.784 214.601 187.077 211.153C188.37 207.704 192.208 205.954 195.649 207.243C199.086 208.542 200.831 212.376 199.538 215.824Z" fill="#844914"/>
<path d="M197.522 212.189C196.999 213.583 195.248 214.216 193.622 213.607C191.988 212.994 191.093 211.369 191.616 209.975C192.138 208.581 193.89 207.947 195.515 208.557C197.141 209.166 198.044 210.795 197.522 212.189Z" fill="#A05B22"/>
<path d="M199.296 228.998C198.004 232.447 194.165 234.197 190.724 232.907C187.284 231.618 185.542 227.775 186.835 224.327C188.127 220.878 191.966 219.128 195.407 220.417C198.856 221.711 200.589 225.55 199.296 228.998Z" fill="#844914"/>
<path d="M197.291 225.366C196.769 226.76 195.017 227.394 193.392 226.784C191.757 226.172 190.863 224.546 191.385 223.152C191.908 221.758 193.659 221.125 195.285 221.734C196.914 222.334 197.817 223.963 197.291 225.366Z" fill="#A05B22"/>
<path d="M192.373 248.979C195.814 250.269 199.652 248.518 200.945 245.069C202.238 241.62 200.496 237.779 197.055 236.488C193.614 235.198 189.776 236.949 188.483 240.398C187.19 243.847 188.931 247.688 192.373 248.979Z" fill="#844914"/>
<path d="M198.932 241.425C198.409 242.819 196.658 243.452 195.032 242.843C193.398 242.23 192.503 240.605 193.026 239.211C193.549 237.817 195.3 237.183 196.926 237.793C198.551 238.402 199.454 240.031 198.932 241.425Z" fill="#A05B22"/>
<path d="M201.82 257.929C200.527 261.377 196.688 263.128 193.248 261.838C189.807 260.548 188.065 256.706 189.358 253.257C190.651 249.809 194.49 248.058 197.93 249.348C201.371 250.638 203.112 254.481 201.82 257.929Z" fill="#844914"/>
<path d="M199.815 254.297C199.292 255.691 197.54 256.324 195.915 255.715C194.281 255.102 193.386 253.477 193.909 252.083C194.431 250.689 196.183 250.055 197.808 250.665C199.434 251.274 200.337 252.903 199.815 254.297Z" fill="#A05B22"/>
<path d="M337.864 237.457C332.081 220.465 320.241 203.804 313.727 196.428C296.805 177.253 291.905 173.619 286.799 169.93C281.694 166.24 259.072 154.219 248.861 149.204C238.649 144.189 230.917 149.868 224.297 151.814C217.667 153.757 193.227 155.238 189.962 158.453C186.701 161.659 194.803 176.227 204.852 178.518C214.9 180.808 230.319 182.15 236.756 178.36C245.958 191.564 258.258 192.573 258.258 192.573C254.089 214.711 251.91 230.741 263.736 246.395C275.558 262.058 319.273 288.862 321.075 285.099C323.689 279.637 341.932 249.408 337.864 237.457Z" fill="#E5A565"/>
<path d="M337.866 237.457C332.083 220.465 320.243 203.804 313.729 196.428C296.807 177.253 291.907 173.619 286.801 169.93C281.696 166.24 259.074 154.219 248.863 149.204C238.651 144.189 230.919 149.868 224.298 151.814C218.474 153.533 198.884 154.881 192.014 157.353C191.073 157.692 193.487 157.214 195.684 163.25C197.145 167.266 202.432 169.785 212.259 172.912C220.22 175.442 234.56 178.124 240.997 174.333C246.135 187.717 258.269 192.576 258.269 192.576C254.1 214.714 251.921 230.744 263.747 246.398C275.569 262.062 319.284 288.865 321.086 285.102C323.691 279.637 341.934 249.408 337.866 237.457Z" fill="#ECB67B"/>
<path d="M241.786 148.296C241.375 147.77 240.711 147.428 239.937 147.211C233.914 147.399 228.84 150.493 224.294 151.824C221.469 152.654 215.391 153.4 209.096 154.23C208.33 157.483 207.609 163.086 212.007 162.536C218.156 161.766 227.404 158.636 233.136 157.358C238.871 156.071 243.887 150.962 241.786 148.296Z" fill="#EFBF8F"/>
<path d="M213.958 153.595C213.958 153.595 217.774 155.367 217.741 160.784C216.232 163.326 206.783 164.986 202.489 164.491C198.189 163.983 195.694 163.275 195.694 163.275C195.694 163.275 194.329 159.388 191.432 157.61C195.913 154.696 211.081 152.837 213.958 153.595Z" fill="#FFCFA4"/>
<path d="M258.269 192.576C258.269 192.576 270.422 208.126 301.491 207.066C295.765 210.525 266.975 210.261 258.269 192.576Z" fill="#E5A565"/>
<path d="M255.618 227.723C257.14 231.08 259.204 234.146 261.616 236.888C263.996 239.659 266.76 242.068 269.693 244.189C272.606 246.365 275.855 248.027 279.131 249.565C280.818 250.228 282.495 250.919 284.21 251.51L286.825 252.284C287.704 252.521 288.549 252.848 289.454 252.991C291.235 253.349 292.998 253.783 294.797 254.096C296.603 254.36 298.408 254.655 300.219 254.88C303.842 255.298 307.49 255.623 311.132 255.605C314.773 255.618 318.436 255.381 321.983 254.574C322.867 254.358 323.746 254.13 324.616 253.868C325.473 253.56 326.348 253.289 327.16 252.881C327.579 252.697 327.992 252.501 328.379 252.265C328.781 252.044 329.184 251.823 329.551 251.558C330.32 251.072 331.044 250.487 331.633 249.768C330.565 251.298 328.986 252.378 327.365 253.268C326.559 253.74 325.692 254.075 324.829 254.454C323.962 254.789 323.072 255.075 322.182 255.361C321.277 255.579 320.373 255.818 319.465 256.015L316.716 256.481C314.871 256.677 313.01 256.888 311.15 256.903C307.429 257.077 303.719 256.78 300.035 256.442C298.193 256.246 296.36 255.941 294.529 255.688C292.697 255.384 290.878 254.96 289.057 254.597C288.138 254.438 287.266 254.101 286.363 253.845L283.689 253.039C282.801 252.768 281.949 252.376 281.077 252.039C280.211 251.683 279.332 251.364 278.485 250.985L275.984 249.717L274.738 249.084C274.328 248.858 273.941 248.6 273.538 248.356L271.158 246.875C270.39 246.34 269.658 245.766 268.91 245.207C263.017 240.706 258.103 234.693 255.618 227.723Z" fill="#E5A565"/>
<path d="M280.801 186.913C280.801 186.913 270.405 194.784 258.256 192.573C264.712 198.1 277.869 192.4 280.801 186.913Z" fill="#E5A565"/>
<path d="M236.767 178.363C236.767 178.363 244.858 173.705 244.554 165.065C246.667 168.851 244.002 178.185 236.767 178.363Z" fill="#E5A565"/>
<path d="M182.68 203.373C182.68 203.373 190.379 194.512 196.128 191.568C201.877 188.623 205.027 185.303 202.95 176.804C200.874 168.304 193.549 166.001 181.141 171.982C168.721 177.969 162.723 186.797 161.351 192.93C159.97 199.06 161.887 207.655 170.342 210.268C176.334 212.524 182.68 203.373 182.68 203.373Z" fill="#EFA867"/>
<path d="M162.256 203.128C162.098 202.779 161.956 202.417 161.832 202.06C161.953 202.426 162.098 202.779 162.256 203.128Z" fill="#ECB67B"/>
<path d="M162.275 203.188C162.263 203.163 162.258 203.15 162.246 203.124C162.258 203.15 162.269 203.175 162.275 203.188Z" fill="#ECB67B"/>
<path d="M202.948 176.813C200.872 168.313 193.547 166.011 181.139 171.991C174.667 175.108 169.954 178.998 166.719 182.875C165.037 187.086 172.927 190.931 169.469 196.5C166.945 200.87 166.377 202.577 166.499 205.358C166.714 206.925 167.3 208.466 168.227 209.402C165.335 207.967 163.426 205.723 162.289 203.181C162.306 203.218 162.322 203.255 162.336 203.302C162.381 203.401 162.426 203.501 162.48 203.604C162.628 203.896 162.776 204.189 162.939 204.467C163.028 204.614 163.117 204.761 163.207 204.908C163.342 205.124 163.481 205.331 163.623 205.529C163.756 205.723 163.901 205.912 164.05 206.092C164.141 206.208 164.234 206.315 164.324 206.432C164.547 206.691 164.776 206.931 165.026 207.17C165.118 207.256 165.2 207.338 165.291 207.424C165.56 207.669 165.841 207.909 166.138 208.134C166.218 208.195 166.298 208.256 166.378 208.317C166.702 208.552 167.033 208.768 167.385 208.983C167.454 209.019 167.528 209.068 167.597 209.104C167.98 209.32 168.369 209.517 168.783 209.703C168.828 209.72 168.883 209.741 168.928 209.758C169.381 209.948 169.842 210.121 170.34 210.277C176.345 212.528 182.69 203.376 182.69 203.376C182.69 203.376 190.39 194.515 196.138 191.571C201.875 188.632 205.034 185.316 202.948 176.813Z" fill="#ECB67B"/>
<path d="M185.594 200.243C185.594 200.243 181.903 201.461 178.312 196.946C178.375 201.284 182.717 204.016 185.594 200.243Z" fill="#EFA867"/>
<path d="M176.405 190.275C168.387 181.498 174.639 175.893 175.549 175.14C172.576 177.081 170.101 179.178 168.098 181.307C166.973 184.664 168.394 188.293 170.548 190.184C169.105 188.456 168.634 184.739 169.68 182.912C169.371 186.399 172.027 190.223 174.455 190.834C171.656 188.081 170.574 184.868 171.235 182.308C170.798 185.478 173.643 188.795 176.405 190.275Z" fill="#EFA867"/>
<path d="M191.665 168.713C191.665 168.713 188.227 171.976 190.226 179.229C192.224 186.481 186.382 189.071 183.963 189.919C181.544 190.767 176.056 186.531 176.981 180.932C177.891 175.317 181.675 170.005 191.665 168.713Z" fill="#EFA867"/>
<path d="M191.666 168.713C191.666 168.713 187.034 172.581 189.035 179.825C191.034 187.077 186.377 189.058 183.958 189.906C181.539 190.754 176.051 186.519 176.976 180.92C177.892 175.317 181.676 170.005 191.666 168.713Z" fill="#FFCFA4"/>
<path d="M168.616 240.888C168.616 240.888 182.665 227.481 194.085 225.92C205.505 224.359 211.711 223.134 217.636 215.6C223.56 208.066 220.243 201.558 215.889 200.782C211.531 200.016 195.389 200.602 185.831 203.677C176.274 206.752 164.336 208.925 159.681 215.82C155.044 222.722 158.589 236.427 168.616 240.888Z" fill="#EFA867"/>
<path d="M215.898 200.785C211.629 200.031 195.066 204.238 185.421 207.301C182.921 212.237 186.253 218.514 183.913 220.692C177.641 225.69 166.962 227.829 162.5 235.116C163.583 237.474 165.527 239.513 168.617 240.888C168.617 240.888 182.665 227.481 194.085 225.92C205.506 224.358 211.712 223.134 217.636 215.6C223.561 208.066 220.256 201.552 215.898 200.785Z" fill="#ECB67B"/>
<path d="M187.185 204.597C184.598 208.201 184.95 212.647 187.501 214.605C185.82 211.425 186.956 208.971 188.999 206.186C187.155 209.923 188.436 213.294 190.016 214.216C188.118 208.044 191.509 204.629 193.829 203.083C191.46 203.495 189.201 204.001 187.185 204.597Z" fill="#EFA867"/>
<path d="M212.477 200.597C212.477 200.597 211.511 204.437 210.273 213.645C201.535 216.872 199.614 216.885 197.077 214.613C194.544 212.332 194.009 206.67 196.983 204.234C199.965 201.801 207.933 200.081 212.477 200.597Z" fill="#EFA867"/>
<path d="M212.477 200.597C212.477 200.597 209.014 206.071 210.273 213.645C201.535 216.872 199.614 216.885 197.077 214.613C194.544 212.332 194.009 206.67 196.983 204.234C199.965 201.801 207.933 200.081 212.477 200.597Z" fill="#FFCFA4"/>
<path d="M185.18 273.411C185.18 273.411 184.322 260.506 191.793 255.771C199.264 251.036 200.651 249.12 200.651 249.12C200.651 249.12 212.075 246.971 217.842 239.832C223.62 232.687 218.149 223.545 213.026 222.512C207.912 221.482 191.197 224.971 187.57 226.264C183.953 227.561 171.301 235.02 168.611 240.876C165.936 246.748 165.3 263.47 185.18 273.411Z" fill="#EFA867"/>
<path d="M168.191 241.989C168.168 242.053 168.14 242.125 168.126 242.192C168.14 242.125 168.164 242.062 168.191 241.989Z" fill="#ECB67B"/>
<path d="M173.702 264.793C173.544 264.61 173.377 264.423 173.223 264.231C173.386 264.427 173.544 264.61 173.702 264.793Z" fill="#ECB67B"/>
<path d="M174.211 265.377C174.206 265.365 174.195 265.34 174.189 265.328C174.028 265.154 173.857 264.976 173.699 264.793C173.872 264.992 174.035 265.187 174.211 265.377Z" fill="#ECB67B"/>
<path d="M215.038 223.319C208.084 224.036 198.832 226.08 196.248 227.01C194.441 227.654 190.375 229.846 186.428 232.599C186.446 236.673 192.433 239.495 189.333 244C188.766 245.512 186.806 245.768 184.967 246.524C177.59 252.027 175.389 261.194 178.314 269.134C180.268 270.652 182.537 272.101 185.182 273.423C185.182 273.423 184.325 260.518 191.795 255.783C199.266 251.048 200.654 249.132 200.654 249.132C200.654 249.132 212.078 246.984 217.844 239.845C222.861 233.632 219.387 225.92 215.038 223.319Z" fill="#ECB67B"/>
<path d="M188.66 258.819C188.66 258.819 182.842 262.553 178.023 257.495C178.775 260.213 185.111 261.803 185.72 261.361C184.181 262.91 179.514 262.42 179.514 262.42C182.86 264.841 186.835 264.483 188.66 258.819Z" fill="#EFA867"/>
<path d="M200.645 249.129C200.645 249.129 198.448 249.936 194.27 244.158C195.508 249.123 198.229 252.579 200.645 249.129Z" fill="#EFA867"/>
<path d="M214.041 222.821C213.896 222.767 213.742 222.709 213.594 222.664C213.742 222.709 213.887 222.764 214.041 222.821Z" fill="#ECB67B"/>
<path d="M167.927 242.83C167.944 242.785 167.952 242.736 167.969 242.69C167.952 242.736 167.935 242.781 167.927 242.83Z" fill="#ECB67B"/>
<path d="M167.267 247.31C167.274 247.127 167.277 246.953 167.293 246.773C167.286 246.956 167.279 247.139 167.267 247.31Z" fill="#ECB67B"/>
<path d="M167.315 246.472C167.324 246.31 167.333 246.148 167.352 245.989C167.346 246.142 167.333 246.313 167.315 246.472Z" fill="#ECB67B"/>
<path d="M167.425 245.408C167.447 245.241 167.474 245.085 167.492 244.927C167.465 245.082 167.447 245.241 167.425 245.408Z" fill="#ECB67B"/>
<path d="M167.552 244.517C167.575 244.401 167.598 244.286 167.617 244.179C167.594 244.295 167.575 244.401 167.552 244.517Z" fill="#ECB67B"/>
<path d="M193.061 227.775C193.061 227.775 189.477 232.914 194.208 238.59C191.445 236.811 189.848 233.105 190.217 230.363C188.09 232.766 190.941 237.881 190.941 237.881C188.382 236.437 186.868 233.361 187.585 231.173C188.294 228.982 193.061 227.775 193.061 227.775Z" fill="#EFA867"/>
<path d="M211.067 223.698C211.067 223.698 209.802 227.786 211.249 234.997C206.404 238.497 200.947 237.339 197.841 236.175C194.734 235.01 195.326 227.304 197.153 225.48C198.98 223.657 208.396 222.552 211.067 223.698Z" fill="#EFA867"/>
<path d="M211.067 223.698C211.067 223.698 207.929 228.88 211.249 234.997C206.404 238.497 200.947 237.339 197.841 236.175C194.734 235.01 195.326 227.304 197.153 225.48C198.98 223.657 208.396 222.552 211.067 223.698Z" fill="#FFCFA4"/>
<path d="M280.518 321.715C280.518 321.715 301.413 324.882 329.232 294.743C327.76 306.527 302.812 330.764 280.518 321.715Z" fill="#EFA867"/>
<path d="M341.441 263.117C341.441 263.117 339.988 281.72 330.492 292.324C346.502 303.136 401.318 339.201 404.688 342.023C383.002 322.59 343.343 295.077 339.836 291.439C342.396 283.429 344.058 271.633 341.441 263.117Z" fill="#EFA867"/>
<path d="M88.5157 292.274C90.1141 292.874 92.4314 290.346 91.5601 288.192C91.0686 286.976 89.3104 285.594 86.7233 286.286C84.1452 286.982 83.9238 288.891 83.9238 288.891C79.9075 289.274 65.6366 288.797 64.1607 318.696C64.012 321.675 64.6375 326.874 61.2406 331.402C62.757 331.259 64.0653 329.912 64.648 328.055C64.6136 330.592 63.4282 335.732 62.719 337.624C65.6295 336.207 66.4016 332.966 66.4016 332.966C66.1801 335.04 64.4482 340.099 63.6054 341.001C69.0564 339.401 70.8468 332.784 70.7839 330.562C71.804 333.143 67.9833 340.093 67.9833 340.093C71.8469 338.331 74.7964 329.145 74.8656 326.9C74.5811 330.324 75.8888 331.588 75.8888 331.588C77.5011 317.782 90.0225 303.585 88.5157 292.274Z" fill="#BC4646"/>
<path d="M90.8208 287.802C90.8208 287.802 89.3506 286.311 87.3361 286.712C85.3182 287.122 84.5898 289.12 84.5807 289.282C86.3081 287.586 87.2938 287.512 87.2938 287.512C86.0841 288.183 85.2344 289.269 85.1496 289.495C87.0508 287.968 88.8232 288.157 88.8232 288.157C85.9908 289.366 85.5242 289.842 85.5242 289.842C87.4317 289.04 89.2947 288.933 89.2947 288.933C87.2572 289.944 85.5557 290.06 85.5557 290.06C88.3464 290.446 89.7296 290.273 90.6052 289.476C91.4717 288.675 90.8208 287.802 90.8208 287.802Z" fill="#CE6161"/>
<path d="M82.8394 289.041C82.8394 289.041 82.9259 287.959 84.2669 288.42C85.6079 288.882 88.6236 290.755 89.1125 292.363C89.2069 293.101 88.6073 293.216 88.6073 293.216C88.6073 293.216 86.5311 289.496 82.8394 289.041Z" fill="#603617"/>
<path d="M64.9039 321.358C64.9039 321.358 64.9017 321.254 64.9064 321.05C64.9357 319.461 65.155 312.007 67.0049 306.001C69.0935 299.249 72.6642 291.4 80.199 290.477C77.4842 291.235 74.2843 293.287 71.9299 297.205C69.5756 301.122 67.562 307.098 67.3586 309.014C70.9561 299.802 75.2369 291.982 82.1622 290.79C79.2281 292.106 74.8594 294.308 71.0751 302.644C75.0505 297.342 78.4726 292.308 83.4445 291.271C80.5394 293.114 74.5913 298.677 71.8646 307.462C69.1378 316.246 68.2067 327.933 65.6564 332.676C66.8569 328.842 68.0667 322.647 68.6184 318.044C69.1577 313.446 71.6755 304.779 72.8331 302.488C70.5738 306.152 68.8288 312.29 67.9444 317.946C67.3488 315.359 69.9924 305.944 70.0649 305.559C67.2608 311.857 66.8793 316.803 66.8793 316.803C66.357 314.46 66.9774 310.058 66.9774 310.058C66.105 313.127 64.9039 321.358 64.9039 321.358Z" fill="#CE6161"/>
<path d="M84.5868 291.71C84.5868 291.71 77.5378 295.622 74.3823 304.04C71.2268 312.457 70.5333 328.455 66.0371 337.701C69.1267 333.389 70.6991 325.266 71.3991 321.832C72.0991 318.399 74.1552 306.019 76.8566 301.561C75.2294 307.082 74.3018 311.535 73.714 316.042C73.1262 320.55 71.7566 325.879 71.0723 327.759C72.5361 325.283 74.394 319.146 75.239 313.156C76.0806 307.174 79.9903 298.916 82.0497 297.159C80.1108 301.15 78.4208 304.284 77.4006 310.549C76.3804 316.815 75.5005 320.727 74.7778 322.655C76.2146 320.004 77.0458 317.869 78.594 310.553C80.1421 303.236 87.001 293.018 87.001 293.018C86.0073 293.306 83.4651 296.048 83.4651 296.048C84.2848 294.301 86.201 292.294 86.201 292.294C84.368 293.063 81.8759 295.287 79.808 298.001C80.5634 296.096 83.0911 293.007 84.5868 291.71Z" fill="#CE6161"/>
<path d="M136 292.972L135.28 292.557C136.136 291.072 136.347 289.902 135.899 289.094C135.79 288.888 135.641 288.708 135.455 288.546C135.226 288.387 134.946 288.2 134.593 288.016C133.071 287.322 130.706 287.23 128.984 287.152C127.942 287.102 127.119 287.072 126.615 286.935L124.641 286.401L126.664 286.117C130.889 285.533 133.64 286.492 135.185 287.371C135.437 287.496 135.669 287.645 135.873 287.815C136.412 288.192 136.687 288.501 136.725 288.537L136.602 288.645C136.608 288.658 136.623 288.673 136.625 288.695C137.219 289.775 137.009 291.213 136 292.972Z" fill="#603617"/>
<path d="M94.6275 291.459C92.6753 291.502 91.0607 289.957 91.0213 288.002C90.9819 286.046 92.5264 284.426 94.4785 284.384C96.4307 284.342 98.0454 285.886 98.0848 287.842C98.1151 289.794 96.5706 291.414 94.6275 291.459Z" fill="#844914"/>
<path d="M107.845 293.566C109.68 293.314 110.738 291.976 115.813 293.383C120.665 294.728 124.748 294.194 125.098 294.139C125.107 294.142 125.119 294.137 125.128 294.14C127.31 294.091 129.012 290.951 128.93 287.132C128.848 283.312 127.015 280.261 124.825 280.307C124.825 280.307 120.556 279.853 115.555 281.488C110.546 283.12 109.431 281.835 107.588 281.67C105.744 281.505 105.232 283.419 103.857 283.379C102.47 283.344 100.636 282.904 99.1581 283.248C99.1547 283.257 99.1547 283.257 99.1638 283.26C97.8077 283.444 96.7676 285.449 96.8203 287.863C96.8695 290.287 97.9928 292.236 99.3588 292.356L99.3554 292.365C100.847 292.645 102.661 292.118 104.039 292.015C105.413 291.921 106.014 293.808 107.845 293.566Z" fill="#844914"/>
<path d="M92.0628 286.926C92.0385 286.029 92.8847 285.283 93.9449 285.258C95.0051 285.232 95.8728 285.939 95.8971 286.836C95.9213 287.733 95.0752 288.479 94.015 288.505C92.9548 288.53 92.087 287.823 92.0628 286.926Z" fill="#A05B22"/>
<path d="M127.451 289.053C127.451 289.053 127.823 283.856 126.139 282.688C124.456 281.52 122.459 281.598 119.54 282.599C116.63 283.603 114.01 284.108 111.276 283.516C108.533 282.921 108.068 282.21 106.227 283.357C104.386 284.505 103.07 284.362 101.554 284.228C100.03 284.09 98.796 284.525 98.3391 285.717C97.8822 286.908 97.7554 289.224 99.0128 289.716C100.27 290.208 100.291 288.203 100.822 286.978C101.354 285.752 104.753 284.983 105.788 286.754C106.832 288.529 106.623 290.267 108.203 289.817C109.783 289.367 109.281 286.887 111.136 286.499C112.992 286.11 113.644 287.583 118.221 286.997C122.797 286.411 123.879 286.63 124.535 288.342C125.185 290.041 127.258 291.655 127.451 289.053Z" fill="#A05B22"/>
<path d="M150.568 184.509C154.009 185.799 157.847 184.049 159.14 180.6C160.433 177.151 158.692 173.309 155.25 172.019C151.809 170.729 147.971 172.479 146.678 175.928C145.385 179.377 147.127 183.219 150.568 184.509Z" fill="#844914"/>
<path d="M157.123 176.964C156.601 178.358 154.849 178.992 153.224 178.383C151.589 177.77 150.695 176.144 151.217 174.75C151.74 173.357 153.492 172.723 155.117 173.332C156.742 173.942 157.646 175.571 157.123 176.964Z" fill="#A05B22"/>
<path d="M156.64 193.557C155.347 197.006 151.509 198.756 148.068 197.467C144.627 196.177 142.886 192.334 144.178 188.886C145.471 185.437 149.31 183.687 152.75 184.977C156.191 186.266 157.933 190.109 156.64 193.557Z" fill="#844914"/>
<path d="M154.623 189.922C154.101 191.316 152.349 191.949 150.724 191.34C149.089 190.727 148.195 189.102 148.717 187.708C149.24 186.314 150.992 185.68 152.617 186.29C154.242 186.899 155.146 188.528 154.623 189.922Z" fill="#A05B22"/>
<path d="M154.828 206.751C153.535 210.199 149.696 211.95 146.255 210.66C142.815 209.37 141.073 205.527 142.366 202.079C143.659 198.631 147.497 196.88 150.938 198.17C154.378 199.46 156.12 203.303 154.828 206.751Z" fill="#844914"/>
<path d="M152.822 203.119C152.3 204.512 150.548 205.146 148.923 204.537C147.288 203.924 146.394 202.298 146.917 200.905C147.439 199.511 149.191 198.877 150.816 199.487C152.442 200.096 153.345 201.725 152.822 203.119Z" fill="#A05B22"/>
<path d="M145.58 223.363C149.021 224.653 152.859 222.903 154.152 219.454C155.445 216.005 153.703 212.163 150.262 210.873C146.821 209.583 142.983 211.333 141.69 214.782C140.397 218.231 142.139 222.073 145.58 223.363Z" fill="#844914"/>
<path d="M152.139 215.809C151.616 217.203 149.865 217.836 148.239 217.227C146.605 216.614 145.71 214.989 146.233 213.595C146.756 212.201 148.507 211.567 150.133 212.177C151.767 212.79 152.661 214.415 152.139 215.809Z" fill="#A05B22"/>
<path d="M153.156 232.056C151.863 235.504 148.024 237.255 144.584 235.965C141.143 234.675 139.401 230.832 140.694 227.384C141.987 223.936 145.825 222.185 149.266 223.475C152.707 224.765 154.448 228.608 153.156 232.056Z" fill="#844914"/>
<path d="M151.139 228.42C150.616 229.814 148.865 230.448 147.239 229.838C145.605 229.226 144.711 227.6 145.233 226.206C145.756 224.812 147.507 224.179 149.133 224.788C150.767 225.401 151.661 227.026 151.139 228.42Z" fill="#A05B22"/>
<path d="M152.32 245.193C151.027 248.641 147.188 250.392 143.748 249.102C140.307 247.812 138.565 243.97 139.858 240.521C141.151 237.073 144.99 235.322 148.43 236.612C151.871 237.902 153.612 241.745 152.32 245.193Z" fill="#844914"/>
<path d="M150.303 241.557C149.78 242.951 148.029 243.585 146.403 242.976C144.769 242.363 143.875 240.737 144.397 239.343C144.92 237.95 146.671 237.316 148.297 237.925C149.931 238.538 150.825 240.164 150.303 241.557Z" fill="#A05B22"/>
<path d="M141.341 262.011C144.783 263.301 148.62 261.551 149.913 258.102C151.206 254.653 149.465 250.811 146.024 249.521C142.583 248.231 138.745 249.981 137.452 253.43C136.159 256.879 137.9 260.721 141.341 262.011Z" fill="#844914"/>
<path d="M147.897 254.466C147.374 255.86 145.623 256.494 143.997 255.884C142.363 255.272 141.468 253.646 141.991 252.252C142.513 250.858 144.265 250.225 145.89 250.834C147.525 251.447 148.419 253.072 147.897 254.466Z" fill="#A05B22"/>
<path d="M147.847 271.078C146.554 274.527 142.716 276.277 139.275 274.987C135.835 273.698 134.093 269.855 135.385 266.406C136.678 262.958 140.517 261.208 143.957 262.497C147.398 263.787 149.14 267.63 147.847 271.078Z" fill="#844914"/>
<path d="M145.834 267.434C145.312 268.827 143.56 269.461 141.935 268.852C140.3 268.239 139.406 266.613 139.928 265.22C140.451 263.826 142.202 263.192 143.828 263.801C145.462 264.414 146.357 266.04 145.834 267.434Z" fill="#A05B22"/>
<path d="M144.472 283.903C143.179 287.351 139.341 289.102 135.9 287.812C132.46 286.522 130.718 282.68 132.01 279.231C133.303 275.783 137.142 274.032 140.582 275.322C144.032 276.615 145.765 280.455 144.472 283.903Z" fill="#844914"/>
<path d="M142.467 280.271C141.944 281.665 140.193 282.298 138.567 281.689C136.933 281.076 136.039 279.451 136.561 278.057C137.084 276.663 138.835 276.029 140.461 276.639C142.09 277.239 142.993 278.868 142.467 280.271Z" fill="#A05B22"/>
<path d="M131.537 300.412C134.978 301.702 138.816 299.952 140.109 296.503C141.402 293.054 139.66 289.212 136.219 287.922C132.778 286.632 128.94 288.382 127.647 291.831C126.354 295.28 128.096 299.122 131.537 300.412Z" fill="#844914"/>
<path d="M138.092 292.867C137.569 294.261 135.818 294.895 134.192 294.285C132.558 293.672 131.664 292.047 132.186 290.653C132.709 289.259 134.46 288.626 136.086 289.235C137.72 289.848 138.614 291.473 138.092 292.867Z" fill="#A05B22"/>
<path d="M135.109 308.874C133.816 312.323 129.977 314.073 126.537 312.783C123.096 311.494 121.354 307.651 122.647 304.202C123.94 300.754 127.779 299.003 131.219 300.293C134.669 301.586 136.402 305.426 135.109 308.874Z" fill="#844914"/>
<path d="M133.104 305.242C132.581 306.636 130.83 307.27 129.204 306.66C127.57 306.047 126.675 304.422 127.198 303.028C127.72 301.634 129.472 301 131.097 301.61C132.726 302.21 133.63 303.839 133.104 305.242Z" fill="#A05B22"/>
<path d="M128.312 320.281C127.019 323.73 123.18 325.48 119.74 324.191C116.299 322.901 114.557 319.058 115.85 315.61C117.143 312.161 120.982 310.411 124.422 311.701C127.859 312.999 129.605 316.833 128.312 320.281Z" fill="#844914"/>
<path d="M126.295 316.646C125.773 318.04 124.021 318.673 122.395 318.064C120.761 317.451 119.867 315.826 120.389 314.432C120.912 313.038 122.663 312.404 124.289 313.014C125.914 313.623 126.818 315.252 126.295 316.646Z" fill="#A05B22"/>
<path d="M113.353 335.919C116.794 337.209 120.632 335.459 121.925 332.009C123.218 328.56 121.477 324.719 118.036 323.429C114.594 322.138 110.756 323.889 109.463 327.338C108.17 330.787 109.912 334.629 113.353 335.919Z" fill="#844914"/>
<path d="M119.912 328.365C119.39 329.759 117.638 330.392 116.013 329.783C114.378 329.17 113.484 327.545 114.006 326.151C114.529 324.757 116.281 324.123 117.906 324.733C119.531 325.342 120.435 326.971 119.912 328.365Z" fill="#A05B22"/>
<path d="M116.898 344.236C115.605 347.685 111.766 349.435 108.326 348.145C104.885 346.856 103.143 343.013 104.436 339.565C105.729 336.116 109.568 334.366 113.008 335.655C116.449 336.945 118.191 340.788 116.898 344.236Z" fill="#844914"/>
<path d="M114.885 340.592C114.362 341.986 112.611 342.619 110.985 342.01C109.351 341.397 108.457 339.771 108.979 338.378C109.502 336.984 111.253 336.35 112.879 336.96C114.504 337.569 115.407 339.198 114.885 340.592Z" fill="#A05B22"/>
<path d="M113.339 356.972C112.047 360.42 108.208 362.171 104.767 360.881C101.327 359.591 99.5848 355.749 100.878 352.3C102.17 348.852 106.009 347.101 109.45 348.391C112.89 349.681 114.632 353.524 113.339 356.972Z" fill="#844914"/>
<path d="M111.322 353.336C110.8 354.73 109.048 355.364 107.423 354.755C105.788 354.142 104.894 352.516 105.417 351.122C105.939 349.729 107.691 349.095 109.316 349.704C110.942 350.314 111.845 351.943 111.322 353.336Z" fill="#A05B22"/>
<path d="M103.111 374.04C106.552 375.33 110.39 373.58 111.683 370.131C112.976 366.682 111.235 362.84 107.793 361.55C104.352 360.26 100.514 362.01 99.2213 365.459C97.9283 368.909 99.6698 372.75 103.111 374.04Z" fill="#844914"/>
<path d="M109.666 366.496C109.144 367.89 107.392 368.523 105.767 367.914C104.132 367.301 103.238 365.675 103.76 364.282C104.283 362.888 106.034 362.254 107.66 362.864C109.294 363.476 110.189 365.102 109.666 366.496Z" fill="#A05B22"/>
<path d="M114.449 383.216C113.156 386.664 109.317 388.415 105.877 387.125C102.436 385.835 100.694 381.992 101.987 378.544C103.28 375.095 107.118 373.345 110.559 374.635C114 375.925 115.741 379.767 114.449 383.216Z" fill="#844914"/>
<path d="M112.436 379.571C111.913 380.965 110.162 381.599 108.536 380.989C106.902 380.376 106.007 378.751 106.53 377.357C107.052 375.963 108.804 375.329 110.429 375.939C112.055 376.548 112.958 378.177 112.436 379.571Z" fill="#A05B22"/>
<path d="M111.857 399.007C115.298 400.298 119.136 398.547 120.429 395.098C121.722 391.649 119.981 387.808 116.539 386.517C113.098 385.227 109.26 386.978 107.967 390.427C106.674 393.876 108.416 397.717 111.857 399.007Z" fill="#844914"/>
<path d="M118.416 391.454C117.894 392.848 116.142 393.481 114.517 392.872C112.891 392.263 111.988 390.634 112.51 389.24C113.033 387.846 114.784 387.212 116.41 387.822C118.035 388.431 118.939 390.06 118.416 391.454Z" fill="#A05B22"/>
<path d="M122.341 407.17C125.783 408.46 129.62 406.71 130.913 403.261C132.206 399.812 130.465 395.97 127.024 394.68C123.583 393.39 119.745 395.14 118.452 398.589C117.159 402.038 118.9 405.88 122.341 407.17Z" fill="#844914"/>
<path d="M128.897 399.625C128.374 401.019 126.623 401.653 124.997 401.044C123.363 400.431 122.468 398.805 122.991 397.411C123.513 396.018 125.265 395.384 126.89 395.993C128.516 396.603 129.419 398.232 128.897 399.625Z" fill="#A05B22"/>
<path d="M143.371 407.477C142.078 410.925 138.239 412.676 134.798 411.386C131.358 410.096 129.616 406.253 130.909 402.805C132.202 399.357 136.04 397.606 139.481 398.896C142.921 400.186 144.663 404.029 143.371 407.477Z" fill="#844914"/>
<path d="M141.354 403.841C140.831 405.235 139.08 405.869 137.454 405.26C135.82 404.647 134.925 403.021 135.448 401.627C135.97 400.234 137.722 399.6 139.347 400.209C140.982 400.822 141.876 402.448 141.354 403.841Z" fill="#A05B22"/>
<path d="M156.695 407.755C155.402 411.204 151.563 412.954 148.123 411.664C144.682 410.375 142.94 406.532 144.233 403.083C145.526 399.635 149.365 397.884 152.805 399.174C156.246 400.464 157.987 404.307 156.695 407.755Z" fill="#844914"/>
<path d="M154.69 404.123C154.167 405.517 152.415 406.151 150.79 405.541C149.156 404.928 148.261 403.303 148.784 401.909C149.306 400.515 151.058 399.881 152.683 400.491C154.309 401.1 155.212 402.729 154.69 404.123Z" fill="#A05B22"/>
<path d="M169.761 405.541C168.468 408.989 164.63 410.74 161.189 409.45C157.749 408.16 156.007 404.318 157.299 400.869C158.592 397.421 162.431 395.67 165.871 396.96C169.321 398.253 171.054 402.093 169.761 405.541Z" fill="#844914"/>
<path d="M167.76 401.9C167.237 403.294 165.486 403.927 163.86 403.318C162.235 402.709 161.332 401.08 161.854 399.686C162.377 398.292 164.128 397.658 165.754 398.268C167.379 398.877 168.282 400.506 167.76 401.9Z" fill="#A05B22"/>
<path d="M180.031 397.106C178.738 400.555 174.899 402.305 171.459 401.016C168.018 399.726 166.276 395.883 167.569 392.435C168.862 388.986 172.701 387.236 176.141 388.526C179.582 389.815 181.323 393.658 180.031 397.106Z" fill="#844914"/>
<path d="M178.014 393.471C177.491 394.865 175.74 395.498 174.114 394.889C172.48 394.276 171.585 392.651 172.108 391.257C172.631 389.863 174.382 389.229 176.008 389.839C177.642 390.452 178.536 392.077 178.014 393.471Z" fill="#A05B22"/>
<path d="M188.726 387.484C187.433 390.932 183.594 392.682 180.154 391.393C176.713 390.103 174.972 386.26 176.264 382.812C177.557 379.363 181.396 377.613 184.836 378.903C188.273 380.201 190.019 384.035 188.726 387.484Z" fill="#844914"/>
<path d="M186.709 383.848C186.187 385.242 184.435 385.875 182.81 385.266C181.175 384.653 180.281 383.028 180.803 381.634C181.326 380.24 183.077 379.606 184.703 380.216C186.337 380.829 187.232 382.454 186.709 383.848Z" fill="#A05B22"/>
<path d="M194.371 375.365C193.078 378.813 189.239 380.564 185.798 379.274C182.358 377.984 180.616 374.141 181.909 370.693C183.202 367.245 187.04 365.494 190.481 366.784C193.921 368.074 195.663 371.916 194.371 375.365Z" fill="#844914"/>
<path d="M192.365 371.733C191.843 373.126 190.091 373.76 188.466 373.151C186.831 372.538 185.937 370.912 186.46 369.519C186.982 368.125 188.734 367.491 190.359 368.1C191.985 368.71 192.888 370.339 192.365 371.733Z" fill="#A05B22"/>
<path d="M189.423 366.666C192.865 367.956 196.703 366.206 197.996 362.757C199.289 359.308 197.547 355.466 194.106 354.176C190.665 352.886 186.827 354.636 185.534 358.085C184.241 361.534 185.982 365.376 189.423 366.666Z" fill="#844914"/>
<path d="M195.979 359.121C195.456 360.515 193.705 361.149 192.079 360.539C190.445 359.927 189.55 358.301 190.073 356.907C190.595 355.513 192.347 354.88 193.972 355.489C195.607 356.102 196.501 357.727 195.979 359.121Z" fill="#A05B22"/>
<path d="M201.078 349.842C199.785 353.29 195.946 355.041 192.505 353.751C189.065 352.461 187.323 348.618 188.616 345.17C189.909 341.722 193.747 339.971 197.188 341.261C200.628 342.551 202.37 346.393 201.078 349.842Z" fill="#844914"/>
<path d="M199.061 346.206C198.538 347.6 196.787 348.234 195.161 347.624C193.527 347.012 192.632 345.386 193.155 343.992C193.677 342.598 195.429 341.965 197.054 342.574C198.689 343.187 199.583 344.812 199.061 346.206Z" fill="#A05B22"/>
<path d="M195.443 340.607C198.884 341.898 202.722 340.147 204.015 336.698C205.308 333.249 203.567 329.407 200.125 328.117C196.684 326.827 192.846 328.577 191.553 332.027C190.26 335.476 192.002 339.317 195.443 340.607Z" fill="#844914"/>
<path d="M201.998 333.063C201.476 334.457 199.724 335.09 198.099 334.481C196.473 333.872 195.57 332.243 196.092 330.849C196.615 329.455 198.366 328.821 199.992 329.431C201.617 330.04 202.521 331.669 201.998 333.063Z" fill="#A05B22"/>
<path d="M196.091 327.338C199.533 328.628 203.37 326.878 204.663 323.429C205.957 319.98 204.215 316.138 200.774 314.848C197.333 313.558 193.495 315.308 192.202 318.757C190.909 322.206 192.65 326.048 196.091 327.338Z" fill="#844914"/>
<path d="M202.651 319.784C202.128 321.178 200.376 321.812 198.751 321.203C197.117 320.59 196.222 318.964 196.745 317.57C197.267 316.177 199.019 315.543 200.644 316.152C202.279 316.765 203.173 318.391 202.651 319.784Z" fill="#A05B22"/>
<path d="M205.48 310.212C204.187 313.66 200.348 315.411 196.908 314.121C193.467 312.831 191.725 308.988 193.018 305.54C194.311 302.091 198.15 300.341 201.59 301.631C205.031 302.92 206.773 306.763 205.48 310.212Z" fill="#844914"/>
<path d="M203.463 306.576C202.94 307.97 201.189 308.604 199.563 307.994C197.929 307.381 197.035 305.756 197.557 304.362C198.08 302.968 199.831 302.335 201.457 302.944C203.082 303.553 203.989 305.173 203.463 306.576Z" fill="#A05B22"/>
<path d="M196.545 300.833C199.986 302.123 203.824 300.373 205.117 296.924C206.41 293.475 204.668 289.633 201.227 288.343C197.786 287.053 193.948 288.803 192.655 292.252C191.362 295.701 193.103 299.543 196.545 300.833Z" fill="#844914"/>
<path d="M203.1 293.288C202.577 294.682 200.826 295.316 199.2 294.707C197.566 294.094 196.671 292.468 197.194 291.074C197.716 289.681 199.468 289.047 201.094 289.656C202.719 290.266 203.626 291.885 203.1 293.288Z" fill="#A05B22"/>
<path d="M204.144 270.691C202.851 274.14 199.012 275.89 195.572 274.601C192.131 273.311 190.389 269.468 191.682 266.02C192.975 262.571 196.814 260.821 200.254 262.111C203.691 263.409 205.433 267.252 204.144 270.691Z" fill="#844914"/>
<path d="M202.127 267.056C201.605 268.45 199.853 269.083 198.228 268.474C196.593 267.861 195.699 266.236 196.221 264.842C196.744 263.448 198.495 262.814 200.121 263.424C201.755 264.037 202.65 265.662 202.127 267.056Z" fill="#A05B22"/>
<path d="M197.08 287.697C200.521 288.987 204.359 287.237 205.652 283.788C206.945 280.339 205.203 276.497 201.762 275.207C198.321 273.917 194.483 275.667 193.19 279.116C191.897 282.565 193.639 286.407 197.08 287.697Z" fill="#844914"/>
<path d="M203.635 280.153C203.112 281.546 201.361 282.18 199.735 281.571C198.101 280.958 197.207 279.332 197.729 277.939C198.252 276.545 200.003 275.911 201.629 276.52C203.257 277.121 204.161 278.75 203.635 280.153Z" fill="#A05B22"/>
<path d="M302.46 215.201C302.46 215.201 291.416 219.578 278.011 211.321C264.607 203.065 261.835 203.564 261.046 213.25C260.257 222.937 266.453 241.796 295.888 246.441C325.328 251.099 320.329 237.044 305.652 233.968C290.975 230.891 302.249 231.257 305.757 225.418C309.264 219.579 309.023 214.069 302.46 215.201Z" fill="#EFBF8F"/>
</g>
</g>
</g>
</g>
<defs>
<linearGradient id="paint0_linear_3246_5055" x1="180" y1="0" x2="180" y2="800" gradientUnits="userSpaceOnUse">
<stop stop-color="#2D6285"/>
<stop offset="1" stop-color="#003F69"/>
</linearGradient>
<linearGradient id="paint1_linear_3246_5055" x1="-118.26" y1="-18.4828" x2="-118.26" y2="96.2759" gradientUnits="userSpaceOnUse">
<stop stop-color="#E0E0E0"/>
<stop offset="1" stop-color="white" stop-opacity="0"/>
</linearGradient>
<linearGradient id="paint2_linear_3246_5055" x1="181.876" y1="-56" x2="181.876" y2="32.2759" gradientUnits="userSpaceOnUse">
<stop stop-color="#E0E0E0"/>
<stop offset="1" stop-color="white" stop-opacity="0"/>
</linearGradient>
<linearGradient id="paint3_linear_3246_5055" x1="313.189" y1="85.2414" x2="313.189" y2="200" gradientUnits="userSpaceOnUse">
<stop stop-color="#E0E0E0"/>
<stop offset="1" stop-color="white" stop-opacity="0"/>
</linearGradient>
<linearGradient id="paint4_linear_3246_5055" x1="251.218" y1="83.9528" x2="172.587" y2="293.699" gradientUnits="userSpaceOnUse">
<stop stop-color="white"/>
<stop offset="0.697917" stop-color="#F5FFFF"/>
<stop offset="1" stop-color="#DEFEFF"/>
</linearGradient>
<linearGradient id="paint5_linear_3246_5055" x1="363.831" y1="144.992" x2="339.465" y2="209.987" gradientUnits="userSpaceOnUse">
<stop stop-color="white"/>
<stop offset="0.697917" stop-color="#F5FFFF"/>
<stop offset="1" stop-color="#DEFEFF"/>
</linearGradient>
<clipPath id="clip0_3246_5055">
<rect width="360" height="800" fill="white"/>
</clipPath>
<clipPath id="clip1_3246_5055">
<rect width="360" height="440" fill="white"/>
</clipPath>
<clipPath id="clip2_3246_5055">
<rect width="295.999" height="224" fill="white" transform="translate(112.637 32) rotate(20.5505)"/>
</clipPath>
<clipPath id="clip3_3246_5055">
<rect width="382.971" height="344.55" fill="white" transform="translate(132.949 50.2021) rotate(20.5505)"/>
</clipPath>
</defs>
</svg>
