<svg width="360" height="440" viewBox="0 0 360 440" fill="none" xmlns="http://www.w3.org/2000/svg">
<g clip-path="url(#clip0_2102_3024)">
<g clip-path="url(#clip1_2102_3024)">
<path fill-rule="evenodd" clip-rule="evenodd" d="M237.913 406.347C340.654 442.221 371.52 411.432 390.996 384.236C410.471 357.04 416.373 293.637 372.466 265.839C298.439 218.972 350.194 169.38 313.429 119.892C149.84 -100.33 -161.298 266.96 237.913 406.347Z" fill="url(#paint0_linear_2102_3024)"/>
<path fill-rule="evenodd" clip-rule="evenodd" d="M341.873 155.718C341.873 155.718 342.836 200.469 350.452 216.525C358.068 232.581 368.293 247.131 383.657 254.312C399.021 261.493 409.869 257.002 421.093 237.638C432.317 218.275 415.645 199.126 397.27 188.906C378.894 178.686 377.862 167.74 367.253 156.848C353.484 142.713 341.863 147.928 341.873 155.718Z" fill="url(#paint1_linear_2102_3024)"/>
<g clip-path="url(#clip2_2102_3024)">
<path d="M67.35 243.71C62.6842 241.006 61.0848 235.016 63.7846 230.358C66.4844 225.701 72.4766 224.112 77.1424 226.816L149.279 268.629L149.448 269.774C150.105 274.239 151.024 278.695 152.178 283.017C152.714 285.023 153.321 287.07 153.983 289.099L155.921 295.047L67.3507 243.709L67.35 243.71Z" fill="#E9FFFF"/>
<path d="M147.077 270.119C147.747 274.671 148.676 279.191 149.862 283.631C150.418 285.715 151.033 287.785 151.703 289.838L68.55 241.64C65.0221 239.595 63.8171 235.082 65.8585 231.56C67.8999 228.039 72.4144 226.841 75.9423 228.886L147.077 270.119ZM151.48 267.139L149.476 265.977L78.3424 224.746C72.5332 221.378 65.0721 223.357 61.7106 229.156C58.3492 234.955 60.3407 242.413 66.1499 245.78L149.303 293.979L160.136 300.258L156.261 288.363C155.613 286.372 155.018 284.368 154.493 282.403C153.363 278.17 152.462 273.804 151.819 269.428L151.48 267.139Z" fill="#336B6C"/>
<path d="M101.427 225.754C96.7614 223.05 95.162 217.06 97.8617 212.403C100.562 207.745 106.554 206.156 111.22 208.86L150.142 231.421L149.861 233.063C149.564 234.802 149.306 236.536 149.095 238.217C148.66 241.699 148.379 245.269 148.261 248.829L148.129 252.823L101.428 225.753L101.427 225.754Z" fill="#E7EFBD"/>
<path d="M147.5 232.656C147.201 234.405 146.939 236.16 146.718 237.917C146.269 241.504 145.987 245.121 145.867 248.747L102.628 223.685C99.1004 221.64 97.8954 217.127 99.9368 213.606C101.978 210.084 106.493 208.887 110.021 210.931L147.5 232.656ZM152.786 230.188L149.9 228.515L112.42 206.79C106.61 203.423 99.1492 205.401 95.7878 211.201C92.4264 217 94.4179 224.458 100.227 227.825L143.466 252.887L150.39 256.901L150.655 248.912C150.77 245.425 151.046 241.928 151.472 238.518C151.678 236.872 151.931 235.174 152.222 233.471L152.786 230.188Z" fill="#336B6C"/>
<path d="M77.6911 174.288C73.0253 171.584 71.4259 165.594 74.1257 160.937C76.8254 156.279 82.8177 154.69 87.4835 157.394L160.831 199.909L159.862 201.909C157.741 206.286 155.881 210.825 154.332 215.401L153.395 218.169L77.6911 174.288Z" fill="#E9FFFF"/>
<path d="M157.705 200.863C155.535 205.343 153.648 209.948 152.061 214.63L78.8911 172.218C75.3632 170.173 74.1582 165.661 76.1996 162.139C78.2409 158.617 82.7555 157.42 86.2834 159.465L157.705 200.863ZM163.956 198.955L160.104 196.722L88.6835 155.324C82.8743 151.957 75.4131 153.935 72.0517 159.735C68.6903 165.534 70.6818 172.991 76.491 176.359L149.661 218.771L154.726 221.707L156.601 216.17C158.119 211.689 159.942 207.242 162.018 202.954L163.956 198.955Z" fill="#336B6C"/>
<path d="M122.958 162.819C118.293 160.115 116.693 154.125 119.393 149.467C122.093 144.81 128.085 143.221 132.751 145.925L179.547 173.05L177.611 175.239C174.411 178.858 171.396 182.728 168.652 186.744L167.399 188.578L122.958 162.819Z" fill="#E7EFBD"/>
<path d="M175.814 173.652C172.538 177.355 169.48 181.282 166.673 185.392L124.158 160.749C120.631 158.704 119.426 154.191 121.467 150.67C123.508 147.148 128.023 145.951 131.551 147.996L175.814 173.652ZM183.28 172.448L178.215 169.512L133.951 143.855C128.142 140.488 120.68 142.466 117.319 148.265C113.958 154.065 115.949 161.522 121.758 164.889L164.273 189.532L168.125 191.765L170.632 188.096C173.32 184.163 176.273 180.371 179.407 176.827L183.28 172.448Z" fill="#336B6C"/>
<path d="M122.533 124.865C117.868 122.16 116.268 116.171 118.968 111.513C121.668 106.855 127.66 105.266 132.326 107.971L207.002 151.256L203.601 153.356C200.57 155.228 197.612 157.246 194.807 159.355C193.453 160.373 192.076 161.459 190.715 162.581L189.43 163.641L122.533 124.865Z" fill="#E9FFFF"/>
<path d="M202.339 151.319C199.252 153.226 196.254 155.269 193.364 157.441C191.949 158.506 190.556 159.605 189.188 160.734L123.733 122.794C120.205 120.75 119 116.237 121.042 112.715C123.083 109.193 127.598 107.996 131.126 110.041L202.339 151.319ZM211.664 151.193L204.74 147.179L133.526 105.901C127.717 102.533 120.255 104.512 116.894 110.311C113.533 116.11 115.524 123.568 121.333 126.935L186.787 164.875L189.673 166.547L192.242 164.429C193.574 163.329 194.923 162.266 196.249 161.269C198.996 159.204 201.893 157.227 204.862 155.394L211.664 151.193Z" fill="#336B6C"/>
<path d="M184.585 123.125C179.919 120.42 178.32 114.431 181.019 109.773C183.719 105.115 189.711 103.526 194.377 106.231L247.512 137.03L241.388 138.304C239.296 138.74 237.219 139.23 235.213 139.762C230.887 140.909 226.565 142.327 222.365 143.975L221.287 144.397L184.586 123.123L184.585 123.125Z" fill="#E7EFBD"/>
<path d="M240.896 135.961C238.782 136.401 236.679 136.895 234.595 137.448C230.153 138.626 225.769 140.065 221.486 141.748L185.785 121.054C182.257 119.009 181.052 114.497 183.093 110.975C185.135 107.453 189.649 106.256 193.177 108.301L240.896 135.961ZM254.128 138.099L243.295 131.82L195.577 104.16C189.768 100.793 182.307 102.772 178.946 108.571C175.584 114.37 177.576 121.828 183.385 125.195L219.084 145.888L221.089 147.05L223.243 146.204C227.359 144.587 231.594 143.199 235.83 142.076C237.797 141.554 239.832 141.074 241.879 140.648L254.128 138.099Z" fill="#336B6C"/>
<path d="M201.755 344.487C190.7 338.079 180.935 329.94 172.73 320.295C164.801 310.975 158.498 300.454 153.992 289.026C151.964 283.879 150.305 278.541 149.062 273.158C147.338 265.691 146.385 258.031 146.227 250.39C146.11 244.77 146.427 239.094 147.167 233.522C148.007 227.193 149.41 220.897 151.335 214.809C152.859 209.989 154.738 205.22 156.92 200.633C158.229 197.882 159.661 195.16 161.179 192.542C162.697 189.923 164.347 187.327 166.084 184.825C168.979 180.653 172.184 176.651 175.608 172.932C179.933 168.236 184.699 163.889 189.774 160.015C194.241 156.602 199.01 153.507 203.944 150.815C210.653 147.155 217.773 144.176 225.11 141.959C230.399 140.361 235.855 139.147 241.33 138.35C253.486 136.58 265.748 136.82 277.776 139.068C290.222 141.393 302.139 145.822 313.195 152.23C326.089 159.704 337.157 169.464 346.088 181.234C354.236 191.972 360.3 203.962 364.133 216.903L394.164 208.939C398.151 207.882 402.237 207.638 406.308 208.214C410.23 208.77 413.962 210.062 417.397 212.053C420.833 214.044 423.808 216.64 426.24 219.768C428.763 223.014 430.582 226.68 431.647 230.666C432.711 234.651 432.961 238.733 432.39 242.8C431.84 246.72 430.553 250.446 428.565 253.875C426.577 257.305 423.983 260.273 420.857 262.698C417.611 265.215 413.945 267.027 409.958 268.084L364.127 280.238C361.64 288.557 358.158 296.603 353.771 304.172C346.249 317.148 336.406 328.262 324.513 337.204C313.028 345.84 300.126 352.095 286.166 355.797C272.207 359.499 257.892 360.46 243.618 358.656C228.838 356.79 214.754 352.022 201.755 344.487Z" fill="#E9FFFF"/>
<path d="M416.196 214.125C419.363 215.961 422.106 218.354 424.347 221.237C426.673 224.229 428.349 227.609 429.33 231.283C430.311 234.957 430.542 238.719 430.015 242.467C429.507 246.079 428.322 249.514 426.489 252.676C424.657 255.837 422.267 258.574 419.383 260.809C416.393 263.129 413.012 264.798 409.338 265.774L374.139 275.107L368.225 276.675L362.204 278.272C359.79 286.725 356.304 295.021 351.695 302.973C321.584 354.92 254.99 372.58 202.954 342.417C180.838 329.598 164.913 310.204 156.22 288.152C154.228 283.1 152.615 277.909 151.395 272.624C149.712 265.331 148.776 257.865 148.621 250.344C148.507 244.854 148.811 239.337 149.542 233.84C150.358 227.69 151.712 221.566 153.62 215.534C155.103 210.843 156.922 206.209 159.084 201.663C160.354 198.99 161.742 196.348 163.252 193.743C164.762 191.138 166.365 188.621 168.052 186.19C170.923 182.054 174.039 178.174 177.373 174.554C181.659 169.901 186.3 165.682 191.231 161.917C195.638 158.551 200.275 155.546 205.095 152.915C211.697 149.313 218.643 146.414 225.806 144.25C230.997 142.681 236.304 141.501 241.678 140.718C265.134 137.301 289.878 141.481 311.994 154.3C337.804 169.26 355.183 193.175 362.473 219.821L367.678 218.441L372.882 217.061L394.779 211.254C398.455 210.28 402.22 210.055 405.972 210.587C409.589 211.098 413.029 212.289 416.196 214.125ZM418.596 209.984C414.892 207.837 410.869 206.445 406.639 205.847C402.249 205.225 397.843 205.488 393.544 206.627L371.647 212.434L366.442 213.814L365.743 213.999C364.031 208.633 361.918 203.384 359.441 198.342C356.233 191.814 352.382 185.572 347.996 179.791C343.528 173.901 338.456 168.429 332.922 163.522C327.247 158.493 321.014 153.996 314.395 150.16C303.103 143.614 290.929 139.091 278.214 136.716C265.927 134.42 253.399 134.173 240.982 135.982C235.391 136.796 229.817 138.037 224.414 139.669C216.921 141.932 209.647 144.976 202.794 148.714C197.752 151.464 192.882 154.627 188.318 158.113C183.133 162.074 178.264 166.513 173.845 171.312C170.347 175.111 167.073 179.198 164.115 183.461C162.342 186.017 160.657 188.667 159.107 191.342C157.556 194.017 156.094 196.796 154.757 199.605C152.528 204.29 150.61 209.163 149.052 214.086C147.084 220.305 145.652 226.738 144.792 233.205C144.035 238.898 143.713 244.697 143.831 250.438C143.992 258.242 144.967 266.067 146.728 273.695C147.996 279.193 149.691 284.646 151.763 289.903C156.365 301.577 162.806 312.325 170.905 321.846C179.286 331.699 189.262 340.014 200.554 346.56C207.225 350.427 214.284 353.621 221.531 356.053C228.597 358.425 235.927 360.101 243.319 361.035C250.575 361.953 257.964 362.165 265.279 361.667C272.523 361.173 279.758 359.978 286.783 358.115C293.809 356.251 300.683 353.705 307.216 350.545C313.811 347.355 320.116 343.511 325.956 339.121C331.904 334.649 337.428 329.562 342.377 324.006C347.454 318.305 351.984 312.039 355.845 305.379C360.1 298.038 363.522 290.256 366.03 282.215L369.462 281.305L375.376 279.737L410.575 270.403C414.874 269.263 418.828 267.309 422.327 264.595C425.699 261.98 428.496 258.78 430.639 255.082C432.782 251.385 434.17 247.368 434.762 243.142C435.378 238.757 435.109 234.354 433.961 230.058C432.814 225.761 430.852 221.807 428.13 218.307C425.508 214.93 422.3 212.131 418.596 209.984Z" fill="#336B6C"/>
<path d="M224.934 294.577C219.353 291.341 215.364 286.13 213.7 279.903L195.027 209.977C194.382 207.561 194.317 204.998 194.84 202.569C196.099 196.718 200.476 192.127 206.262 190.594C206.512 190.528 206.768 190.467 207.025 190.411C210.878 189.589 214.88 190.226 218.297 192.207C221.964 194.333 224.586 197.757 225.678 201.848L242.395 264.45L397.967 223.194C402.061 222.109 406.336 222.682 410.002 224.807C413.669 226.933 416.291 230.357 417.384 234.449C419.639 242.895 414.599 251.591 406.148 253.833L243.248 297.032C237.019 298.684 230.515 297.811 224.934 294.577Z" fill="#75BFC0"/>
<path d="M408.463 224.856C411.476 226.533 413.85 229.357 414.872 232.93C416.914 240.079 412.773 247.519 405.622 249.55L376.884 257.71L371.353 259.28L365.786 260.861L243.5 295.585C237.915 297.171 232.044 296.488 226.966 293.661C221.889 290.836 218.213 286.205 216.618 280.624L196.728 211.034C196.122 208.916 196.06 206.772 196.458 204.751C197.403 199.952 200.945 195.844 205.977 194.415C206.192 194.354 206.408 194.298 206.623 194.248C209.989 193.468 213.385 194.03 216.217 195.606C219.229 197.283 221.604 200.107 222.625 203.68L241.09 268.283L365.199 233.041L370.428 231.557L375.636 230.078L398.222 223.664C401.799 222.65 405.45 223.179 408.463 224.856ZM410.79 220.674C406.527 218.301 401.596 217.727 396.907 219.06L374.32 225.474L369.112 226.953L363.883 228.438L244.384 262.371L227.235 202.373C225.895 197.685 222.809 193.798 218.546 191.425C214.575 189.215 209.953 188.561 205.536 189.586C205.241 189.654 204.947 189.729 204.663 189.811C201.368 190.746 198.417 192.579 196.129 195.108C193.908 197.563 192.397 200.577 191.757 203.821C191.204 206.629 191.33 209.577 192.121 212.344L212.011 281.934C213.959 288.746 218.443 294.397 224.64 297.846C230.837 301.295 238.002 302.128 244.818 300.193L367.104 265.469L372.671 263.888L378.202 262.318L406.94 254.157C411.63 252.825 415.517 249.748 417.885 245.493C420.254 241.236 420.821 236.311 419.481 231.624C418.139 226.934 415.053 223.047 410.79 220.674Z" fill="#336B6C"/>
</g>
</g>
</g>
<defs>
<linearGradient id="paint0_linear_2102_3024" x1="316.752" y1="103.056" x2="160.791" y2="372.123" gradientUnits="userSpaceOnUse">
<stop stop-color="white"/>
<stop offset="0.697917" stop-color="#F5FFFF"/>
<stop offset="1" stop-color="#DEFEFF"/>
</linearGradient>
<linearGradient id="paint1_linear_2102_3024" x1="395.485" y1="171.512" x2="356.491" y2="238.785" gradientUnits="userSpaceOnUse">
<stop stop-color="white"/>
<stop offset="0.697917" stop-color="#F5FFFF"/>
<stop offset="1" stop-color="#DEFEFF"/>
</linearGradient>
<clipPath id="clip0_2102_3024">
<rect width="360" height="440" fill="white"/>
</clipPath>
<clipPath id="clip1_2102_3024">
<rect width="411" height="311" fill="white" transform="translate(138.962) rotate(30.0982)"/>
</clipPath>
<clipPath id="clip2_2102_3024">
<rect width="366.568" height="229.148" fill="white" transform="translate(137.401 46.9929) rotate(30.0982)"/>
</clipPath>
</defs>
</svg>
