<svg width="360" height="800" viewBox="0 0 360 800" fill="none" xmlns="http://www.w3.org/2000/svg">
<g clip-path="url(#clip0_2411_1278)">
<rect width="360" height="800" fill="url(#paint0_linear_2411_1278)"/>
<rect width="360" height="800" fill="url(#paint1_linear_2411_1278)"/>
<path opacity="0.6" d="M-287.079 87.1057C-284.594 83.94 -281.149 82.4827 -277.304 81.9426C-276.543 81.8295 -275.694 82.2692 -274.82 82.4702C-275.269 83.2993 -275.644 84.0028 -276.143 84.945C-275.544 84.9827 -275.095 85.146 -274.87 84.9952C-273.047 83.7139 -270.938 82.6335 -269.552 80.9627C-267.966 79.0658 -265.932 78.3999 -263.872 77.6588C-261.775 76.905 -259.603 76.4904 -257.306 76.9427C-254.722 77.4578 -252 77.0306 -249.454 78.1236C-248.13 78.6889 -247.044 79.3044 -246.083 80.4476C-244.76 82.0054 -243.561 83.8144 -241.639 84.6309C-240.553 84.1787 -240.715 83.3872 -240.977 82.8094C-241.614 81.4024 -241.951 79.8446 -242.563 78.513C-243.986 75.4729 -242.588 72.6966 -242.35 69.8449C-242.276 68.8776 -241.352 67.9354 -240.715 67.056C-238.281 63.7019 -235.934 60.2597 -231.577 59.0914C-230.304 58.7522 -229.155 58.5764 -227.907 59.0286C-226.746 59.4432 -225.548 59.7447 -224.162 60.1592C-224.574 62.6215 -226.01 64.9204 -225.323 67.5083C-224.674 68.1867 -223.825 68.6515 -223.238 67.659C-222.552 66.4782 -222.015 65.1465 -221.703 63.8024C-221.091 61.2145 -220.729 58.5512 -218.594 56.6417C-218.395 56.4659 -218.245 56.1895 -218.145 55.9382C-216.347 51.0891 -212.19 48.6897 -208.133 46.1772C-204.438 43.8908 -200.131 43.0366 -196.299 41.0517C-195.475 40.6246 -194.401 40.6874 -193.44 40.5743C-192.616 40.4738 -191.718 40.6372 -190.981 40.3608C-189.845 39.9211 -188.834 40.0718 -187.71 40.298C-186.212 40.5995 -184.652 40.6246 -183.141 40.8633C-182.205 41.014 -181.019 41.0392 -180.42 41.617C-179.072 42.911 -177.861 42.2577 -176.388 41.705C-173.766 44.0039 -170.72 45.524 -167.15 46.0893C-165.053 46.4159 -164.192 48.8781 -161.957 49.456C-160.035 49.9585 -158.899 51.7926 -158.349 53.8152C-158.249 54.2046 -158 54.7071 -157.688 54.8453C-154.829 56.1016 -153.993 58.9281 -152.432 61.5411C-153.094 62.1441 -153.855 62.7094 -154.442 63.4255C-154.754 63.8149 -155.066 64.5938 -154.879 64.9204C-154.579 65.4606 -153.868 66.1138 -153.356 66.1013C-151.845 66.0636 -150.248 65.9631 -148.862 65.4229C-147.214 64.7697 -145.716 64.3174 -144.068 65.1968C-143.831 65.3224 -143.506 65.4355 -143.257 65.3852C-138.438 64.5184 -135.867 68.1238 -133.195 70.9253C-130.162 74.091 -129.949 78.2618 -130.911 82.4576C-131.123 83.3747 -131.472 84.2666 -131.959 85.8118C-130.936 85.3093 -130.311 85.2214 -130.124 84.8822C-129.463 83.6636 -128.676 82.4074 -128.451 81.0758C-128.014 78.5884 -127.902 76.0382 -127.727 73.5131C-127.627 72.0559 -128.214 70.8499 -129.101 69.6439C-133.095 64.2295 -138.488 61.5285 -145.079 61.0009C-146.303 60.9004 -147.514 60.6869 -148.762 60.5235C-150.422 56.0513 -152.794 52.3328 -156.639 49.7198C-157.201 49.3429 -157.763 48.7651 -158.025 48.1495C-159.111 45.6119 -161.333 44.4813 -163.567 43.3004C-165.54 42.2577 -167.425 41.0517 -169.422 40.0593C-171.282 39.1297 -173.055 37.9362 -175.277 37.8734C-176.088 37.8483 -176.887 37.4337 -177.686 37.1574C-178.21 36.9815 -178.76 36.793 -179.234 36.5167C-180.645 35.7127 -182.243 35.474 -183.716 35.7629C-187.673 36.5292 -191.842 34.469 -195.662 36.7302C-196.137 37.0192 -196.686 37.4588 -197.16 37.4212C-199.832 37.1573 -201.867 38.8156 -204.201 39.5693C-209.469 41.2778 -213.439 44.7074 -216.897 48.8028C-218.944 51.2399 -220.629 53.9785 -222.439 56.5287C-223.95 55.9759 -225.36 55.4483 -227.046 54.8327C-226.996 54.079 -226.996 53.1368 -226.858 52.2072C-226.584 50.4233 -226.322 48.6269 -225.885 46.8807C-225.435 45.0717 -223.613 44.1546 -222.964 42.3205C-221.79 38.9663 -219.393 36.3157 -216.859 33.9288C-214.138 31.3661 -211.329 28.8284 -207.597 27.7606C-207.459 27.7229 -207.322 27.6852 -207.21 27.5973C-203.739 24.9089 -199.52 24.4567 -195.438 23.5145C-192.779 22.9115 -190.145 23.0497 -187.498 23.213C-185.825 23.3135 -184.165 23.6276 -182.517 23.9291C-181.868 24.0547 -181.269 24.4316 -180.42 24.7833C-181.706 27.4717 -183.441 29.8711 -183.067 33.1248C-182.43 32.8736 -181.955 32.8359 -181.743 32.572C-179.309 29.7204 -176.6 27.1199 -174.778 23.7532C-174.216 22.7231 -173.08 21.5171 -172.031 21.3161C-169.098 20.7508 -167.375 18.3136 -164.841 17.2081C-163.567 16.6554 -162.356 15.7635 -161.033 15.575C-158.824 15.261 -156.614 15.06 -154.554 14.1052C-154.205 13.9419 -153.73 13.9545 -153.331 14.0298C-148.288 15.0474 -143.107 15.5625 -138.376 17.786C-136.878 18.4895 -135.48 19.4066 -134.019 20.198C-133.42 20.5246 -132.771 20.7382 -132.196 20.9769C-131.422 20.3111 -131.897 19.884 -132.271 19.5071C-135.28 16.467 -138.688 14.1555 -142.782 12.7485C-145.953 11.6681 -148.987 10.2234 -152.382 9.9596C-152.619 9.94704 -152.832 9.64554 -153.081 9.4571C-153.531 8.66567 -152.882 8.15061 -152.482 7.67323C-148.862 3.37687 -145.154 -0.806435 -140.049 -3.40687C-139.187 -3.84655 -138.501 -4.61286 -137.664 -5.09024C-136.703 -5.64299 -135.679 -6.32136 -134.631 -6.43442C-132.509 -6.64798 -130.536 -7.26354 -128.551 -7.96704C-127.777 -8.24342 -126.928 -8.40673 -126.105 -8.43185C-121.923 -8.57004 -117.728 -8.34392 -113.596 -7.77861C-111.324 -7.47711 -109.177 -6.22086 -106.855 -5.34149C-107.042 -4.2988 -107.092 -3.45712 -107.354 -2.6908C-108.415 0.349314 -109.589 3.35175 -110.65 6.40443C-111.237 8.0878 -111.649 9.80885 -110.85 12.0952C-110.288 11.3164 -109.851 10.9395 -109.726 10.4872C-108.802 7.09536 -107.666 3.79143 -106.518 0.474937C-105.944 -1.19587 -105.007 -2.45212 -104.159 -3.85911C-102.124 -7.21329 -99.8518 -10.3037 -96.2191 -12.0875C-94.9833 -14.1603 -92.7362 -14.7633 -90.8263 -15.8814C-88.4919 -17.2381 -85.7081 -17.012 -83.3237 -18.1552C-78.58 -18.2683 -73.8238 -18.419 -69.0801 -18.4818C-67.6819 -18.507 -66.3837 -18.0924 -65.0854 -17.3889C-63.6623 -16.61 -62.0145 -16.2708 -60.479 -15.6678C-59.0684 -15.1151 -57.3456 -14.801 -56.3844 -13.796C-55.3358 -12.7031 -53.9876 -12.4644 -52.9639 -11.6855C-50.9916 -10.1906 -49.3687 -8.21829 -47.671 -6.38417C-47.0093 -5.66811 -46.6723 -4.58774 -45.9358 -4.00986C-43.4016 -2.03756 -42.6027 0.663378 -42.1782 3.67837C-41.9411 5.29893 -41.4542 6.84411 -40.6802 8.3893C-39.6441 10.4621 -40.0561 12.9872 -39.9437 15.3363C-39.8563 17.2961 -39.5817 19.2433 -39.307 21.1779C-39.2696 21.4417 -38.7328 21.8311 -38.4207 21.8311C-38.0837 21.8311 -37.5843 21.5296 -37.422 21.2156C-36.1487 18.7533 -35.7368 15.261 -36.3734 11.4169C-36.5607 10.2737 -36.7854 9.21842 -36.1113 7.7863C-32.154 8.75361 -28.3466 9.87167 -25.001 11.8817C-21.7179 13.854 -18.4971 16.0775 -16.0753 19.193C-15.7383 19.6327 -15.3263 20.0473 -15.0891 20.5372C-14.3027 22.1578 -11.806 21.8186 -11.4689 24.2431C-11.2442 25.8763 -9.74622 27.3209 -8.84741 28.8661C-6.27582 33.3132 -4.70291 37.999 -5.68912 43.3758C-6.12604 43.5642 -6.63785 44.0039 -7.12469 43.9788C-12.6424 43.6019 -17.5234 45.838 -22.4294 47.8103C-24.3394 48.5766 -25.9622 50.0716 -27.7349 51.1896C-28.434 51.6293 -29.2079 51.9183 -29.7822 52.1946C-32.1166 50.7876 -34.2263 49.4686 -36.3859 48.2374C-38.1086 47.2576 -39.9812 46.7928 -41.991 46.6671C-44.0632 46.529 -46.0981 46.0516 -48.1703 45.7878C-54.7865 44.9586 -60.7037 46.6169 -66.4461 50.0967C-69.8041 52.1318 -71.6017 55.0086 -73.2246 58.2246C-74.1608 60.0964 -74.8974 62.0813 -75.6589 64.0285C-76.0459 65.0209 -76.2706 66.0636 -75.4217 67.6842C-74.9348 66.1013 -74.6727 65.0335 -74.2732 64.0285C-73.8613 62.9858 -73.287 62.0185 -72.7877 61.0135C-69.8291 54.9709 -65.023 51.1896 -58.5565 49.7449C-55.161 48.9786 -51.6657 48.5138 -48.1953 48.3882C-46.0231 48.3128 -43.6513 48.7651 -41.6664 49.6444C-39.1448 50.7499 -36.4359 51.6796 -34.4011 53.7398C-33.9267 54.2172 -33.2276 54.5061 -32.591 54.7699C-31.3925 55.2724 -30.4313 55.9885 -29.7198 57.1191C-28.8584 58.4884 -27.4478 59.1417 -25.8249 59.8326C-25.0759 56.9558 -27.0608 55.3729 -28.384 53.7398C-27.9471 52.0062 -26.4741 51.8931 -25.4754 51.2273C-20.2947 47.7978 -14.415 46.5038 -8.36057 46.2903C-5.48938 46.1898 -2.58072 47.0063 0.31543 47.3581C2.11304 47.5842 3.67349 48.1746 5.30884 49.142C9.41589 51.5539 13.3731 54.1418 17.0932 57.1066C17.9296 57.7724 20.5761 61.2145 21.1753 62.1944C22.4236 64.2169 23.7219 66.2143 25.0327 68.1992C26.5432 70.4856 27.3296 72.8599 27.0924 75.7116C26.9426 77.4578 27.6792 79.2793 27.9164 81.0758C28.2159 83.2993 28.3907 85.5354 28.7153 87.7464C28.7902 88.2364 29.2271 89.0404 29.5392 89.0529C30.1384 89.0906 31.0122 88.8519 31.3368 88.3997C31.961 87.5203 32.2856 86.4274 32.6975 85.4977C36.6548 85.1083 39.9504 86.5907 43.2211 88.1359C43.5956 88.3117 43.9576 88.5253 44.2697 88.8017C46.7664 91.0001 49.2381 93.2111 51.6724 95.3844C51.61 96.2387 51.0856 96.314 50.4989 96.2638C46.6291 95.9497 42.7467 96.3894 38.8768 95.9371C38.0654 95.8366 37.1791 96.2135 36.4051 96.0125C34.1831 95.4598 31.986 95.6608 29.7639 95.7738C28.3907 95.8492 26.9676 96.1256 25.6443 95.397C25.2948 95.2085 24.7705 95.0327 24.4334 95.1583C21.6497 96.201 18.8908 95.1206 16.1195 95.0829C13.1734 95.0452 10.2523 95.1206 7.31866 95.4598C5.38373 95.6859 3.41132 95.6357 1.4639 95.5351C-0.882996 95.4221 -3.19241 94.6558 -5.55179 95.6105C-6.11356 95.8367 -6.91248 95.4975 -7.59906 95.397C-10.7948 94.9698 -13.9781 94.6307 -17.1614 95.4723C-18.235 95.7613 -19.2711 95.6985 -20.4321 95.3718C-22.005 94.9196 -23.7277 94.9322 -25.4005 94.907C-27.7723 94.8819 -30.1317 94.9447 -32.5036 95.0703C-39.1822 95.4472 -45.8609 95.0452 -52.527 94.706C-55.0237 95.6482 -57.7451 94.4673 -60.3042 95.711C-61.3653 96.2261 -63.0131 95.6859 -64.3488 95.4095C-65.8968 95.0955 -67.3823 95.0327 -68.9178 95.3718C-69.8665 95.5854 -70.7903 95.5603 -71.7765 95.1708C-72.4631 94.8945 -73.3744 95.1708 -74.1858 95.2588C-74.5853 95.2965 -75.1221 95.6608 -75.3717 95.51C-77.4065 94.2287 -79.4788 95.4221 -81.5136 95.3216C-83.3112 95.2211 -85.1213 95.9874 -86.894 95.1457C-87.0188 95.0829 -87.2061 95.0201 -87.3059 95.0703C-90.1147 96.4899 -92.7612 94.995 -95.4826 94.6683C-96.8433 94.505 -98.4037 95.1708 -99.6021 94.7186C-101.799 93.8769 -103.697 94.9698 -105.719 95.0829C-109.314 95.2839 -112.872 95.7613 -116.33 94.2035C-116.917 93.9397 -117.778 93.9271 -118.39 94.1407C-122.759 95.598 -127.191 94.392 -131.585 94.5553C-132.521 94.593 -133.42 94.2035 -134.381 94.7563C-135.579 95.4347 -136.878 95.2839 -137.989 94.5553C-139.624 93.4749 -141.122 93.3116 -143.107 93.8267C-145.903 94.5553 -148.924 93.8895 -151.771 94.7688C-152.133 94.8819 -152.619 94.7688 -153.006 94.6306C-156.24 93.5 -159.548 93.9648 -162.856 94.0151C-165.203 94.0528 -167.525 94.103 -169.921 93.6382C-172.593 93.1232 -175.452 93.588 -178.223 93.6759C-178.91 93.701 -179.696 94.1658 -180.258 93.9648C-183.104 92.9096 -186.025 94.2412 -188.884 93.5252C-189.932 93.2613 -191.193 93.299 -192.204 93.6508C-194.863 94.5804 -197.522 94.2538 -200.094 93.701C-203.989 92.8719 -207.909 93.1985 -211.816 93.0855C-216.684 92.9473 -221.553 93.0352 -226.422 93.0478C-227.945 93.0478 -229.48 93.0729 -231.003 93.0855C-232.127 93.098 -233.25 93.1483 -234.361 93.098C-238.693 92.897 -243.012 92.6332 -247.331 92.4448C-249.841 92.3317 -252.35 92.5453 -254.846 91.8669C-255.883 91.578 -257.068 91.9172 -258.192 91.8543C-263.21 91.578 -268.229 91.2513 -273.247 90.9624C-274.87 90.8745 -280.188 90.3217 -284.407 90.171C-285.568 89.9574 -286.729 89.7439 -288.19 89.4675C-287.69 88.5504 -287.541 87.6962 -287.079 87.1057Z" fill="url(#paint2_linear_2411_1278)"/>
<path opacity="0.6" d="M175.285 11.1C176.463 9.68021 177.108 8.38268 177.304 7.11337C177.463 6.05091 177.958 5.1953 178.276 4.23627C179.239 1.37797 180.893 -1.14183 182.408 -3.73687C182.66 -4.16937 183.015 -4.59249 183.426 -4.90277C185.502 -6.45415 187.156 -8.51325 189.558 -9.66033C190.166 -9.9518 190.661 -10.4689 191.203 -10.892C191.409 -11.0519 191.577 -11.3433 191.802 -11.3715C193.914 -11.6536 195.578 -13.0075 197.522 -13.6751C197.924 -13.8161 198.438 -14.0418 198.775 -13.9102C200.85 -13.1016 202.86 -14.1076 204.897 -14.0418C206.281 -13.9948 207.674 -13.9478 209.057 -13.8632C210.001 -13.8067 210.899 -13.5717 211.899 -13.6751C212.675 -13.7597 213.525 -13.2144 214.329 -12.8947C214.965 -12.6409 215.554 -12.246 216.199 -12.0015C218.003 -11.3245 219.769 -10.6099 221.143 -9.1996C221.265 -9.07737 221.396 -8.94574 221.555 -8.87992C225.873 -6.99006 227.799 -3.04111 229.939 0.682198C231.267 2.98576 231.444 5.59962 231.183 8.22286C231.07 9.33233 230.893 10.4418 230.809 11.5607C230.781 11.965 230.94 12.3787 231.005 12.8018C231.753 12.6137 231.799 12.0496 231.856 11.5607C232.043 9.84945 232.183 8.13824 232.332 6.42702C232.379 5.90989 232.416 5.39275 232.454 4.88503C232.51 4.10464 232.968 3.66272 233.697 3.38065C235.707 2.60966 237.679 3.05158 239.642 3.5405C240.315 3.70974 240.969 4.00122 241.605 4.30209C242.568 4.7534 243.418 5.34576 243.895 6.3424C244.437 7.48948 245.465 8.4203 245.587 9.73662C243.942 10.8367 242.278 11.8051 240.801 12.9992C239.81 13.7984 239.1 14.9361 238.109 16.0926C239.362 16.3464 240.128 15.7071 240.904 15.2934C241.511 14.9737 241.998 14.4284 242.549 13.9959C243.998 12.8394 245.568 11.9368 247.428 11.523C248.877 11.2034 250.298 10.7521 251.719 10.3102C254.991 9.29472 258.234 8.34509 261.655 9.77423C262.356 10.0657 263.207 9.98109 263.973 10.1597C267.703 11.0059 270.302 13.4129 272.554 16.243C273.47 17.3901 274.209 18.6688 275.069 19.8629C275.237 20.0979 275.564 20.2296 275.863 20.4458C276.546 19.1671 275.125 18.4525 275.34 17.2208C276.163 16.6567 277.041 16.0361 278.312 16.5157C278.621 16.6285 279.088 16.6943 279.331 16.5439C280.425 15.8575 281.369 16.4687 282.341 16.7789C282.762 16.9106 283.126 17.2491 283.538 17.3149C285.342 17.6157 286.146 18.9697 286.912 20.3142C287.744 21.781 288.081 23.3887 287.566 25.0341C287.267 25.9838 286.931 26.877 285.856 27.4976C284.669 28.1745 283.949 29.4909 282.566 30.0738C280.004 31.1457 277.462 31.9355 274.602 31.2867C272.854 30.8918 271.208 30.2901 269.601 29.5849C269.002 29.3216 268.572 28.7104 267.955 28.1557C267.75 28.1839 267.367 28.1463 267.067 28.2779C264.74 29.2934 262.338 29.5378 259.804 29.331C257.879 29.1712 255.935 29.0771 254.009 28.9737C251.139 28.8233 248.662 27.8643 246.335 26.4727C245.484 25.965 244.634 25.6641 243.661 25.4008C243.194 26.2753 244.475 26.6608 244.278 27.4317C244.176 27.5634 244.101 27.7608 243.97 27.8078C241.726 28.5694 239.483 29.3874 237.053 29.3498C235.454 29.331 233.856 29.2276 232.257 29.2276C230.622 29.2276 229.107 28.607 227.705 28.0147C225.714 27.1685 223.77 26.2282 221.676 25.5983C221.863 23.9341 223.723 23.8589 224.303 22.4767C223.91 22.5426 223.564 22.5144 223.321 22.646C220.657 24.1598 218.003 25.6923 215.329 27.2061C215.03 27.3753 214.666 27.4599 214.329 27.5634C212.217 28.2215 210.113 28.8797 207.992 29.5002C207.487 29.6507 206.945 29.6977 206.421 29.7541C205.533 29.8387 204.645 29.8575 203.766 29.961C201.934 30.1772 200.121 30.243 198.28 30.0644C196.363 29.8763 194.391 30.4311 192.503 29.6037C192.129 29.4438 191.624 29.5285 191.185 29.5567C188.296 29.7165 185.586 28.8985 182.866 28.1651C181.333 27.7514 179.772 27.4411 178.248 27.0086C177.706 26.8488 177.238 26.4539 176.547 26.059C178.061 25.0248 179.192 23.9623 179.697 22.4955C179.342 21.8562 178.884 22.1383 178.51 22.2417C177.304 22.5896 176.201 23.1161 175.416 24.1221C175.201 24.3948 174.976 24.7333 174.677 24.8555C173.051 25.5231 171.658 26.6043 170.06 27.3001C168.77 27.8642 167.405 28.2591 166.059 28.6917C164.638 29.1524 163.18 29.4156 161.684 29.6601C159.768 29.9704 157.824 30.1302 155.917 30.4593C155.094 30.6003 154.346 30.5533 153.552 30.3841C152.692 30.196 151.804 30.1208 150.925 30.008C150.579 29.961 150.177 30.0174 149.878 29.8857C148.486 29.237 147.027 29.0677 145.485 29.0019C144.569 28.9643 143.634 28.4566 142.774 28.0335C141.812 27.554 140.839 27.4129 139.718 27.4505C140.606 29.1994 140.718 29.284 143.765 30.4969C142.363 31.6158 140.578 31.5594 138.961 31.926C137.605 32.2269 136.166 32.1705 134.764 32.2645C133.866 32.3209 133.034 32.1611 132.156 31.9166C131.37 31.7004 130.445 32.1611 129.622 31.6158C129.361 31.4371 128.884 31.3619 128.594 31.4559C127.22 31.8978 126.257 31.2115 125.192 30.5345C124.192 29.8951 122.808 29.8576 122.116 28.6729C121.995 28.4754 121.462 28.419 121.126 28.4284C120.425 28.4378 119.929 28.2121 119.602 27.601C119.518 27.4505 119.424 27.2249 119.293 27.1967C117.405 26.736 116.807 24.9589 115.583 23.8307C114.367 22.7024 113.18 21.5459 111.937 20.4552C111.722 20.2672 111.236 20.1638 110.993 20.2766C110.759 20.38 110.544 20.8031 110.544 21.0852C110.535 22.063 110.899 22.9751 111.535 23.7085C113.003 25.4009 114.106 27.4223 116.265 28.5036C117.003 28.8703 116.835 29.6789 116.031 30.102C114.33 31.0046 112.46 31.0892 110.591 31.1174C109.974 31.1268 109.338 30.9388 108.731 30.9858C106.291 31.1833 104.216 30.243 102.206 29.0866C102.075 29.0113 102.019 28.8045 101.87 28.56C103.244 27.648 104.983 27.1027 105.814 25.4761C105.571 25.429 105.347 25.3162 105.235 25.3726C102.347 26.9898 99.0749 27.3941 95.8968 28.0147C94.6255 28.2591 93.2795 28.2686 91.9989 28.607C91.625 28.7105 88.5123 28.1557 88.1758 27.9865C87.0821 27.4223 85.9978 26.83 84.8948 26.3035C84.4368 26.0872 83.9227 25.9744 83.4366 25.824C83.0253 25.6923 82.4458 25.7111 82.2214 25.4385C81.483 24.5358 80.408 24.0939 79.5294 23.3982C79.2022 23.1443 78.9685 22.7494 78.7535 22.3827C78.5853 22.0912 78.5853 21.6587 78.361 21.4425C76.4821 19.5714 76.5195 17.0516 76.0615 14.7574C75.7063 13.0086 76.2297 11.1752 77.0336 9.52976C78.0992 7.36724 79.3705 5.29873 81.0063 3.50289C82.2121 2.17716 83.6236 1.05831 85.222 0.146286C86.6708 -0.681114 88.129 -1.41452 89.7929 -1.66838C91.3446 -1.89403 92.8962 -2.07268 94.4573 -2.23252C97.8878 -2.58981 101.066 -1.56494 104.169 -0.361446C106.572 0.578785 108.394 2.32762 109.806 4.46194C110.273 5.16711 110.769 5.85347 111.32 6.62446C111.918 5.65602 112.049 4.88504 111.451 4.07644C111.199 3.73796 111.012 3.34307 110.769 2.99518C109.946 1.78229 109.123 0.578777 108.133 -0.869179C106.74 -1.04782 105.394 -1.98804 104.057 -2.94707C102.758 -3.8779 101.272 -4.36684 99.6918 -4.6113C99.0001 -4.72413 98.2991 -4.88395 97.6074 -4.88395C96.4483 -4.89335 95.7566 -5.40107 95.5977 -6.50114C95.3546 -8.19356 94.3544 -9.68854 94.4947 -11.5126C94.6629 -13.6845 94.8686 -15.7718 96.1211 -17.6429C96.5511 -18.2822 96.8596 -19.0062 97.2054 -19.6926C98.2523 -21.7517 100.309 -22.8329 101.86 -24.4031C102.309 -24.8544 103.085 -25.0331 103.739 -25.2493C104.889 -25.6254 106.048 -25.9733 107.226 -26.2554C107.805 -26.3964 108.422 -26.4528 109.011 -26.3964C110.469 -26.2742 111.937 -26.1425 113.367 -25.8887C114.666 -25.6536 115.816 -25.2493 116.143 -23.6227C116.377 -22.4757 117.116 -21.432 117.564 -20.3225C118.508 -17.9626 120.088 -16.1385 122.032 -14.5025C123.014 -13.6751 123.939 -12.7725 125.07 -12.1425C125.734 -11.7664 126.454 -11.3809 127.351 -12.0767C127.155 -12.3494 127.033 -12.6973 126.79 -12.8571C125.332 -13.8161 123.92 -14.7752 123.051 -16.3736C122.705 -17.0129 121.836 -17.3608 121.415 -17.9814C120.415 -19.4763 119.312 -20.9807 118.686 -22.6355C118.004 -24.4501 117.686 -26.434 117.424 -28.3709C117.172 -30.2232 117.041 -32.113 117.63 -33.9653C117.835 -34.614 117.901 -35.3192 117.929 -36.0056C118.032 -38.3655 119.004 -40.434 120.107 -42.4461C120.555 -43.2547 121.387 -43.8377 121.518 -44.8625C121.546 -45.0788 121.836 -45.2574 121.957 -45.4831C122.621 -46.6208 124.201 -46.8464 124.65 -48.1721C125.07 -49.4226 126.538 -49.6201 127.145 -50.7014C127.286 -50.9458 127.725 -51.0304 128.033 -51.1715C129.211 -51.6792 130.417 -52.1399 131.567 -52.704C133.904 -53.8229 136.446 -54.2742 138.904 -54.9888C139.643 -55.2051 140.391 -55.3555 141.129 -55.5529C141.709 -55.7128 142.251 -55.882 142.886 -55.694C143.27 -55.5811 143.765 -55.5905 144.139 -55.7222C145.177 -56.0983 146.111 -56.1735 147.046 -55.4307C147.27 -55.2521 147.728 -55.2239 148.018 -55.3179C148.729 -55.5623 149.336 -55.4025 149.991 -55.1204C150.439 -54.923 151.019 -54.782 151.477 -54.876C152.991 -55.2145 154.318 -54.7631 155.627 -54.105C155.851 -53.9922 156.085 -53.7947 156.319 -53.7947C158.048 -53.7947 159.366 -52.8545 160.759 -51.9989C161.404 -51.604 162.208 -51.4818 162.89 -51.1527C163.413 -50.8988 164.124 -50.6073 164.292 -50.1654C164.844 -48.6893 166.031 -48.1157 167.19 -47.7208C167.695 -46.837 168.003 -46.0096 168.545 -45.3891C169.573 -44.2138 170.172 -42.8128 170.919 -41.4683C172.144 -39.2776 172.658 -36.8424 173.397 -34.5012C173.817 -33.1567 173.649 -31.6241 173.677 -30.1761C173.705 -28.982 173.593 -27.788 173.63 -26.6033C173.64 -26.3776 174.042 -26.0109 174.285 -25.9827C174.546 -25.9545 175.004 -26.2084 175.088 -26.434C175.958 -28.982 178.098 -30.0351 180.332 -31.0411C183.258 -32.3575 186.221 -32.1036 189.212 -31.389C189.867 -31.2292 190.493 -30.8813 191.091 -30.5616C191.699 -30.2419 192.222 -29.7436 192.849 -29.518C194.428 -28.9444 195.176 -27.7315 195.943 -26.3494C196.56 -25.2305 196.915 -24.0364 197.401 -22.8893C198.093 -21.2345 198.074 -19.4199 198.102 -17.6147C196.868 -16.5992 195.214 -17.0411 193.933 -16.2137C192.718 -15.4333 191.288 -14.982 189.811 -14.3239C188.708 -15.1419 187.464 -15.9128 186.39 -16.8719C184.389 -18.6677 181.912 -19.5703 179.454 -20.2755C176.762 -21.0465 173.92 -20.7832 171.247 -19.8336C167.48 -18.4985 164.395 -16.1855 161.862 -13.1392C161.432 -12.6314 161.179 -11.9827 160.843 -11.3998C158.534 -11.9357 156.263 -12.4622 153.991 -12.9981C151.327 -13.6281 148.616 -13.4494 145.934 -13.252C143.176 -13.0545 140.839 -11.616 138.39 -10.4971C138.082 -10.3561 137.82 -10.121 137.502 -9.98001C135.315 -8.98336 133.446 -7.59181 132.053 -5.64553C130.959 -4.12236 129.594 -2.77784 128.819 -1.03841C128.613 -0.577698 128.127 -0.15461 128.108 0.2967C128.043 1.68824 126.902 2.76013 127.024 4.22688C127.089 5.05429 126.687 5.90989 126.687 6.74669C126.678 8.19465 126.734 9.652 126.912 11.0906C127.136 12.877 127.463 14.654 127.846 16.4123C128.407 18.9979 129.95 21.0758 131.651 23.0597C131.885 23.3324 131.922 23.3041 133.24 23.2571C132.959 22.599 132.801 21.9314 132.436 21.4049C130.567 18.6688 130.08 15.519 129.51 12.4069C129.22 10.8085 130.052 6.65265 130.94 5.26112C131.501 4.3679 130.922 3.5969 131.025 2.64727C131.913 1.64123 132.866 0.625805 133.417 -0.793941C133.885 -1.98803 135.035 -2.9847 136.025 -3.92492C137.119 -4.97798 138.082 -6.13447 139.409 -7.01829C141.559 -8.45684 143.952 -9.21841 146.317 -10.0646C147.401 -10.4595 148.663 -10.7604 149.916 -10.2997C150.299 -10.1586 150.813 -10.1586 151.206 -10.2715C154.029 -11.1459 156.496 -10.0176 158.992 -9.01157C159.712 -8.7201 160.413 -8.37222 161.123 -8.04313C161.441 -7.8927 161.815 -7.79868 162.049 -7.57302C164.591 -5.11902 167.442 -2.92829 169.106 0.2967C169.368 0.795021 169.396 0.776234 170.209 1.02069C170.583 0.475361 170.172 0.0522499 169.975 -0.399063C169.583 -1.34869 169.181 -2.30773 168.751 -3.24796C167.816 -5.32587 166.582 -7.13111 164.507 -8.3064C163.703 -8.75771 163.049 -9.49107 162.245 -10.168C163.124 -11.6912 164.339 -12.7537 165.573 -13.7785C166.302 -14.3897 167.124 -14.8786 167.919 -15.4239C168.629 -15.9129 169.312 -16.477 170.256 -16.4488C170.34 -16.4488 170.452 -16.4676 170.508 -16.5146C172.294 -18.1318 174.63 -17.5206 176.696 -17.972C177.407 -18.1224 178.22 -17.8403 178.977 -17.7181C182.127 -17.2292 184.595 -15.5179 186.801 -13.3742C187.025 -13.1486 187.1 -12.7819 187.278 -12.4246C184.071 -9.9236 181.426 -6.98066 179.295 -3.61463C177.678 -1.05721 176.416 1.70706 175.836 4.65938C175.36 6.59626 174.584 8.59895 175.285 11.1Z" fill="url(#paint3_linear_2411_1278)"/>
<path opacity="0.6" d="M276.708 109.797C277.619 110.556 278.348 111.168 279.065 111.77C279.14 111.833 279.205 111.96 279.28 111.96C280.93 111.928 281.969 112.941 282.933 114.049C283.812 115.062 285.044 115.632 285.805 116.856C286.533 118.027 288.13 118.639 288.248 120.286C289.383 121.267 289.876 122.639 290.573 123.894C291.044 124.739 291.344 125.646 291.226 126.902C290.776 126.67 290.423 126.596 290.23 126.374C289.019 125.002 287.508 123.873 286.758 122.122C286.587 121.721 286.126 121.425 285.751 121.14C285.451 120.908 284.937 120.866 284.765 120.581C283.608 118.629 281.648 117.553 279.976 116.139C279.248 115.526 278.712 114.682 278.112 113.923C277.426 113.047 276.58 112.424 275.423 112.414C274.416 112.403 273.473 112.319 272.669 111.643C272.594 111.58 272.498 111.485 272.423 111.496C270.741 111.77 269.262 110.852 267.708 110.715C265.962 110.556 264.269 110.24 262.576 109.881C262.491 109.86 262.383 109.733 262.319 109.754C260.841 110.261 259.373 110.873 257.862 109.839C256.351 110.187 254.851 110.546 253.33 110.873C252.676 111.01 252.001 111.105 251.326 111.137C249.976 111.189 248.809 111.675 247.984 112.677C247.009 113.87 245.83 114.64 244.309 114.83C243.462 114.936 242.894 115.347 242.326 115.917C240.612 117.626 238.866 119.294 237.141 120.982C236.873 121.246 236.637 121.562 236.466 121.89C235.448 123.947 234.462 126.015 233.455 128.084C233.412 128.168 233.348 128.253 233.337 128.348C233.069 130.236 232.577 132.136 232.641 134.014C232.673 135.08 232.694 136.072 232.437 137.095C232.319 137.56 232.073 138.056 232.148 138.499C232.598 141.221 232.812 143.986 233.734 146.614C233.862 146.972 234.162 147.289 234.194 147.648C234.441 150.349 236.037 152.438 237.43 154.623C238.255 155.91 239.219 157.113 240.355 158.696C239.509 158.611 238.93 158.728 238.651 158.495C237.698 157.683 236.702 156.86 236.005 155.847C234.977 154.338 234.248 152.649 233.316 151.077C232.384 149.515 231.387 147.996 231.055 146.202C230.627 146.139 230.327 146.012 230.059 146.065C227.059 146.635 224.348 147.89 221.809 149.526C221.423 149.779 221.144 150.222 220.844 150.592C220.298 151.257 219.741 151.921 219.248 152.628C218.605 153.567 217.737 154.412 217.759 155.678C217.759 155.857 217.662 156.058 217.566 156.216C216.248 158.453 215.659 160.796 216.43 163.371C216.527 163.708 216.366 164.12 216.312 164.5C216.27 164.785 216.141 165.069 216.152 165.354C216.162 166.389 217.362 167.127 216.88 168.32C216.495 169.28 216.805 170.177 217.298 171.074C217.566 171.549 217.555 172.182 217.684 172.741C217.748 173.015 217.78 173.374 217.962 173.543C218.787 174.313 219.912 174.841 219.955 176.17C220.952 176.677 221.348 177.722 222.077 178.471C222.484 178.882 222.955 179.262 223.469 179.526C224.755 180.191 226.094 180.782 227.402 181.426C228.612 182.016 229.737 182.861 231.012 183.188C232.544 183.589 234.002 184.528 235.812 183.705C236.691 183.304 237.923 183.61 238.984 183.705C240.291 183.831 241.512 183.768 242.701 182.85C242.123 181.658 241.641 180.412 240.955 179.283C239.584 177.025 238.909 174.577 238.523 172.023C238.469 171.665 238.48 171.665 239.423 171.126C240.044 172.414 240.816 173.648 241.244 174.999C242.187 177.933 243.88 180.486 245.241 183.209C245.616 183.958 246.344 184.517 246.848 185.203C248.273 187.134 250.051 188.759 251.573 190.606C252.58 191.83 254.091 192.695 255.473 193.582C257.091 194.616 258.762 195.576 260.487 196.41C261.205 196.758 262.191 196.526 262.962 196.811C263.658 197.064 264.173 197.877 264.869 198.045C265.769 198.267 266.776 198.098 268.094 198.098C268.469 198.351 269.101 199.027 269.862 199.238C270.655 199.449 271.576 199.122 272.433 199.174C273.666 199.259 274.983 198.763 276.13 199.628C276.323 199.776 276.74 199.85 276.933 199.744C278.851 198.773 281.262 199.438 283.019 197.877C283.394 197.539 284.112 197.539 284.68 197.476C286.544 197.275 288.301 196.874 289.619 195.376C289.919 195.038 290.433 194.837 290.883 194.711C291.515 194.531 291.89 194.225 292.062 193.592C292.287 192.759 292.919 192.358 293.733 192.136C295.169 191.746 296.497 191.229 297.237 189.793C297.44 189.403 297.965 189.16 298.33 188.844C298.63 188.591 299.08 188.379 299.176 188.063C300.097 185.182 302.862 183.715 304.447 181.362C304.651 181.056 304.747 180.666 304.865 180.307C305.112 179.537 305.572 178.956 306.312 178.597C307.212 178.872 307.212 179.653 307.04 180.254C306.44 182.333 306.58 184.718 304.662 186.29C304.094 187.81 303.055 188.844 301.565 189.561C300.997 189.836 300.43 190.448 300.226 191.028C299.615 192.769 298.34 193.888 296.905 194.901C296.755 195.006 296.69 195.217 296.594 195.376C297.312 196.093 298.019 196.832 298.758 197.539C299.412 198.151 300.13 198.615 301.105 198.278C302.047 197.961 302.797 198.267 303.515 198.89C303.869 199.196 304.383 199.597 304.758 199.533C307.276 199.122 309.697 200.304 312.205 199.924C314.197 199.618 316.233 199.544 318.194 198.974C319.115 198.7 320.229 198.858 321.033 198.425C324.622 196.494 328.737 195.661 332.037 193.17C333.194 192.294 334.404 191.482 335.519 190.564C336.494 189.762 337.447 189.023 338.583 188.401C339.901 187.683 341.111 186.638 341.99 185.319C342.226 184.961 342.719 184.771 343.265 184.37C343.576 185.963 342.119 186.438 341.711 187.44C341.326 188.379 340.522 189.171 339.815 189.973C339.076 190.817 338.24 191.587 337.394 192.442C338.776 192.949 339.922 193.392 341.09 193.772C341.54 193.919 342.033 194.004 342.515 194.014C343.972 194.046 345.451 193.898 346.844 194.5C349.565 194.13 352.19 195.418 354.922 194.975C355.201 194.932 355.565 195.112 355.768 194.996C356.679 194.458 357.526 194.035 358.726 194.152C359.733 194.247 360.804 193.761 361.822 193.466C362.272 193.339 362.658 193.012 363.097 192.822C363.901 192.495 364.801 192.326 365.508 191.872C366.226 191.408 366.826 190.88 367.704 190.564C368.915 190.131 369.976 189.266 371.09 188.601C370.897 188.274 370.833 188 370.704 187.968C369.965 187.767 368.99 187.852 368.497 187.409C366.943 185.995 364.897 185.488 363.215 184.359C362.915 184.159 362.765 183.758 362.529 183.452C362.24 183.072 362.026 182.502 361.651 182.365C360.033 181.805 359.422 180.381 358.415 179.231C357.483 178.154 356.433 177.173 355.64 175.97C355.211 175.326 355.222 174.725 355.661 173.912C356.143 174.144 356.786 174.239 357.086 174.619C359.411 177.584 362.668 179.389 365.765 181.362C368.54 183.135 371.658 184.348 374.84 185.203C376.854 185.752 378.997 185.942 381.129 185.9C382.875 185.868 384.633 186.047 386.368 185.689C387.033 185.551 387.74 185.499 388.318 185.203C388.993 184.866 389.572 184.813 390.268 185.066C390.622 185.193 391.104 185.298 391.404 185.161C392.09 184.834 392.657 184.285 393.343 183.958C393.932 183.673 394.618 184.338 395.293 183.789C396.857 182.523 399 182.143 400.35 180.529C400.468 180.391 400.672 180.275 400.854 180.233C402.665 179.874 403.5 178.334 404.518 177.12C405.482 175.959 405.954 174.45 407.143 173.395C407.454 173.121 407.454 172.509 407.561 172.034C407.732 171.285 407.668 170.409 408.054 169.797C409.307 167.771 409.457 165.46 409.95 163.244C410.068 162.706 410.057 162.104 409.993 161.556C409.822 160.015 409.779 158.485 410.293 157.134C409.747 155.161 408.504 153.567 408.461 151.573C408.45 151.235 408.172 150.845 407.904 150.581C406.79 149.494 405.922 148.27 405.204 146.909C405.011 146.529 404.561 146.17 404.154 146.033C403.007 145.653 402.225 144.862 401.304 144.155C399.782 142.994 397.94 142.245 396.236 141.327C395.936 141.158 395.636 140.989 395.357 140.841C395.465 140.578 395.507 140.451 395.529 140.451C397.618 140.694 399.761 140.609 401.668 141.844C402.611 142.456 403.811 142.678 404.797 143.036C405.482 142.699 405.579 142.192 405.418 141.749C405 140.557 405.515 139.28 404.84 138.077C404.325 137.169 404.197 136.04 403.04 135.607C402.954 135.576 402.857 135.502 402.815 135.428C402.161 134.468 401.657 133.37 400.843 132.579C400.04 131.798 398.893 131.387 397.982 130.701C397.607 130.416 397.382 129.983 396.804 130.004C396.536 130.015 396.129 129.92 396.022 129.73C394.929 127.904 393.172 128.031 391.404 128.115C390.932 128.136 390.268 128.305 390 128.063C388.747 126.955 387.386 127.567 386.079 127.735C384.547 127.925 383.036 128.337 381.504 128.537C380.465 128.675 379.672 129.139 378.965 129.825C378.065 133.138 378.033 136.789 375.108 139.311C374.508 138.784 374.443 138.172 374.647 137.475C375 136.272 375.365 135.08 375.675 133.866C376.35 131.239 376.672 128.601 376.297 125.878C376.115 124.57 376.083 123.24 375.858 121.921C375.365 119.04 373.811 116.782 372.076 114.566C371.551 113.901 371.208 113.036 370.565 112.551C368.872 111.274 367.147 109.987 365.261 109.005C363.654 108.172 361.833 107.823 359.947 107.887C358.211 107.95 356.465 107.823 354.718 107.834C353.968 107.834 353.208 107.961 352.276 108.045C352.586 109.438 352.844 110.63 353.111 111.823C353.518 113.595 353.979 115.358 354.322 117.141C354.504 118.08 354.708 119.104 354.504 120.001C353.979 122.312 354.654 124.813 353.379 126.997C353.24 127.229 353.058 127.44 352.908 127.651C352.179 127.588 352.276 126.976 352.083 126.606C351.901 126.269 351.729 125.889 351.708 125.52C351.601 124 351.633 122.459 351.44 120.95C351.226 119.357 351.344 117.742 350.894 116.149C350.508 114.788 350.604 113.289 350.347 111.875C350.176 110.957 349.951 109.902 349.361 109.248C348.665 108.478 348.226 107.676 348.044 106.747C347.679 104.9 346.404 103.507 345.644 101.861C345.386 101.302 344.679 100.954 344.197 100.489C343.126 99.4448 341.283 99.1494 340.994 97.3344C339.676 96.8595 339.097 95.8043 338.701 94.5802C338.626 94.3481 338.304 94.1792 338.069 93.9998C336.258 92.5964 334.501 91.1402 332.154 90.5387C331.083 90.2643 330.097 89.4729 329.197 88.7659C328.329 88.0905 327.494 87.584 326.337 87.4996C325.179 87.4258 324.022 87.1831 323.112 86.3178C322.854 86.0751 322.426 85.8851 322.062 85.864C320.122 85.7479 318.247 85.252 316.254 85.2731C314.519 85.2836 312.805 86.0223 311.058 85.4947C309.419 84.9987 307.769 85.3786 306.13 85.4103C305.262 85.4208 304.458 85.4208 303.665 86.054C303.14 86.4655 302.176 86.2861 301.458 86.5288C299.369 87.2569 297.269 87.985 295.244 88.882C293.926 89.4729 292.619 90.2221 291.526 91.1507C290.487 92.0371 289.555 92.9657 288.173 93.3245C287.84 93.4089 287.519 93.7677 287.315 94.0737C286.598 95.1395 285.687 95.9203 284.508 96.5218C283.876 96.8489 283.448 97.6087 283.019 98.2313C282.537 98.9383 282.301 99.8669 281.701 100.447C279.162 102.874 278.23 106.146 276.783 109.153C276.687 109.332 276.73 109.543 276.708 109.797Z" fill="url(#paint4_linear_2411_1278)"/>
<g clip-path="url(#clip1_2411_1278)">
<g clip-path="url(#clip2_2411_1278)">
<path fill-rule="evenodd" clip-rule="evenodd" d="M231.45 308.792C308.704 321.995 326.949 296.439 337.533 274.795C348.117 253.152 344.736 207.414 310.232 192.916C252.058 168.473 282.892 127.065 250.87 96.3083C108.381 -40.5621 -68.7296 257.49 231.45 308.792Z" fill="url(#paint5_linear_2411_1278)"/>
</g>
<path fill-rule="evenodd" clip-rule="evenodd" d="M314.302 139.028C314.302 139.028 321.774 178.28 330.855 191.286C339.936 204.292 351.09 215.586 365.678 219.632C380.265 223.679 389.149 218.119 396.162 199.411C403.175 180.703 385.666 166.315 367.978 160.04C350.29 153.764 347.761 144.281 336.81 136.264C322.597 125.86 313.14 132.173 314.302 139.028Z" fill="url(#paint6_linear_2411_1278)"/>
<g clip-path="url(#clip3_2411_1278)">
<mask id="mask0_2411_1278" style="mask-type:luminance" maskUnits="userSpaceOnUse" x="35" y="99" width="397" height="362">
<path d="M286.439 113.226C286.439 113.226 316.46 142.38 355.914 140.82C398.255 139.144 424.872 165.784 406.624 204.734C381.611 258.13 399.175 264.385 415.828 274.963C441.61 291.359 438.52 330.728 390.572 350.575C342.624 370.423 355.675 446.739 300.789 459.515C263.006 468.319 248.39 411.205 217.135 388.752C216.21 388.086 215.439 386.764 214.436 386.966C207.322 388.387 185.374 424.846 148.082 421.405C109.643 417.865 27.8306 361.119 36.0898 312.219C43.5816 267.894 83.7303 265.17 100.523 238.04C117.322 210.923 88.559 187.453 104.401 153.712C121.435 117.423 154.347 116.476 185.633 124.974C230.727 137.244 242.304 71.3894 286.439 113.226Z" fill="white"/>
</mask>
<g mask="url(#mask0_2411_1278)">
<path d="M186.003 145.664C184.71 149.113 180.872 150.863 177.431 149.574C173.991 148.284 172.249 144.441 173.541 140.993C174.834 137.544 178.673 135.794 182.113 137.083C185.554 138.373 187.296 142.216 186.003 145.664Z" fill="#844914"/>
<path d="M183.988 142.029C183.465 143.423 181.714 144.056 180.088 143.447C178.454 142.834 177.56 141.209 178.082 139.815C178.605 138.421 180.356 137.787 181.982 138.397C183.607 139.006 184.51 140.635 183.988 142.029Z" fill="#A05B22"/>
<path d="M175.318 148.203C174.026 151.652 170.187 153.402 166.746 152.113C163.306 150.823 161.564 146.98 162.857 143.532C164.149 140.083 167.988 138.333 171.429 139.623C174.866 140.921 176.611 144.755 175.318 148.203Z" fill="#844914"/>
<path d="M169.404 145.986C171.034 146.597 172.78 145.962 173.303 144.568C173.826 143.173 172.928 141.547 171.297 140.936C169.666 140.324 167.92 140.959 167.397 142.354C166.875 143.748 167.773 145.375 169.404 145.986Z" fill="#A05B22"/>
<path d="M166.996 156.913C165.703 160.362 161.864 162.112 158.424 160.823C154.983 159.533 153.242 155.69 154.534 152.242C155.827 148.793 159.666 147.043 163.106 148.332C166.547 149.622 168.289 153.465 166.996 156.913Z" fill="#844914"/>
<path d="M164.984 153.269C164.462 154.663 162.71 155.296 161.085 154.687C159.45 154.074 158.556 152.449 159.078 151.055C159.601 149.661 161.353 149.027 162.978 149.637C164.603 150.246 165.507 151.875 164.984 153.269Z" fill="#A05B22"/>
<path d="M154.22 172.036C157.661 173.326 161.499 171.576 162.792 168.127C164.085 164.678 162.343 160.836 158.902 159.546C155.461 158.256 151.623 160.006 150.33 163.455C149.037 166.905 150.779 170.746 154.22 172.036Z" fill="#844914"/>
<path d="M160.777 164.492C160.254 165.885 158.503 166.519 156.877 165.91C155.243 165.297 154.348 163.671 154.871 162.278C155.393 160.884 157.145 160.25 158.771 160.859C160.396 161.469 161.299 163.098 160.777 164.492Z" fill="#A05B22"/>
<path d="M337.865 237.456C337.865 237.456 351.797 263.675 383.349 282.152C414.9 300.628 442.796 314.709 442.796 314.709L396.124 392.006C396.124 392.006 351.925 357.702 328.665 341.89C305.404 326.078 283.222 322.418 276.105 320.741C281.778 311.791 337.865 237.456 337.865 237.456Z" fill="#EFA867"/>
<path d="M337.865 237.456C337.865 237.456 351.797 263.676 383.349 282.152C414.9 300.628 442.796 314.709 442.796 314.709L410.522 368.16C410.522 368.16 362.324 334.689 339.064 318.877C315.803 303.065 294.413 329.05 276.114 320.745C281.778 311.791 337.865 237.456 337.865 237.456Z" fill="#ECB67B"/>
<path d="M312.633 316.081C312.633 316.081 321.941 312.737 340.056 323.482C358.172 334.227 398.11 359.563 398.11 359.563C398.11 359.563 354.644 328.527 344.148 321.496C333.653 314.464 323.536 310.434 312.633 316.081Z" fill="#E28D4D"/>
<path d="M230.569 175.224C230.569 175.224 207.208 164.102 200.499 160.461C193.792 156.812 185.221 150.471 177.057 148.071C168.894 145.671 164.279 149.711 162.042 158.617C159.805 167.524 164.825 171.852 172.359 173.572C179.892 175.291 188.003 180.221 192.696 183.033C197.388 185.846 207.571 197.229 209.238 198.278C210.914 199.329 230.441 182.05 230.569 175.224Z" fill="#E28D4D"/>
<path d="M225.876 172.029C225.876 172.029 207.205 164.111 200.499 160.461C193.792 156.812 185.221 150.471 177.057 148.071C168.894 145.671 164.279 149.711 162.042 158.617C159.805 167.524 164.825 171.852 172.359 173.572C179.892 175.291 188.003 180.221 192.696 183.033C197.388 185.846 205.824 192.549 209.804 190.944C211.639 190.197 225.747 178.856 225.876 172.029Z" fill="#EFA867"/>
<path d="M212.538 166.203C204.015 165.558 195.869 166.272 188.894 172.019C187.819 173.35 186.472 176.447 186.907 179.656C189.122 180.889 191.117 182.08 192.705 183.037C197.397 185.849 205.833 192.552 209.812 190.947C211.644 190.209 225.756 178.859 225.884 172.033C225.875 172.029 219.289 169.24 212.538 166.203Z" fill="#EA9957"/>
<path d="M171.307 148.135C171.307 148.135 167.902 147.188 164.741 149.441C161.579 151.693 156.633 160.791 162.679 167.496C164.753 161.193 171.307 148.135 171.307 148.135Z" fill="#FFCFA4"/>
<path d="M172.39 148.541C172.39 148.541 168.986 147.595 165.824 149.847C162.662 152.099 157.717 161.198 163.762 167.903C165.837 161.599 172.39 148.541 172.39 148.541Z" fill="#EFA867"/>
<path d="M185.03 157.491C184.37 153.372 181.328 150.085 177.232 148.126C177.178 148.106 177.115 148.082 177.057 148.071C168.894 145.671 164.279 149.711 162.042 158.618C159.805 167.524 164.826 171.852 172.359 173.572C174.465 174.052 176.62 174.787 178.733 175.662C183.739 171.459 186.264 164.281 185.03 157.491Z" fill="#ECB67B"/>
<path d="M185.283 157.916C185.283 157.916 184.835 170.621 176.347 174.747C180.332 176.148 184.283 178.166 187.621 180.058C192.984 181.139 197.449 180.986 197.449 180.986L203.28 172.519C203.271 172.515 192.077 158.584 185.283 157.916Z" fill="#EA9957"/>
<path d="M269.047 193.716C269.047 193.716 236.283 172.566 231.4 172.211C226.517 171.857 214.811 193.657 209.247 198.281C203.682 202.905 192.069 216.574 187.253 221.562C182.438 226.549 174.654 256.736 177.304 263.046C179.955 269.355 194.36 283.623 208.865 292.901C223.369 302.179 249.367 318.573 277.436 321.56C305.505 324.547 321.872 283.25 321.872 283.25L269.047 193.716Z" fill="#ECB67B"/>
<path d="M218.585 259.445C209.929 246.187 194.069 241.459 182.163 232.474C178.525 243.415 175.503 258.757 177.301 263.055C179.242 267.684 187.523 276.611 197.531 284.698C197.668 271.227 202.152 258.415 218.585 259.445Z" fill="#EA9957"/>
<path d="M269.046 193.716C269.046 193.716 236.283 172.566 231.4 172.211C226.517 171.857 214.811 193.657 209.247 198.281C207.482 199.746 205.122 202.113 202.55 204.824C197.006 210.684 190.541 218.149 187.253 221.562C182.438 226.549 179.872 248.421 182.519 254.74C183.894 258.022 188.174 262.733 193.996 267.807C194.951 268.639 195.976 269.313 197.045 269.868C202.45 269.407 207.537 267.402 211.132 263.691C226.951 247.458 225.41 225.606 227.271 204.13C227.412 200.487 228.903 197.774 230.132 194.797C235.356 196.962 237.122 207.141 236.872 213.933C237.551 209.759 239.787 206.159 242.796 202.858C246.581 199.849 251.913 204.501 251.814 207.127C253.249 227.557 274.026 233.539 290.985 230.885L269.046 193.716Z" fill="#EA9957"/>
<path d="M321.869 283.259L290.976 230.882C274.017 233.536 253.24 227.554 251.805 207.124C251.904 204.497 246.572 199.845 242.787 202.855C239.778 206.155 237.542 209.756 236.863 213.93C237.122 207.142 235.347 196.958 230.123 194.794C228.894 197.77 227.406 200.475 227.263 204.127C225.405 225.593 226.945 247.446 211.124 263.688C207.532 267.389 202.432 269.4 197.036 269.865C203.206 273.076 210.95 271.788 215.86 266.383C218.281 263.718 223.173 259.266 226.789 254.758C224.394 258.949 219.841 265.82 218.269 268.968C214.672 276.146 217.648 284.911 224.828 288.48C224.887 288.513 224.951 288.537 225.02 288.573C227.573 289.84 230.458 287.804 230.226 284.96C229.649 277.983 231.735 255.632 237.546 250.46C235.666 260.037 238.824 284.829 244.273 292.766C246.837 296.504 250.625 299.256 254.947 300.639C257.964 301.604 261.018 302.522 264.094 303.356C261.817 299.374 259.803 294.831 262.029 290.762C267.718 297.756 274.727 304.142 283.13 307.416C284.76 307.655 286.382 307.861 287.988 308.029C316.056 311.016 321.869 283.259 321.869 283.259Z" fill="#EFA867"/>
<path d="M211.92 249.803C216.753 247.599 216.573 241.349 216.07 236.071C203.977 238.959 193.158 245.784 181.708 251.298C181.879 252.683 182.146 253.867 182.51 254.736C183.885 258.019 188.165 262.73 193.987 267.803C195.214 268.872 196.559 269.707 197.973 270.33C197.668 269.359 197.461 268.373 197.354 267.393C196.103 258.945 205.222 253.496 211.92 249.803Z" fill="#EA9957"/>
<path d="M264.067 181.475C264.067 181.475 235.942 224.96 282.485 274.327C260.705 260.856 237.411 214.393 264.067 181.475Z" fill="#E28D4D"/>
<path d="M244.416 181.53C244.416 181.53 244.054 191.149 238.13 206.952C232.206 222.754 234.98 232.662 234.98 232.662C235.854 220.881 237.809 214.099 240.609 206.632C243.404 199.174 247.282 183.337 244.416 181.53Z" fill="#E28D4D"/>
<path d="M230.067 203.485C230.067 203.485 230.968 215.56 230.1 232.711C229.223 249.859 230.916 254.932 223.081 264.403C215.246 273.874 211.711 294.732 211.711 294.732C211.711 294.732 211.323 279.061 218.235 267.686C225.156 256.313 227.573 258.107 227.823 242.686C228.083 227.268 230.067 203.485 230.067 203.485Z" fill="#E28D4D"/>
<path d="M243.992 222.579C243.992 222.579 239.473 256.447 271.237 274.962C263.092 267.211 247.781 252.584 243.992 222.579Z" fill="#E28D4D"/>
<path d="M209.848 201.593C209.848 201.593 196.566 199.277 189.008 189.352C181.451 179.427 170.026 188.667 170.026 188.667C170.026 188.667 161.964 204.266 171.586 213.407C181.205 222.556 196.644 223.245 201.834 222.971C207.025 222.697 209.848 201.593 209.848 201.593Z" fill="#D89456"/>
<path d="M191.434 151.892C190.141 155.34 186.303 157.091 182.862 155.801C179.422 154.511 177.68 150.668 178.973 147.22C180.265 143.772 184.104 142.021 187.545 143.311C190.985 144.601 192.727 148.443 191.434 151.892Z" fill="#844914"/>
<path d="M189.422 148.247C188.9 149.641 187.148 150.275 185.523 149.665C183.888 149.052 182.994 147.427 183.517 146.033C184.039 144.639 185.791 144.005 187.416 144.615C189.051 145.228 189.945 146.853 189.422 148.247Z" fill="#A05B22"/>
<path d="M197.2 163.271C195.907 166.72 192.068 168.47 188.628 167.18C185.187 165.891 183.445 162.048 184.738 158.6C186.031 155.151 189.869 153.401 193.31 154.69C196.75 155.98 198.492 159.823 197.2 163.271Z" fill="#844914"/>
<path d="M195.184 159.636C194.662 161.029 192.91 161.663 191.285 161.054C189.65 160.441 188.756 158.815 189.279 157.422C189.801 156.028 191.553 155.394 193.178 156.003C194.813 156.616 195.707 158.242 195.184 159.636Z" fill="#A05B22"/>
<path d="M199.332 176.541C198.039 179.989 194.2 181.74 190.76 180.45C187.319 179.16 185.577 175.317 186.87 171.869C188.163 168.42 192.002 166.67 195.442 167.96C198.879 169.259 200.624 173.092 199.332 176.541Z" fill="#844914"/>
<path d="M197.317 172.905C196.794 174.299 195.042 174.932 193.417 174.323C191.783 173.71 190.888 172.085 191.411 170.691C191.933 169.297 193.685 168.663 195.31 169.273C196.936 169.882 197.839 171.511 197.317 172.905Z" fill="#A05B22"/>
<path d="M190.316 193.858C193.757 195.148 197.595 193.398 198.888 189.949C200.181 186.5 198.44 182.658 194.999 181.368C191.557 180.078 187.72 181.828 186.427 185.277C185.134 188.726 186.875 192.568 190.316 193.858Z" fill="#844914"/>
<path d="M196.877 186.304C196.354 187.698 194.602 188.332 192.977 187.722C191.343 187.11 190.448 185.484 190.971 184.09C191.493 182.696 193.245 182.063 194.87 182.672C196.496 183.281 197.399 184.91 196.877 186.304Z" fill="#A05B22"/>
<path d="M199.309 203.113C198.016 206.561 194.177 208.312 190.737 207.022C187.296 205.732 185.554 201.89 186.847 198.441C188.14 194.993 191.979 193.242 195.419 194.532C198.86 195.822 200.601 199.665 199.309 203.113Z" fill="#844914"/>
<path d="M197.294 199.477C196.771 200.871 195.019 201.505 193.394 200.896C191.769 200.286 190.865 198.657 191.388 197.263C191.91 195.87 193.662 195.236 195.287 195.845C196.913 196.455 197.816 198.084 197.294 199.477Z" fill="#A05B22"/>
<path d="M199.539 215.824C198.246 219.272 194.407 221.023 190.967 219.733C187.526 218.443 185.784 214.601 187.077 211.152C188.37 207.704 192.209 205.953 195.649 207.243C199.086 208.542 200.831 212.376 199.539 215.824Z" fill="#844914"/>
<path d="M197.524 212.188C197.001 213.582 195.249 214.216 193.624 213.607C191.99 212.994 191.095 211.368 191.618 209.974C192.14 208.581 193.892 207.947 195.517 208.556C197.143 209.166 198.046 210.795 197.524 212.188Z" fill="#A05B22"/>
<path d="M199.297 228.998C198.004 232.446 194.165 234.197 190.724 232.907C187.284 231.617 185.542 227.775 186.835 224.326C188.128 220.878 191.966 219.127 195.407 220.417C198.856 221.71 200.589 225.55 199.297 228.998Z" fill="#844914"/>
<path d="M197.29 225.366C196.768 226.76 195.016 227.393 193.391 226.784C191.756 226.171 190.862 224.546 191.385 223.152C191.907 221.758 193.659 221.124 195.284 221.734C196.913 222.334 197.816 223.963 197.29 225.366Z" fill="#A05B22"/>
<path d="M192.373 248.978C195.814 250.268 199.652 248.518 200.945 245.069C202.238 241.62 200.496 237.778 197.055 236.488C193.614 235.198 189.776 236.948 188.483 240.397C187.19 243.846 188.931 247.688 192.373 248.978Z" fill="#844914"/>
<path d="M198.933 241.424C198.41 242.818 196.659 243.452 195.033 242.843C193.399 242.23 192.504 240.604 193.027 239.21C193.55 237.817 195.301 237.183 196.927 237.792C198.552 238.402 199.455 240.031 198.933 241.424Z" fill="#A05B22"/>
<path d="M201.819 257.929C200.527 261.377 196.688 263.128 193.247 261.838C189.807 260.548 188.065 256.705 189.358 253.257C190.65 249.809 194.489 248.058 197.93 249.348C201.37 250.638 203.112 254.48 201.819 257.929Z" fill="#844914"/>
<path d="M199.813 254.297C199.291 255.69 197.539 256.324 195.914 255.715C194.279 255.102 193.385 253.476 193.907 252.083C194.43 250.689 196.181 250.055 197.807 250.664C199.432 251.274 200.336 252.903 199.813 254.297Z" fill="#A05B22"/>
<path d="M337.866 237.456C332.082 220.465 320.243 203.804 313.728 196.427C296.806 177.252 291.906 173.619 286.801 169.93C281.695 166.24 259.073 154.219 248.862 149.203C238.651 144.188 230.919 149.868 224.298 151.814C217.668 153.757 193.228 155.238 189.963 158.453C186.702 161.658 194.805 176.226 204.853 178.517C214.901 180.808 230.321 182.15 236.758 178.359C245.959 191.564 258.259 192.572 258.259 192.572C254.09 214.71 251.912 230.741 263.737 246.395C275.56 262.058 319.274 288.862 321.076 285.099C323.69 279.637 341.934 249.407 337.866 237.456Z" fill="#E5A565"/>
<path d="M337.865 237.456C332.082 220.465 320.242 203.804 313.728 196.427C296.806 177.252 291.906 173.619 286.8 169.929C281.695 166.24 259.073 154.219 248.862 149.203C238.651 144.188 230.919 149.868 224.298 151.814C218.473 153.532 198.883 154.88 192.013 157.353C191.073 157.691 193.487 157.213 195.683 163.25C197.144 167.266 202.431 169.785 212.258 172.911C220.219 175.442 234.559 178.123 240.996 174.333C246.134 187.717 258.268 192.576 258.268 192.576C254.099 214.714 251.921 230.744 263.746 246.398C275.569 262.061 319.283 288.865 321.085 285.102C323.69 279.637 341.934 249.407 337.865 237.456Z" fill="#ECB67B"/>
<path d="M241.787 148.296C241.376 147.77 240.711 147.428 239.938 147.21C233.914 147.399 228.841 150.493 224.294 151.823C221.47 152.653 215.392 153.399 209.097 154.229C208.33 157.483 207.61 163.086 212.008 162.536C218.157 161.765 227.405 158.636 233.137 157.358C238.872 156.07 243.887 150.962 241.787 148.296Z" fill="#EFBF8F"/>
<path d="M213.959 153.595C213.959 153.595 217.775 155.366 217.742 160.784C216.233 163.325 206.784 164.986 202.49 164.49C198.19 163.983 195.695 163.275 195.695 163.275C195.695 163.275 194.33 159.388 191.433 157.61C195.914 154.696 211.082 152.836 213.959 153.595Z" fill="#FFCFA4"/>
<path d="M258.268 192.576C258.268 192.576 270.421 208.126 301.49 207.066C295.765 210.524 266.974 210.26 258.268 192.576Z" fill="#E5A565"/>
<path d="M255.618 227.722C257.14 231.08 259.204 234.145 261.616 236.887C263.997 239.658 266.76 242.067 269.693 244.189C272.606 246.365 275.856 248.027 279.131 249.564C280.819 250.228 282.496 250.919 284.211 251.51L286.825 252.284C287.704 252.52 288.55 252.848 289.454 252.99C291.236 253.349 292.999 253.783 294.797 254.095C296.604 254.36 298.409 254.654 300.22 254.879C303.842 255.298 307.49 255.623 311.133 255.605C314.774 255.618 318.437 255.381 321.983 254.574C322.868 254.358 323.746 254.13 324.617 253.868C325.474 253.559 326.348 253.288 327.16 252.881C327.579 252.697 327.992 252.501 328.38 252.264C328.782 252.043 329.184 251.823 329.551 251.558C330.32 251.072 331.044 250.486 331.633 249.768C330.565 251.298 328.986 252.378 327.365 253.267C326.56 253.739 325.693 254.075 324.83 254.453C323.962 254.789 323.073 255.075 322.183 255.361C321.277 255.578 320.374 255.818 319.466 256.014L316.716 256.48C314.871 256.676 313.01 256.887 311.151 256.902C307.429 257.076 303.72 256.78 300.036 256.441C298.193 256.246 296.361 255.941 294.53 255.688C292.697 255.383 290.879 254.959 289.058 254.597C288.139 254.438 287.266 254.101 286.363 253.845L283.689 253.038C282.802 252.768 281.95 252.376 281.077 252.038C280.211 251.683 279.332 251.364 278.486 250.984L275.984 249.716L274.738 249.084C274.329 248.858 273.942 248.599 273.539 248.355L271.158 246.875C270.391 246.339 269.659 245.765 268.91 245.206C263.017 240.705 258.103 234.693 255.618 227.722Z" fill="#E5A565"/>
<path d="M280.804 186.913C280.804 186.913 270.407 194.783 258.259 192.572C264.715 198.1 277.872 192.4 280.804 186.913Z" fill="#E5A565"/>
<path d="M236.767 178.363C236.767 178.363 244.857 173.705 244.553 165.065C246.667 168.851 244.002 178.185 236.767 178.363Z" fill="#E5A565"/>
<path d="M182.681 203.373C182.681 203.373 190.38 194.512 196.129 191.567C201.878 188.623 205.028 185.303 202.951 176.803C200.875 168.303 193.55 166.001 181.142 171.982C168.722 177.969 162.725 186.797 161.352 192.93C159.971 199.06 161.888 207.655 170.343 210.267C176.336 212.524 182.681 203.373 182.681 203.373Z" fill="#EFA867"/>
<path d="M162.257 203.127C162.099 202.779 161.957 202.416 161.833 202.06C161.954 202.425 162.099 202.779 162.257 203.127Z" fill="#ECB67B"/>
<path d="M162.277 203.188C162.265 203.162 162.259 203.15 162.248 203.124C162.259 203.15 162.271 203.175 162.277 203.188Z" fill="#ECB67B"/>
<path d="M202.948 176.812C200.872 168.312 193.547 166.01 181.139 171.991C174.666 175.108 169.953 178.998 166.718 182.874C165.037 187.085 172.926 190.931 169.469 196.499C166.945 200.869 166.377 202.576 166.498 205.357C166.714 206.925 167.3 208.466 168.227 209.402C165.335 207.966 163.426 205.723 162.288 203.18C162.305 203.218 162.322 203.255 162.336 203.301C162.381 203.401 162.426 203.5 162.48 203.603C162.628 203.896 162.775 204.189 162.939 204.467C163.028 204.614 163.117 204.761 163.206 204.908C163.342 205.124 163.48 205.331 163.623 205.528C163.756 205.723 163.901 205.912 164.05 206.091C164.14 206.208 164.234 206.315 164.324 206.431C164.546 206.69 164.776 206.931 165.026 207.169C165.117 207.255 165.2 207.338 165.291 207.424C165.56 207.669 165.841 207.908 166.137 208.133C166.218 208.194 166.298 208.255 166.378 208.316C166.702 208.551 167.032 208.768 167.385 208.983C167.453 209.019 167.528 209.067 167.597 209.103C167.979 209.319 168.369 209.517 168.783 209.703C168.828 209.72 168.882 209.74 168.927 209.757C169.381 209.948 169.842 210.121 170.34 210.276C176.345 212.527 182.69 203.376 182.69 203.376C182.69 203.376 190.389 194.515 196.138 191.571C201.875 188.632 205.034 185.315 202.948 176.812Z" fill="#ECB67B"/>
<path d="M185.595 200.243C185.595 200.243 181.905 201.461 178.314 196.945C178.376 201.284 182.718 204.016 185.595 200.243Z" fill="#EFA867"/>
<path d="M176.406 190.274C168.388 181.498 174.64 175.893 175.55 175.14C172.577 177.081 170.102 179.178 168.099 181.307C166.975 184.663 168.395 188.293 170.549 190.184C169.106 188.456 168.635 184.739 169.681 182.911C169.373 186.399 172.028 190.222 174.456 190.833C171.657 188.081 170.575 184.867 171.236 182.307C170.799 185.478 173.645 188.795 176.406 190.274Z" fill="#EFA867"/>
<path d="M191.668 168.713C191.668 168.713 188.23 171.976 190.229 179.229C192.227 186.481 186.385 189.07 183.966 189.918C181.547 190.766 176.059 186.531 176.984 180.932C177.894 175.317 181.678 170.005 191.668 168.713Z" fill="#EFA867"/>
<path d="M191.668 168.713C191.668 168.713 187.036 172.581 189.037 179.824C191.036 187.077 186.379 189.058 183.96 189.906C181.541 190.754 176.053 186.518 176.978 180.919C177.894 175.317 181.678 170.005 191.668 168.713Z" fill="#FFCFA4"/>
<path d="M168.617 240.888C168.617 240.888 182.665 227.481 194.086 225.92C205.506 224.358 211.712 223.134 217.637 215.6C223.561 208.066 220.244 201.557 215.889 200.782C211.532 200.015 195.389 200.601 185.832 203.677C176.275 206.752 164.337 208.924 159.682 215.819C155.045 222.721 158.589 236.427 168.617 240.888Z" fill="#EFA867"/>
<path d="M215.899 200.785C211.629 200.031 195.066 204.237 185.421 207.3C182.922 212.237 186.254 218.513 183.913 220.691C177.641 225.69 166.963 227.829 162.5 235.116C163.584 237.473 165.528 239.513 168.617 240.888C168.617 240.888 182.666 227.481 194.086 225.919C205.506 224.358 211.712 223.133 217.637 215.599C223.561 208.065 220.256 201.551 215.899 200.785Z" fill="#ECB67B"/>
<path d="M187.187 204.597C184.6 208.2 184.952 212.647 187.503 214.605C185.822 211.425 186.958 208.971 189.001 206.186C187.157 209.923 188.438 213.293 190.018 214.216C188.119 208.043 191.511 204.628 193.831 203.083C191.462 203.495 189.202 204 187.187 204.597Z" fill="#EFA867"/>
<path d="M212.478 200.597C212.478 200.597 211.512 204.436 210.274 213.645C201.536 216.872 199.615 216.885 197.078 214.613C194.545 212.331 194.01 206.67 196.984 204.234C199.966 201.801 207.934 200.08 212.478 200.597Z" fill="#EFA867"/>
<path d="M212.478 200.597C212.478 200.597 209.015 206.07 210.274 213.645C201.536 216.872 199.615 216.885 197.078 214.613C194.545 212.331 194.01 206.67 196.984 204.234C199.966 201.801 207.934 200.08 212.478 200.597Z" fill="#FFCFA4"/>
<path d="M185.18 273.41C185.18 273.41 184.323 260.505 191.794 255.77C199.264 251.035 200.652 249.119 200.652 249.119C200.652 249.119 212.076 246.971 217.842 239.832C223.621 232.687 218.15 223.544 213.027 222.511C207.913 221.482 191.197 224.971 187.571 226.264C183.954 227.561 171.301 235.019 168.611 240.875C165.936 246.748 165.301 263.47 185.18 273.41Z" fill="#EFA867"/>
<path d="M168.194 241.989C168.17 242.052 168.143 242.125 168.128 242.192C168.143 242.125 168.167 242.061 168.194 241.989Z" fill="#ECB67B"/>
<path d="M173.704 264.793C173.546 264.61 173.379 264.423 173.224 264.231C173.388 264.427 173.546 264.61 173.704 264.793Z" fill="#ECB67B"/>
<path d="M174.216 265.377C174.21 265.365 174.199 265.34 174.193 265.327C174.032 265.153 173.862 264.976 173.704 264.793C173.876 264.992 174.04 265.187 174.216 265.377Z" fill="#ECB67B"/>
<path d="M215.042 223.319C208.088 224.036 198.836 226.079 196.252 227.01C194.445 227.654 190.379 229.846 186.432 232.599C186.45 236.673 192.436 239.495 189.337 244C188.77 245.511 186.81 245.768 184.971 246.524C177.594 252.026 175.393 261.194 178.318 269.134C180.272 270.651 182.541 272.101 185.186 273.423C185.186 273.423 184.329 260.518 191.799 255.783C199.27 251.048 200.658 249.132 200.658 249.132C200.658 249.132 212.082 246.984 217.848 239.844C222.865 233.632 219.391 225.92 215.042 223.319Z" fill="#ECB67B"/>
<path d="M188.663 258.819C188.663 258.819 182.845 262.553 178.026 257.494C178.778 260.213 185.114 261.803 185.722 261.36C184.184 262.91 179.516 262.42 179.516 262.42C182.863 264.84 186.838 264.483 188.663 258.819Z" fill="#EFA867"/>
<path d="M200.648 249.128C200.648 249.128 198.451 249.936 194.272 244.157C195.511 249.123 198.232 252.579 200.648 249.128Z" fill="#EFA867"/>
<path d="M214.045 222.821C213.9 222.767 213.746 222.709 213.598 222.664C213.746 222.709 213.891 222.763 214.045 222.821Z" fill="#ECB67B"/>
<path d="M167.93 242.83C167.947 242.784 167.955 242.736 167.972 242.69C167.955 242.736 167.938 242.781 167.93 242.83Z" fill="#ECB67B"/>
<path d="M167.27 247.31C167.277 247.126 167.281 246.952 167.297 246.772C167.29 246.956 167.283 247.139 167.27 247.31Z" fill="#ECB67B"/>
<path d="M167.317 246.472C167.326 246.309 167.335 246.147 167.354 245.989C167.348 246.142 167.335 246.313 167.317 246.472Z" fill="#ECB67B"/>
<path d="M167.427 245.408C167.449 245.24 167.476 245.085 167.494 244.927C167.467 245.082 167.449 245.24 167.427 245.408Z" fill="#ECB67B"/>
<path d="M167.555 244.517C167.578 244.401 167.601 244.285 167.62 244.179C167.597 244.295 167.578 244.401 167.555 244.517Z" fill="#ECB67B"/>
<path d="M193.061 227.775C193.061 227.775 189.476 232.914 194.207 238.59C191.445 236.811 189.847 233.105 190.216 230.363C188.089 232.766 190.94 237.881 190.94 237.881C188.382 236.437 186.867 233.361 187.585 231.173C188.293 228.981 193.061 227.775 193.061 227.775Z" fill="#EFA867"/>
<path d="M211.068 223.697C211.068 223.697 209.803 227.786 211.25 234.997C206.406 238.497 200.948 237.339 197.842 236.174C194.736 235.01 195.328 227.304 197.155 225.48C198.982 223.657 208.397 222.552 211.068 223.697Z" fill="#EFA867"/>
<path d="M211.068 223.697C211.068 223.697 207.93 228.88 211.25 234.997C206.406 238.497 200.948 237.339 197.842 236.174C194.736 235.01 195.328 227.304 197.155 225.48C198.982 223.657 208.397 222.552 211.068 223.697Z" fill="#FFCFA4"/>
<path d="M280.519 321.715C280.519 321.715 301.414 324.882 329.233 294.742C327.761 306.526 302.813 330.764 280.519 321.715Z" fill="#EFA867"/>
<path d="M341.439 263.116C341.439 263.116 339.985 281.72 330.49 292.323C346.5 303.136 401.315 339.201 404.686 342.023C382.999 322.589 343.341 295.077 339.833 291.439C342.394 283.428 344.055 271.633 341.439 263.116Z" fill="#EFA867"/>
<path d="M88.5145 292.274C90.1129 292.873 92.4302 290.346 91.5588 288.192C91.0674 286.976 89.3092 285.594 86.7221 286.286C84.144 286.981 83.9226 288.891 83.9226 288.891C79.9063 289.274 65.6354 288.796 64.1595 318.695C64.0108 321.674 64.6363 326.874 61.2394 331.402C62.7558 331.258 64.0641 329.911 64.6468 328.055C64.6124 330.592 63.4269 335.732 62.7178 337.624C65.6283 336.206 66.4004 332.965 66.4004 332.965C66.1789 335.04 64.447 340.099 63.6042 341.001C69.0551 339.401 70.8456 332.784 70.7827 330.562C71.8028 333.143 67.9821 340.093 67.9821 340.093C71.8457 338.331 74.7951 329.145 74.8643 326.9C74.5799 330.323 75.8876 331.588 75.8876 331.588C77.4998 317.782 90.0212 303.585 88.5145 292.274Z" fill="#BC4646"/>
<path d="M90.8196 287.801C90.8196 287.801 89.3494 286.311 87.3349 286.712C85.317 287.122 84.5886 289.12 84.5794 289.281C86.3069 287.586 87.2926 287.511 87.2926 287.511C86.0829 288.183 85.2332 289.268 85.1483 289.495C87.0495 287.967 88.822 288.157 88.822 288.157C85.9896 289.366 85.523 289.842 85.523 289.842C87.4305 289.039 89.2935 288.932 89.2935 288.932C87.256 289.944 85.5544 290.06 85.5544 290.06C88.3452 290.445 89.7284 290.272 90.6039 289.475C91.4704 288.675 90.8196 287.801 90.8196 287.801Z" fill="#CE6161"/>
<path d="M82.8365 289.041C82.8365 289.041 82.923 287.959 84.264 288.42C85.605 288.881 88.6206 290.755 89.1096 292.363C89.2039 293.1 88.6043 293.216 88.6043 293.216C88.6043 293.216 86.5282 289.496 82.8365 289.041Z" fill="#603617"/>
<path d="M64.9017 321.358C64.9017 321.358 64.8995 321.254 64.9042 321.049C64.9335 319.46 65.1528 312.007 67.0027 306.001C69.0913 299.248 72.662 291.4 80.1968 290.477C77.482 291.235 74.2821 293.287 71.9277 297.204C69.5734 301.122 67.5598 307.097 67.3564 309.014C70.9539 299.802 75.2347 291.982 82.16 290.79C79.2259 292.105 74.8573 294.308 71.0729 302.644C75.0483 297.342 78.4704 292.307 83.4423 291.271C80.5372 293.113 74.5891 298.677 71.8624 307.461C69.1356 316.246 68.2045 327.933 65.6542 332.675C66.8547 328.841 68.0645 322.647 68.6162 318.043C69.1555 313.445 71.6733 304.779 72.8309 302.488C70.5716 306.152 68.8266 312.29 67.9422 317.946C67.3466 315.358 69.9902 305.944 70.0628 305.558C67.2586 311.857 66.8772 316.803 66.8772 316.803C66.3548 314.46 66.9753 310.058 66.9753 310.058C66.1028 313.127 64.9017 321.358 64.9017 321.358Z" fill="#CE6161"/>
<path d="M84.5858 291.71C84.5858 291.71 77.5369 295.622 74.3813 304.039C71.2258 312.456 70.5323 328.455 66.0361 337.701C69.1257 333.388 70.6981 325.265 71.3981 321.832C72.0981 318.399 74.1542 306.019 76.8556 301.56C75.2284 307.082 74.3008 311.534 73.713 316.042C73.1253 320.549 71.7557 325.879 71.0714 327.759C72.5351 325.283 74.393 319.146 75.238 313.155C76.0797 307.174 79.9893 298.916 82.0487 297.159C80.1098 301.149 78.4198 304.284 77.3996 310.549C76.3794 316.814 75.4996 320.727 74.7768 322.655C76.2136 320.004 77.0448 317.869 78.593 310.552C80.1412 303.236 87 293.017 87 293.017C86.0063 293.305 83.4641 296.048 83.4641 296.048C84.2838 294.301 86.2 292.294 86.2 292.294C84.3671 293.062 81.8749 295.287 79.807 298.001C80.5624 296.096 83.0901 293.007 84.5858 291.71Z" fill="#CE6161"/>
<path d="M136.001 292.971L135.281 292.557C136.137 291.071 136.348 289.902 135.9 289.093C135.791 288.888 135.642 288.708 135.456 288.545C135.227 288.387 134.947 288.2 134.594 288.016C133.072 287.321 130.707 287.229 128.985 287.152C127.943 287.102 127.12 287.072 126.616 286.934L124.642 286.401L126.665 286.116C130.89 285.533 133.641 286.492 135.186 287.37C135.438 287.496 135.67 287.645 135.874 287.814C136.413 288.192 136.688 288.501 136.726 288.536L136.603 288.645C136.609 288.657 136.624 288.673 136.626 288.695C137.22 289.774 137.01 291.213 136.001 292.971Z" fill="#603617"/>
<path d="M94.629 291.459C92.6768 291.501 91.0621 289.957 91.0228 288.001C90.9834 286.046 92.5278 284.426 94.48 284.384C96.4322 284.341 98.0468 285.886 98.0862 287.842C98.1166 289.794 96.5721 291.413 94.629 291.459Z" fill="#844914"/>
<path d="M107.847 293.565C109.681 293.314 110.739 291.976 115.814 293.383C120.666 294.727 124.749 294.193 125.099 294.139C125.108 294.142 125.121 294.136 125.13 294.14C127.311 294.09 129.014 290.951 128.931 287.131C128.849 283.312 127.016 280.261 124.826 280.307C124.826 280.307 120.557 279.852 115.557 281.488C110.547 283.119 109.433 281.834 107.589 281.67C105.745 281.505 105.234 283.419 103.859 283.378C102.471 283.343 100.638 282.904 99.1596 283.248C99.1562 283.257 99.1562 283.257 99.1652 283.26C97.8091 283.443 96.7691 285.448 96.8217 287.863C96.871 290.287 97.9942 292.235 99.3603 292.355L99.3569 292.364C100.848 292.645 102.663 292.117 104.04 292.014C105.415 291.92 106.015 293.808 107.847 293.565Z" fill="#844914"/>
<path d="M92.0645 286.926C92.0402 286.029 92.8864 285.283 93.9466 285.257C95.0068 285.232 95.8745 285.939 95.8988 286.836C95.9231 287.733 95.0769 288.479 94.0167 288.504C92.9565 288.53 92.0887 287.823 92.0645 286.926Z" fill="#A05B22"/>
<path d="M127.449 289.053C127.449 289.053 127.821 283.856 126.138 282.688C124.454 281.52 122.458 281.597 119.538 282.598C116.628 283.603 114.008 284.107 111.274 283.516C108.531 282.921 108.066 282.21 106.225 283.357C104.384 284.504 103.068 284.362 101.553 284.227C100.028 284.09 98.7941 284.525 98.3371 285.716C97.8802 286.908 97.7534 289.224 99.0108 289.716C100.268 290.208 100.289 288.203 100.82 286.978C101.352 285.752 104.751 284.983 105.786 286.754C106.83 288.529 106.621 290.267 108.201 289.817C109.781 289.367 109.279 286.887 111.134 286.498C112.99 286.11 113.643 287.583 118.219 286.997C122.795 286.41 123.877 286.63 124.533 288.342C125.183 290.041 127.256 291.654 127.449 289.053Z" fill="#A05B22"/>
<path d="M150.564 184.509C154.005 185.799 157.843 184.048 159.136 180.599C160.429 177.15 158.687 173.309 155.246 172.019C151.805 170.728 147.967 172.479 146.674 175.928C145.381 179.377 147.123 183.218 150.564 184.509Z" fill="#844914"/>
<path d="M157.121 176.964C156.598 178.358 154.847 178.991 153.221 178.382C151.587 177.769 150.692 176.144 151.215 174.75C151.737 173.356 153.489 172.722 155.115 173.332C156.74 173.941 157.643 175.57 157.121 176.964Z" fill="#A05B22"/>
<path d="M156.637 193.557C155.344 197.005 151.505 198.756 148.065 197.466C144.624 196.176 142.882 192.334 144.175 188.885C145.468 185.437 149.307 183.686 152.747 184.976C156.188 186.266 157.93 190.109 156.637 193.557Z" fill="#844914"/>
<path d="M154.622 189.921C154.099 191.315 152.348 191.949 150.722 191.339C149.088 190.727 148.193 189.101 148.716 187.707C149.238 186.313 150.99 185.68 152.615 186.289C154.241 186.898 155.144 188.527 154.622 189.921Z" fill="#A05B22"/>
<path d="M154.822 206.75C153.529 210.199 149.69 211.949 146.25 210.659C142.809 209.37 141.067 205.527 142.36 202.079C143.653 198.63 147.492 196.88 150.932 198.169C154.373 199.459 156.114 203.302 154.822 206.75Z" fill="#844914"/>
<path d="M152.816 203.118C152.293 204.512 150.541 205.146 148.916 204.536C147.282 203.923 146.387 202.298 146.91 200.904C147.432 199.51 149.184 198.877 150.809 199.486C152.435 200.095 153.338 201.724 152.816 203.118Z" fill="#A05B22"/>
<path d="M145.576 223.362C149.018 224.652 152.855 222.902 154.148 219.453C155.441 216.004 153.7 212.162 150.259 210.872C146.817 209.582 142.98 211.332 141.687 214.781C140.394 218.23 142.135 222.072 145.576 223.362Z" fill="#844914"/>
<path d="M152.137 215.808C151.614 217.202 149.862 217.836 148.237 217.226C146.603 216.614 145.708 214.988 146.231 213.594C146.753 212.2 148.505 211.567 150.13 212.176C151.765 212.789 152.659 214.414 152.137 215.808Z" fill="#A05B22"/>
<path d="M153.152 232.055C151.86 235.504 148.021 237.254 144.58 235.964C141.14 234.675 139.398 230.832 140.691 227.383C141.983 223.935 145.822 222.185 149.263 223.474C152.703 224.764 154.445 228.607 153.152 232.055Z" fill="#844914"/>
<path d="M151.137 228.42C150.615 229.813 148.863 230.447 147.238 229.838C145.603 229.225 144.709 227.599 145.231 226.206C145.754 224.812 147.505 224.178 149.131 224.787C150.765 225.4 151.66 227.026 151.137 228.42Z" fill="#A05B22"/>
<path d="M152.316 245.192C151.024 248.641 147.185 250.391 143.744 249.102C140.304 247.812 138.562 243.969 139.855 240.521C141.147 237.072 144.986 235.322 148.427 236.612C151.867 237.901 153.609 241.744 152.316 245.192Z" fill="#844914"/>
<path d="M150.301 241.557C149.779 242.951 148.027 243.584 146.402 242.975C144.767 242.362 143.873 240.737 144.395 239.343C144.918 237.949 146.669 237.315 148.295 237.925C149.929 238.537 150.824 240.163 150.301 241.557Z" fill="#A05B22"/>
<path d="M141.335 262.011C144.777 263.301 148.614 261.55 149.907 258.101C151.2 254.652 149.459 250.811 146.018 249.52C142.577 248.23 138.739 249.981 137.446 253.43C136.153 256.879 137.894 260.72 141.335 262.011Z" fill="#844914"/>
<path d="M147.892 254.466C147.37 255.86 145.618 256.493 143.993 255.884C142.358 255.271 141.464 253.646 141.986 252.252C142.509 250.858 144.261 250.224 145.886 250.834C147.52 251.446 148.415 253.072 147.892 254.466Z" fill="#A05B22"/>
<path d="M147.844 271.078C146.551 274.526 142.713 276.277 139.272 274.987C135.832 273.697 134.09 269.854 135.382 266.406C136.675 262.958 140.514 261.207 143.954 262.497C147.395 263.787 149.137 267.629 147.844 271.078Z" fill="#844914"/>
<path d="M145.832 267.433C145.31 268.827 143.558 269.461 141.933 268.851C140.298 268.238 139.404 266.613 139.927 265.219C140.449 263.825 142.201 263.191 143.826 263.801C145.461 264.414 146.355 266.039 145.832 267.433Z" fill="#A05B22"/>
<path d="M144.468 283.903C143.175 287.351 139.336 289.102 135.896 287.812C132.455 286.522 130.713 282.679 132.006 279.231C133.299 275.783 137.138 274.032 140.578 275.322C144.028 276.615 145.761 280.454 144.468 283.903Z" fill="#844914"/>
<path d="M142.462 280.27C141.939 281.664 140.188 282.298 138.562 281.689C136.928 281.076 136.033 279.45 136.556 278.056C137.079 276.663 138.83 276.029 140.456 276.638C142.084 277.239 142.988 278.868 142.462 280.27Z" fill="#A05B22"/>
<path d="M131.533 300.411C134.974 301.701 138.812 299.951 140.105 296.502C141.398 293.053 139.656 289.211 136.215 287.921C132.774 286.631 128.936 288.381 127.643 291.83C126.35 295.28 128.092 299.121 131.533 300.411Z" fill="#844914"/>
<path d="M138.09 292.867C137.567 294.26 135.816 294.894 134.19 294.285C132.556 293.672 131.661 292.046 132.184 290.653C132.706 289.259 134.458 288.625 136.084 289.234C137.718 289.847 138.612 291.473 138.09 292.867Z" fill="#A05B22"/>
<path d="M135.106 308.874C133.814 312.322 129.975 314.073 126.534 312.783C123.094 311.493 121.352 307.65 122.645 304.202C123.937 300.753 127.776 299.003 131.217 300.293C134.666 301.586 136.399 305.425 135.106 308.874Z" fill="#844914"/>
<path d="M133.1 305.241C132.578 306.635 130.826 307.269 129.201 306.66C127.566 306.047 126.672 304.421 127.194 303.027C127.717 301.634 129.469 301 131.094 301.609C132.723 302.21 133.626 303.839 133.1 305.241Z" fill="#A05B22"/>
<path d="M128.307 320.281C127.014 323.729 123.175 325.48 119.735 324.19C116.294 322.9 114.552 319.057 115.845 315.609C117.138 312.161 120.976 310.41 124.417 311.7C127.854 312.999 129.599 316.832 128.307 320.281Z" fill="#844914"/>
<path d="M126.291 316.645C125.769 318.039 124.017 318.673 122.392 318.063C120.757 317.451 119.863 315.825 120.386 314.431C120.908 313.037 122.66 312.404 124.285 313.013C125.911 313.622 126.814 315.251 126.291 316.645Z" fill="#A05B22"/>
<path d="M113.35 335.918C116.791 337.208 120.629 335.458 121.922 332.009C123.215 328.56 121.474 324.718 118.032 323.428C114.591 322.138 110.753 323.888 109.46 327.337C108.167 330.786 109.909 334.628 113.35 335.918Z" fill="#844914"/>
<path d="M119.91 328.364C119.388 329.758 117.636 330.392 116.011 329.783C114.376 329.17 113.482 327.544 114.005 326.15C114.527 324.757 116.279 324.123 117.904 324.732C119.529 325.342 120.433 326.971 119.91 328.364Z" fill="#A05B22"/>
<path d="M116.895 344.236C115.603 347.684 111.764 349.435 108.323 348.145C104.883 346.855 103.141 343.012 104.434 339.564C105.726 336.116 109.565 334.365 113.006 335.655C116.446 336.945 118.188 340.788 116.895 344.236Z" fill="#844914"/>
<path d="M114.884 340.591C114.361 341.985 112.61 342.619 110.984 342.009C109.35 341.397 108.455 339.771 108.978 338.377C109.5 336.983 111.252 336.35 112.877 336.959C114.503 337.568 115.406 339.197 114.884 340.591Z" fill="#A05B22"/>
<path d="M113.336 356.971C112.044 360.42 108.205 362.17 104.764 360.881C101.324 359.591 99.5819 355.748 100.875 352.3C102.167 348.851 106.006 347.101 109.447 348.391C112.887 349.68 114.629 353.523 113.336 356.971Z" fill="#844914"/>
<path d="M111.321 353.336C110.799 354.73 109.047 355.363 107.422 354.754C105.787 354.141 104.893 352.516 105.415 351.122C105.938 349.728 107.69 349.094 109.315 349.704C110.94 350.313 111.844 351.942 111.321 353.336Z" fill="#A05B22"/>
<path d="M103.106 374.04C106.548 375.33 110.385 373.58 111.678 370.131C112.971 366.682 111.23 362.84 107.789 361.55C104.348 360.26 100.51 362.01 99.2167 365.459C97.9237 368.908 99.6651 372.75 103.106 374.04Z" fill="#844914"/>
<path d="M109.663 366.495C109.141 367.889 107.389 368.523 105.764 367.913C104.129 367.3 103.235 365.675 103.757 364.281C104.28 362.887 106.032 362.254 107.657 362.863C109.291 363.476 110.186 365.101 109.663 366.495Z" fill="#A05B22"/>
<path d="M114.446 383.215C113.153 386.663 109.315 388.414 105.874 387.124C102.434 385.834 100.692 381.992 101.984 378.543C103.277 375.095 107.116 373.344 110.557 374.634C113.997 375.924 115.739 379.767 114.446 383.215Z" fill="#844914"/>
<path d="M112.434 379.57C111.912 380.964 110.16 381.598 108.535 380.989C106.9 380.376 106.006 378.75 106.529 377.356C107.051 375.963 108.803 375.329 110.428 375.938C112.054 376.548 112.957 378.177 112.434 379.57Z" fill="#A05B22"/>
<path d="M111.853 399.007C115.294 400.297 119.132 398.547 120.425 395.098C121.718 391.649 119.976 387.807 116.535 386.517C113.094 385.227 109.256 386.977 107.963 390.426C106.67 393.875 108.411 397.717 111.853 399.007Z" fill="#844914"/>
<path d="M118.413 391.453C117.89 392.847 116.139 393.481 114.513 392.871C112.888 392.262 111.985 390.633 112.507 389.239C113.03 387.845 114.781 387.212 116.407 387.821C118.032 388.43 118.936 390.059 118.413 391.453Z" fill="#A05B22"/>
<path d="M122.336 407.169C125.777 408.46 129.615 406.709 130.908 403.26C132.201 399.811 130.46 395.969 127.019 394.679C123.577 393.389 119.74 395.14 118.447 398.589C117.154 402.038 118.895 405.879 122.336 407.169Z" fill="#844914"/>
<path d="M128.893 399.625C128.371 401.019 126.619 401.652 124.994 401.043C123.359 400.43 122.465 398.804 122.987 397.411C123.51 396.017 125.262 395.383 126.887 395.993C128.512 396.602 129.416 398.231 128.893 399.625Z" fill="#A05B22"/>
<path d="M143.366 407.476C142.073 410.925 138.234 412.675 134.794 411.385C131.353 410.096 129.611 406.253 130.904 402.805C132.197 399.356 136.036 397.606 139.476 398.895C142.917 400.185 144.659 404.028 143.366 407.476Z" fill="#844914"/>
<path d="M141.351 403.841C140.828 405.235 139.077 405.868 137.451 405.259C135.817 404.646 134.922 403.021 135.445 401.627C135.967 400.233 137.719 399.599 139.344 400.209C140.979 400.821 141.873 402.447 141.351 403.841Z" fill="#A05B22"/>
<path d="M156.692 407.755C155.399 411.203 151.56 412.954 148.12 411.664C144.679 410.374 142.937 406.531 144.23 403.083C145.523 399.635 149.362 397.884 152.802 399.174C156.243 400.464 157.985 404.306 156.692 407.755Z" fill="#844914"/>
<path d="M154.686 404.122C154.163 405.516 152.412 406.15 150.786 405.541C149.152 404.928 148.257 403.302 148.78 401.908C149.302 400.515 151.054 399.881 152.679 400.49C154.305 401.1 155.208 402.729 154.686 404.122Z" fill="#A05B22"/>
<path d="M169.757 405.541C168.465 408.989 164.626 410.74 161.185 409.45C157.745 408.16 156.003 404.317 157.296 400.869C158.589 397.42 162.427 395.67 165.868 396.96C169.317 398.253 171.05 402.092 169.757 405.541Z" fill="#844914"/>
<path d="M167.755 401.899C167.232 403.293 165.481 403.927 163.855 403.318C162.23 402.708 161.326 401.079 161.849 399.685C162.372 398.292 164.123 397.658 165.749 398.267C167.374 398.877 168.277 400.506 167.755 401.899Z" fill="#A05B22"/>
<path d="M180.026 397.106C178.733 400.554 174.895 402.305 171.454 401.015C168.013 399.725 166.272 395.883 167.564 392.434C168.857 388.986 172.696 387.235 176.136 388.525C179.577 389.815 181.319 393.658 180.026 397.106Z" fill="#844914"/>
<path d="M178.011 393.47C177.488 394.864 175.737 395.498 174.111 394.889C172.477 394.276 171.583 392.65 172.105 391.256C172.628 389.863 174.379 389.229 176.005 389.838C177.639 390.451 178.533 392.077 178.011 393.47Z" fill="#A05B22"/>
<path d="M188.722 387.483C187.429 390.931 183.59 392.682 180.15 391.392C176.709 390.102 174.967 386.26 176.26 382.811C177.553 379.363 181.391 377.612 184.832 378.902C188.269 380.201 190.014 384.035 188.722 387.483Z" fill="#844914"/>
<path d="M186.706 383.847C186.184 385.241 184.432 385.875 182.807 385.265C181.172 384.653 180.278 383.027 180.801 381.633C181.323 380.24 183.075 379.606 184.7 380.215C186.335 380.828 187.229 382.454 186.706 383.847Z" fill="#A05B22"/>
<path d="M194.367 375.364C193.074 378.813 189.235 380.563 185.795 379.273C182.354 377.984 180.612 374.141 181.905 370.693C183.198 367.244 187.037 365.494 190.477 366.783C193.918 368.073 195.66 371.916 194.367 375.364Z" fill="#844914"/>
<path d="M192.361 371.732C191.838 373.126 190.087 373.76 188.461 373.15C186.827 372.538 185.932 370.912 186.455 369.518C186.977 368.124 188.729 367.491 190.355 368.1C191.98 368.709 192.883 370.338 192.361 371.732Z" fill="#A05B22"/>
<path d="M189.419 366.666C192.861 367.956 196.698 366.205 197.991 362.756C199.284 359.307 197.543 355.466 194.102 354.175C190.661 352.885 186.823 354.636 185.53 358.085C184.237 361.534 185.978 365.375 189.419 366.666Z" fill="#844914"/>
<path d="M195.976 359.121C195.454 360.515 193.702 361.148 192.077 360.539C190.442 359.926 189.548 358.301 190.07 356.907C190.593 355.513 192.345 354.879 193.97 355.489C195.604 356.101 196.499 357.727 195.976 359.121Z" fill="#A05B22"/>
<path d="M201.072 349.841C199.779 353.29 195.94 355.04 192.5 353.75C189.059 352.461 187.317 348.618 188.61 345.17C189.903 341.721 193.742 339.971 197.182 341.26C200.623 342.55 202.365 346.393 201.072 349.841Z" fill="#844914"/>
<path d="M199.057 346.206C198.534 347.6 196.783 348.233 195.157 347.624C193.523 347.011 192.628 345.386 193.151 343.992C193.674 342.598 195.425 341.964 197.051 342.574C198.685 343.186 199.579 344.812 199.057 346.206Z" fill="#A05B22"/>
<path d="M195.439 340.607C198.881 341.897 202.718 340.147 204.011 336.698C205.304 333.249 203.563 329.407 200.122 328.117C196.681 326.827 192.843 328.577 191.55 332.026C190.257 335.475 191.998 339.317 195.439 340.607Z" fill="#844914"/>
<path d="M201.996 333.062C201.474 334.456 199.722 335.09 198.097 334.48C196.471 333.871 195.568 332.242 196.09 330.848C196.613 329.454 198.365 328.821 199.99 329.43C201.615 330.039 202.519 331.668 201.996 333.062Z" fill="#A05B22"/>
<path d="M196.088 327.338C199.529 328.628 203.367 326.878 204.66 323.429C205.953 319.979 204.212 316.138 200.771 314.848C197.329 313.558 193.492 315.308 192.199 318.757C190.906 322.206 192.647 326.048 196.088 327.338Z" fill="#844914"/>
<path d="M202.649 319.784C202.126 321.178 200.374 321.811 198.749 321.202C197.115 320.589 196.22 318.964 196.743 317.57C197.265 316.176 199.017 315.542 200.642 316.152C202.277 316.764 203.171 318.39 202.649 319.784Z" fill="#A05B22"/>
<path d="M205.475 310.211C204.182 313.659 200.343 315.41 196.903 314.12C193.462 312.83 191.721 308.988 193.013 305.539C194.306 302.091 198.145 300.34 201.585 301.63C205.026 302.92 206.768 306.763 205.475 310.211Z" fill="#844914"/>
<path d="M203.46 306.575C202.937 307.969 201.186 308.603 199.56 307.994C197.926 307.381 197.032 305.755 197.554 304.361C198.077 302.968 199.828 302.334 201.454 302.943C203.079 303.553 203.986 305.172 203.46 306.575Z" fill="#A05B22"/>
<path d="M196.539 300.833C199.98 302.123 203.818 300.372 205.111 296.923C206.404 293.474 204.663 289.633 201.221 288.342C197.78 287.052 193.942 288.803 192.649 292.252C191.356 295.701 193.098 299.542 196.539 300.833Z" fill="#844914"/>
<path d="M203.096 293.288C202.573 294.682 200.822 295.315 199.196 294.706C197.562 294.093 196.668 292.468 197.19 291.074C197.713 289.68 199.464 289.046 201.09 289.656C202.715 290.265 203.622 291.885 203.096 293.288Z" fill="#A05B22"/>
<path d="M204.141 270.691C202.849 274.139 199.01 275.89 195.569 274.6C192.129 273.31 190.387 269.468 191.68 266.019C192.972 262.571 196.811 260.82 200.252 262.11C203.689 263.409 205.431 267.252 204.141 270.691Z" fill="#844914"/>
<path d="M202.126 267.055C201.604 268.449 199.852 269.083 198.227 268.473C196.592 267.861 195.698 266.235 196.22 264.841C196.743 263.448 198.494 262.814 200.12 263.423C201.754 264.036 202.649 265.662 202.126 267.055Z" fill="#A05B22"/>
<path d="M197.076 287.697C200.517 288.987 204.355 287.237 205.648 283.788C206.941 280.339 205.199 276.497 201.758 275.207C198.317 273.917 194.479 275.667 193.186 279.116C191.893 282.565 193.635 286.407 197.076 287.697Z" fill="#844914"/>
<path d="M203.633 280.152C203.11 281.546 201.359 282.18 199.733 281.57C198.099 280.957 197.204 279.332 197.727 277.938C198.249 276.544 200.001 275.911 201.626 276.52C203.255 277.12 204.159 278.749 203.633 280.152Z" fill="#A05B22"/>
<path d="M302.457 215.201C302.457 215.201 291.413 219.577 278.009 211.321C264.604 203.065 261.832 203.564 261.043 213.25C260.255 222.936 266.45 241.796 295.885 246.441C325.325 251.099 320.326 237.043 305.649 233.967C290.972 230.891 302.247 231.257 305.754 225.418C309.261 219.579 309.02 214.069 302.457 215.201Z" fill="#EFBF8F"/>
</g>
</g>
</g>
</g>
<defs>
<linearGradient id="paint0_linear_2411_1278" x1="180" y1="0" x2="180" y2="800" gradientUnits="userSpaceOnUse">
<stop stop-color="#336B6C"/>
<stop offset="1" stop-color="#133133"/>
</linearGradient>
<linearGradient id="paint1_linear_2411_1278" x1="188.5" y1="775.722" x2="-197.709" y2="513.925" gradientUnits="userSpaceOnUse">
<stop stop-color="#003F69"/>
<stop offset="1" stop-color="#2D6285"/>
</linearGradient>
<linearGradient id="paint2_linear_2411_1278" x1="-118.259" y1="-18.4829" x2="-118.259" y2="96.2757" gradientUnits="userSpaceOnUse">
<stop stop-color="#E0E0E0"/>
<stop offset="1" stop-color="white" stop-opacity="0"/>
</linearGradient>
<linearGradient id="paint3_linear_2411_1278" x1="181.879" y1="-56" x2="181.879" y2="32.2759" gradientUnits="userSpaceOnUse">
<stop stop-color="#E0E0E0"/>
<stop offset="1" stop-color="white" stop-opacity="0"/>
</linearGradient>
<linearGradient id="paint4_linear_2411_1278" x1="313.19" y1="85.2415" x2="313.19" y2="200" gradientUnits="userSpaceOnUse">
<stop stop-color="#E0E0E0"/>
<stop offset="1" stop-color="white" stop-opacity="0"/>
</linearGradient>
<linearGradient id="paint5_linear_2411_1278" x1="251.22" y1="83.9528" x2="172.588" y2="293.699" gradientUnits="userSpaceOnUse">
<stop stop-color="white"/>
<stop offset="0.697917" stop-color="#F5FFFF"/>
<stop offset="1" stop-color="#DEFEFF"/>
</linearGradient>
<linearGradient id="paint6_linear_2411_1278" x1="363.832" y1="144.992" x2="339.466" y2="209.988" gradientUnits="userSpaceOnUse">
<stop stop-color="white"/>
<stop offset="0.697917" stop-color="#F5FFFF"/>
<stop offset="1" stop-color="#DEFEFF"/>
</linearGradient>
<clipPath id="clip0_2411_1278">
<rect width="360" height="800" fill="white"/>
</clipPath>
<clipPath id="clip1_2411_1278">
<rect width="360" height="440" fill="white"/>
</clipPath>
<clipPath id="clip2_2411_1278">
<rect width="295.999" height="224" fill="white" transform="translate(112.638 32) rotate(20.5505)"/>
</clipPath>
<clipPath id="clip3_2411_1278">
<rect width="382.971" height="344.55" fill="white" transform="translate(132.948 50.2021) rotate(20.5505)"/>
</clipPath>
</defs>
</svg>
