<svg width="100" height="52" viewBox="0 0 100 52" fill="none" xmlns="http://www.w3.org/2000/svg">
<rect width="100" height="52" rx="26" fill="url(#paint0_linear_3229_7652)"/>
<rect width="100" height="52" rx="26" fill="url(#paint1_linear_3229_7652)"/>
<path d="M44.3411 26.8333H53.6495L49.5828 30.9C49.2578 31.225 49.2578 31.7583 49.5828 32.0833C49.9078 32.4083 50.4328 32.4083 50.7578 32.0833L56.2495 26.5917C56.5745 26.2667 56.5745 25.7417 56.2495 25.4167L50.7661 19.9167C50.4411 19.5917 49.9161 19.5917 49.5911 19.9167C49.2661 20.2417 49.2661 20.7667 49.5911 21.0917L53.6495 25.1667H44.3411C43.8828 25.1667 43.5078 25.5417 43.5078 26C43.5078 26.4583 43.8828 26.8333 44.3411 26.8333Z" fill="#474747"/>
<defs>
<linearGradient id="paint0_linear_3229_7652" x1="50" y1="0" x2="50" y2="52" gradientUnits="userSpaceOnUse">
<stop stop-color="#FFD77F"/>
<stop offset="1" stop-color="#FF9F43"/>
</linearGradient>
<linearGradient id="paint1_linear_3229_7652" x1="50" y1="0" x2="50" y2="52" gradientUnits="userSpaceOnUse">
<stop stop-color="#40CEFC"/>
<stop offset="1" stop-color="#1491B6"/>
</linearGradient>
</defs>
</svg>
