<svg width="360" height="440" viewBox="0 0 360 440" fill="none" xmlns="http://www.w3.org/2000/svg">
<g clip-path="url(#clip0_2102_2696)">
<g clip-path="url(#clip1_2102_2696)">
<path fill-rule="evenodd" clip-rule="evenodd" d="M231.45 308.792C308.704 321.995 326.949 296.439 337.533 274.795C348.117 253.152 344.736 207.414 310.232 192.916C252.058 168.473 282.892 127.065 250.87 96.3083C108.381 -40.5621 -68.7297 257.49 231.45 308.792Z" fill="url(#paint0_linear_2102_2696)"/>
</g>
<path fill-rule="evenodd" clip-rule="evenodd" d="M314.301 139.028C314.301 139.028 321.774 178.28 330.855 191.286C339.936 204.292 351.09 215.586 365.677 219.632C380.265 223.679 389.148 218.119 396.162 199.411C403.175 180.703 385.666 166.315 367.978 160.04C350.29 153.764 347.761 144.281 336.81 136.264C322.597 125.86 313.14 132.173 314.301 139.028Z" fill="url(#paint1_linear_2102_2696)"/>
<g clip-path="url(#clip2_2102_2696)">
<mask id="mask0_2102_2696" style="mask-type:luminance" maskUnits="userSpaceOnUse" x="35" y="99" width="397" height="362">
<path d="M286.439 113.226C286.439 113.226 316.459 142.38 355.914 140.82C398.255 139.144 424.872 165.784 406.624 204.735C381.611 258.131 399.175 264.385 415.828 274.964C441.61 291.359 438.52 330.728 390.572 350.576C342.624 370.423 355.675 446.739 300.789 459.516C263.006 468.319 248.39 411.206 217.135 388.752C216.21 388.086 215.439 386.764 214.436 386.967C207.322 388.387 185.373 424.846 148.082 421.406C109.643 417.865 27.8305 361.119 36.0897 312.22C43.5815 267.894 83.7302 265.17 100.523 238.04C117.322 210.923 88.5588 187.453 104.401 153.712C121.435 117.423 154.346 116.476 185.633 124.974C230.727 137.244 242.304 71.3896 286.439 113.226Z" fill="white"/>
</mask>
<g mask="url(#mask0_2102_2696)">
<path d="M186.003 145.665C184.71 149.113 180.871 150.864 177.431 149.574C173.99 148.284 172.248 144.441 173.541 140.993C174.834 137.544 178.673 135.794 182.113 137.084C185.554 138.374 187.295 142.216 186.003 145.665Z" fill="#844914"/>
<path d="M183.987 142.029C183.465 143.423 181.713 144.056 180.088 143.447C178.453 142.834 177.559 141.209 178.082 139.815C178.604 138.421 180.356 137.787 181.981 138.397C183.607 139.006 184.51 140.635 183.987 142.029Z" fill="#A05B22"/>
<path d="M175.318 148.204C174.025 151.652 170.186 153.403 166.746 152.113C163.305 150.823 161.563 146.98 162.856 143.532C164.149 140.084 167.988 138.333 171.428 139.623C174.865 140.922 176.611 144.755 175.318 148.204Z" fill="#844914"/>
<path d="M169.403 145.986C171.034 146.598 172.78 145.963 173.303 144.568C173.826 143.173 172.927 141.547 171.297 140.936C169.666 140.324 167.92 140.959 167.397 142.354C166.874 143.749 167.772 145.375 169.403 145.986Z" fill="#A05B22"/>
<path d="M166.996 156.914C165.703 160.362 161.864 162.113 158.424 160.823C154.983 159.533 153.241 155.69 154.534 152.242C155.827 148.794 159.666 147.043 163.106 148.333C166.547 149.623 168.288 153.465 166.996 156.914Z" fill="#844914"/>
<path d="M164.984 153.269C164.461 154.663 162.71 155.296 161.084 154.687C159.45 154.074 158.556 152.449 159.078 151.055C159.601 149.661 161.352 149.027 162.978 149.637C164.603 150.246 165.506 151.875 164.984 153.269Z" fill="#A05B22"/>
<path d="M154.22 172.037C157.661 173.327 161.499 171.577 162.792 168.128C164.085 164.678 162.343 160.837 158.902 159.547C155.461 158.257 151.623 160.007 150.33 163.456C149.037 166.905 150.778 170.747 154.22 172.037Z" fill="#844914"/>
<path d="M160.776 164.492C160.254 165.886 158.502 166.519 156.877 165.91C155.242 165.297 154.348 163.672 154.871 162.278C155.393 160.884 157.145 160.25 158.77 160.86C160.396 161.469 161.299 163.098 160.776 164.492Z" fill="#A05B22"/>
<path d="M337.865 237.456C337.865 237.456 351.796 263.676 383.348 282.152C414.9 300.628 442.796 314.709 442.796 314.709L396.123 392.007C396.123 392.007 351.925 357.703 328.664 341.891C305.404 326.079 283.221 322.418 276.105 320.741C281.777 311.792 337.865 237.456 337.865 237.456Z" fill="#EFA867"/>
<path d="M337.865 237.457C337.865 237.457 351.797 263.676 383.348 282.152C414.9 300.628 442.796 314.709 442.796 314.709L410.522 368.16C410.522 368.16 362.324 334.69 339.063 318.878C315.803 303.066 294.413 329.05 276.114 320.745C281.777 311.792 337.865 237.457 337.865 237.457Z" fill="#ECB67B"/>
<path d="M312.633 316.081C312.633 316.081 321.941 312.737 340.056 323.482C358.172 334.227 398.11 359.564 398.11 359.564C398.11 359.564 354.644 328.528 344.148 321.496C333.652 314.464 323.535 310.434 312.633 316.081Z" fill="#E28D4D"/>
<path d="M230.569 175.224C230.569 175.224 207.208 164.102 200.498 160.462C193.792 156.812 185.221 150.471 177.057 148.071C168.893 145.671 164.278 149.712 162.041 158.618C159.805 167.524 164.825 171.852 172.358 173.572C179.891 175.291 188.002 180.221 192.695 183.034C197.388 185.846 207.57 197.23 209.237 198.278C210.913 199.329 230.44 182.051 230.569 175.224Z" fill="#E28D4D"/>
<path d="M225.875 172.029C225.875 172.029 207.205 164.111 200.498 160.462C193.792 156.812 185.221 150.471 177.057 148.071C168.893 145.671 164.278 149.712 162.041 158.618C159.805 167.524 164.825 171.852 172.358 173.572C179.891 175.291 188.002 180.221 192.695 183.034C197.388 185.846 205.823 192.549 209.803 190.944C211.638 190.197 225.746 178.856 225.875 172.029Z" fill="#EFA867"/>
<path d="M212.538 166.204C204.015 165.558 195.869 166.272 188.894 172.019C187.818 173.35 186.472 176.448 186.906 179.656C189.122 180.889 191.116 182.08 192.704 183.037C197.397 185.849 205.832 192.552 209.812 190.947C211.644 190.21 225.756 178.86 225.884 172.033C225.875 172.029 219.289 169.24 212.538 166.204Z" fill="#EA9957"/>
<path d="M171.306 148.135C171.306 148.135 167.902 147.189 164.74 149.441C161.579 151.693 156.633 160.792 162.678 167.497C164.753 161.193 171.306 148.135 171.306 148.135Z" fill="#FFCFA4"/>
<path d="M172.39 148.541C172.39 148.541 168.986 147.595 165.824 149.847C162.662 152.099 157.717 161.198 163.762 167.903C165.837 161.599 172.39 148.541 172.39 148.541Z" fill="#EFA867"/>
<path d="M185.03 157.491C184.37 153.373 181.328 150.085 177.232 148.126C177.178 148.106 177.114 148.082 177.057 148.071C168.893 145.671 164.278 149.712 162.041 158.618C159.805 167.524 164.825 171.853 172.358 173.572C174.465 174.052 176.619 174.788 178.732 175.662C183.738 171.459 186.264 164.282 185.03 157.491Z" fill="#ECB67B"/>
<path d="M185.282 157.916C185.282 157.916 184.835 170.621 176.346 174.747C180.332 176.148 184.282 178.166 187.621 180.058C192.983 181.139 197.449 180.986 197.449 180.986L203.28 172.519C203.271 172.516 192.077 158.584 185.282 157.916Z" fill="#EA9957"/>
<path d="M269.046 193.716C269.046 193.716 236.282 172.566 231.399 172.211C226.517 171.857 214.811 193.658 209.246 198.281C203.682 202.905 192.068 216.575 187.253 221.562C182.438 226.549 174.654 256.736 177.304 263.046C179.954 269.356 194.36 283.623 208.864 292.901C223.369 302.179 249.367 318.573 277.436 321.56C305.504 324.547 321.872 283.25 321.872 283.25L269.046 193.716Z" fill="#ECB67B"/>
<path d="M218.584 259.445C209.929 246.187 194.069 241.459 182.163 232.475C178.525 243.415 175.502 258.758 177.301 263.055C179.242 267.685 187.523 276.611 197.53 284.699C197.668 271.227 202.152 258.415 218.584 259.445Z" fill="#EA9957"/>
<path d="M269.046 193.716C269.046 193.716 236.282 172.566 231.399 172.211C226.517 171.857 214.811 193.658 209.246 198.281C207.482 199.746 205.122 202.113 202.55 204.824C197.006 210.684 190.541 218.149 187.253 221.562C182.438 226.549 179.872 248.421 182.519 254.74C183.894 258.022 188.173 262.734 193.996 267.807C194.951 268.64 195.976 269.313 197.044 269.868C202.449 269.407 207.537 267.402 211.132 263.692C226.951 247.459 225.41 225.606 227.271 204.13C227.411 200.487 228.902 197.774 230.132 194.797C235.355 196.962 237.121 207.142 236.872 213.934C237.551 209.76 239.787 206.159 242.795 202.858C246.581 199.849 251.913 204.501 251.814 207.127C253.249 227.557 274.025 233.54 290.984 230.885L269.046 193.716Z" fill="#EA9957"/>
<path d="M321.868 283.259L290.975 230.882C274.016 233.536 253.24 227.554 251.805 207.124C251.904 204.498 246.572 199.846 242.786 202.855C239.778 206.156 237.542 209.756 236.863 213.93C237.121 207.142 235.346 196.959 230.122 194.794C228.893 197.771 227.406 200.475 227.262 204.127C225.404 225.594 226.945 247.446 211.123 263.688C207.531 267.39 202.431 269.4 197.035 269.865C203.206 273.076 210.95 271.789 215.86 266.383C218.28 263.718 223.173 259.266 226.789 254.758C224.394 258.95 219.84 265.821 218.269 268.968C214.672 276.146 217.648 284.911 224.827 288.48C224.887 288.513 224.95 288.537 225.019 288.573C227.572 289.84 230.457 287.804 230.225 284.961C229.648 277.983 231.735 255.632 237.546 250.461C235.666 260.037 238.823 284.829 244.272 292.766C246.836 296.504 250.625 299.256 254.947 300.639C257.963 301.605 261.018 302.523 264.094 303.356C261.817 299.374 259.802 294.831 262.028 290.762C267.717 297.757 274.727 304.142 283.13 307.416C284.76 307.655 286.382 307.861 287.987 308.029C316.056 311.016 321.868 283.259 321.868 283.259Z" fill="#EFA867"/>
<path d="M211.92 249.803C216.753 247.6 216.573 241.349 216.069 236.071C203.977 238.959 193.158 245.784 181.708 251.298C181.879 252.683 182.146 253.867 182.51 254.737C183.885 258.019 188.164 262.73 193.987 267.804C195.214 268.872 196.559 269.707 197.973 270.33C197.668 269.359 197.461 268.373 197.354 267.394C196.103 258.945 205.221 253.496 211.92 249.803Z" fill="#EA9957"/>
<path d="M264.067 181.475C264.067 181.475 235.941 224.96 282.485 274.327C260.705 260.856 237.41 214.393 264.067 181.475Z" fill="#E28D4D"/>
<path d="M244.416 181.53C244.416 181.53 244.054 191.149 238.13 206.952C232.205 222.755 234.98 232.662 234.98 232.662C235.854 220.881 237.809 214.099 240.608 206.632C243.404 199.174 247.281 183.337 244.416 181.53Z" fill="#E28D4D"/>
<path d="M230.067 203.486C230.067 203.486 230.968 215.56 230.1 232.711C229.223 249.859 230.915 254.932 223.08 264.403C215.245 273.874 211.71 294.732 211.71 294.732C211.71 294.732 211.323 279.062 218.235 267.686C225.155 256.314 227.573 258.108 227.823 242.686C228.083 227.269 230.067 203.486 230.067 203.486Z" fill="#E28D4D"/>
<path d="M243.992 222.58C243.992 222.58 239.473 256.447 271.237 274.962C263.091 267.211 247.781 252.584 243.992 222.58Z" fill="#E28D4D"/>
<path d="M209.848 201.593C209.848 201.593 196.565 199.277 189.008 189.352C181.451 179.427 170.026 188.667 170.026 188.667C170.026 188.667 161.963 204.267 171.586 213.407C181.205 222.557 196.643 223.245 201.834 222.971C207.024 222.698 209.848 201.593 209.848 201.593Z" fill="#D89456"/>
<path d="M191.434 151.892C190.141 155.34 186.302 157.091 182.862 155.801C179.421 154.511 177.679 150.668 178.972 147.22C180.265 143.772 184.104 142.021 187.544 143.311C190.985 144.601 192.727 148.444 191.434 151.892Z" fill="#844914"/>
<path d="M189.422 148.247C188.9 149.641 187.148 150.275 185.523 149.665C183.888 149.053 182.994 147.427 183.516 146.033C184.039 144.639 185.79 144.006 187.416 144.615C189.05 145.228 189.945 146.853 189.422 148.247Z" fill="#A05B22"/>
<path d="M197.199 163.272C195.907 166.72 192.068 168.47 188.627 167.181C185.187 165.891 183.445 162.048 184.738 158.6C186.03 155.151 189.869 153.401 193.31 154.691C196.75 155.98 198.492 159.823 197.199 163.272Z" fill="#844914"/>
<path d="M195.184 159.636C194.662 161.03 192.91 161.663 191.285 161.054C189.65 160.441 188.756 158.816 189.278 157.422C189.801 156.028 191.552 155.394 193.178 156.004C194.812 156.616 195.707 158.242 195.184 159.636Z" fill="#A05B22"/>
<path d="M199.331 176.541C198.039 179.989 194.2 181.74 190.759 180.45C187.319 179.16 185.577 175.317 186.87 171.869C188.162 168.421 192.001 166.67 195.442 167.96C198.879 169.259 200.624 173.092 199.331 176.541Z" fill="#844914"/>
<path d="M197.316 172.905C196.794 174.299 195.042 174.933 193.417 174.323C191.782 173.711 190.888 172.085 191.41 170.691C191.933 169.297 193.685 168.664 195.31 169.273C196.935 169.882 197.839 171.511 197.316 172.905Z" fill="#A05B22"/>
<path d="M190.316 193.858C193.757 195.148 197.595 193.398 198.888 189.949C200.181 186.5 198.44 182.658 194.998 181.368C191.557 180.078 187.719 181.828 186.426 185.277C185.133 188.726 186.875 192.568 190.316 193.858Z" fill="#844914"/>
<path d="M196.876 186.304C196.354 187.698 194.602 188.332 192.977 187.723C191.342 187.11 190.448 185.484 190.97 184.09C191.493 182.697 193.244 182.063 194.87 182.672C196.495 183.282 197.399 184.911 196.876 186.304Z" fill="#A05B22"/>
<path d="M199.309 203.113C198.016 206.562 194.177 208.312 190.737 207.022C187.296 205.733 185.554 201.89 186.847 198.442C188.14 194.993 191.978 193.243 195.419 194.532C198.859 195.822 200.601 199.665 199.309 203.113Z" fill="#844914"/>
<path d="M197.293 199.478C196.771 200.872 195.019 201.505 193.394 200.896C191.768 200.286 190.865 198.658 191.388 197.264C191.91 195.87 193.662 195.236 195.287 195.846C196.912 196.455 197.816 198.084 197.293 199.478Z" fill="#A05B22"/>
<path d="M199.538 215.824C198.246 219.273 194.407 221.023 190.966 219.733C187.526 218.444 185.784 214.601 187.077 211.152C188.37 207.704 192.208 205.954 195.649 207.243C199.086 208.542 200.831 212.376 199.538 215.824Z" fill="#844914"/>
<path d="M197.523 212.189C197.001 213.582 195.249 214.216 193.624 213.607C191.989 212.994 191.095 211.368 191.617 209.975C192.14 208.581 193.892 207.947 195.517 208.556C197.142 209.166 198.046 210.795 197.523 212.189Z" fill="#A05B22"/>
<path d="M199.296 228.998C198.003 232.447 194.165 234.197 190.724 232.907C187.284 231.618 185.542 227.775 186.835 224.327C188.127 220.878 191.966 219.128 195.407 220.417C198.856 221.711 200.589 225.55 199.296 228.998Z" fill="#844914"/>
<path d="M197.29 225.366C196.767 226.76 195.016 227.394 193.39 226.784C191.756 226.172 190.862 224.546 191.384 223.152C191.907 221.758 193.658 221.125 195.284 221.734C196.913 222.334 197.816 223.963 197.29 225.366Z" fill="#A05B22"/>
<path d="M192.372 248.979C195.814 250.269 199.651 248.518 200.944 245.069C202.237 241.62 200.496 237.779 197.055 236.488C193.614 235.198 189.776 236.949 188.483 240.398C187.19 243.847 188.931 247.688 192.372 248.979Z" fill="#844914"/>
<path d="M198.933 241.425C198.41 242.819 196.658 243.452 195.033 242.843C193.398 242.23 192.504 240.605 193.027 239.211C193.549 237.817 195.301 237.183 196.926 237.793C198.552 238.402 199.455 240.031 198.933 241.425Z" fill="#A05B22"/>
<path d="M201.819 257.929C200.526 261.377 196.687 263.128 193.247 261.838C189.806 260.548 188.064 256.706 189.357 253.257C190.65 249.809 194.489 248.058 197.929 249.348C201.37 250.638 203.112 254.481 201.819 257.929Z" fill="#844914"/>
<path d="M199.813 254.297C199.29 255.691 197.539 256.324 195.913 255.715C194.279 255.102 193.384 253.477 193.907 252.083C194.43 250.689 196.181 250.055 197.807 250.665C199.432 251.274 200.335 252.903 199.813 254.297Z" fill="#A05B22"/>
<path d="M337.865 237.456C332.082 220.465 320.242 203.804 313.728 196.428C296.806 177.252 291.906 173.619 286.8 169.93C281.695 166.24 259.073 154.219 248.862 149.204C238.65 144.188 230.918 149.868 224.297 151.814C217.667 153.757 193.228 155.238 189.963 158.453C186.701 161.659 194.804 176.227 204.852 178.518C214.901 180.808 230.32 182.15 236.757 178.359C245.958 191.564 258.259 192.573 258.259 192.573C254.089 214.711 251.911 230.741 263.737 246.395C275.559 262.058 319.274 288.862 321.076 285.099C323.69 279.637 341.933 249.408 337.865 237.456Z" fill="#E5A565"/>
<path d="M337.865 237.456C332.082 220.465 320.242 203.804 313.728 196.428C296.806 177.252 291.906 173.619 286.8 169.93C281.695 166.24 259.073 154.219 248.862 149.204C238.65 144.188 230.918 149.868 224.297 151.814C218.473 153.533 198.883 154.88 192.013 157.353C191.072 157.692 193.486 157.214 195.683 163.25C197.144 167.266 202.431 169.785 212.258 172.912C220.219 175.442 234.559 178.124 240.996 174.333C246.134 187.717 258.268 192.576 258.268 192.576C254.098 214.714 251.92 230.744 263.746 246.398C275.568 262.062 319.283 288.865 321.085 285.102C323.69 279.637 341.933 249.407 337.865 237.456Z" fill="#ECB67B"/>
<path d="M241.786 148.296C241.376 147.77 240.711 147.428 239.938 147.211C233.914 147.399 228.84 150.493 224.294 151.823C221.47 152.654 215.391 153.4 209.096 154.229C208.33 157.483 207.609 163.086 212.007 162.536C218.157 161.765 227.405 158.636 233.136 157.358C238.872 156.07 243.887 150.962 241.786 148.296Z" fill="#EFBF8F"/>
<path d="M213.959 153.595C213.959 153.595 217.775 155.367 217.742 160.784C216.233 163.326 206.784 164.986 202.489 164.491C198.189 163.983 195.694 163.275 195.694 163.275C195.694 163.275 194.33 159.388 191.432 157.61C195.913 154.696 211.081 152.837 213.959 153.595Z" fill="#FFCFA4"/>
<path d="M258.268 192.576C258.268 192.576 270.421 208.126 301.49 207.066C295.764 210.525 266.974 210.261 258.268 192.576Z" fill="#E5A565"/>
<path d="M255.618 227.722C257.14 231.08 259.204 234.146 261.616 236.887C263.996 239.659 266.76 242.067 269.693 244.189C272.606 246.365 275.855 248.027 279.131 249.565C280.818 250.228 282.495 250.919 284.21 251.51L286.825 252.284C287.704 252.521 288.549 252.848 289.454 252.991C291.235 253.349 292.998 253.783 294.797 254.096C296.603 254.36 298.408 254.655 300.219 254.879C303.842 255.298 307.49 255.623 311.132 255.605C314.773 255.618 318.436 255.381 321.983 254.574C322.867 254.358 323.746 254.13 324.616 253.868C325.473 253.56 326.348 253.289 327.16 252.881C327.579 252.697 327.992 252.501 328.379 252.265C328.781 252.044 329.184 251.823 329.551 251.558C330.32 251.072 331.044 250.487 331.633 249.768C330.565 251.298 328.986 252.378 327.365 253.267C326.56 253.74 325.692 254.075 324.829 254.454C323.962 254.789 323.072 255.075 322.182 255.361C321.277 255.579 320.373 255.818 319.465 256.014L316.716 256.481C314.871 256.677 313.01 256.887 311.15 256.903C307.429 257.076 303.719 256.78 300.035 256.441C298.193 256.246 296.36 255.941 294.529 255.688C292.697 255.383 290.878 254.96 289.057 254.597C288.138 254.438 287.266 254.101 286.363 253.845L283.689 253.039C282.801 252.768 281.949 252.376 281.077 252.039C280.211 251.683 279.332 251.364 278.485 250.984L275.984 249.717L274.738 249.084C274.328 248.858 273.941 248.6 273.538 248.356L271.158 246.875C270.39 246.34 269.658 245.766 268.91 245.206C263.017 240.706 258.103 234.693 255.618 227.722Z" fill="#E5A565"/>
<path d="M280.804 186.913C280.804 186.913 270.407 194.784 258.259 192.573C264.715 198.1 277.872 192.4 280.804 186.913Z" fill="#E5A565"/>
<path d="M236.766 178.363C236.766 178.363 244.857 173.705 244.553 165.065C246.666 168.851 244.001 178.185 236.766 178.363Z" fill="#E5A565"/>
<path d="M182.681 203.373C182.681 203.373 190.38 194.512 196.129 191.567C201.878 188.623 205.028 185.303 202.951 176.803C200.875 168.304 193.55 166.001 181.142 171.982C168.722 177.969 162.724 186.797 161.352 192.93C159.97 199.06 161.888 207.655 170.343 210.267C176.335 212.524 182.681 203.373 182.681 203.373Z" fill="#EFA867"/>
<path d="M162.256 203.128C162.099 202.779 161.957 202.416 161.833 202.06C161.953 202.426 162.099 202.779 162.256 203.128Z" fill="#ECB67B"/>
<path d="M162.276 203.188C162.265 203.163 162.259 203.15 162.247 203.124C162.259 203.15 162.27 203.175 162.276 203.188Z" fill="#ECB67B"/>
<path d="M202.948 176.812C200.871 168.313 193.546 166.01 181.139 171.991C174.666 175.108 169.953 178.998 166.718 182.875C165.036 187.086 172.926 190.931 169.469 196.5C166.945 200.87 166.377 202.577 166.498 205.358C166.714 206.925 167.3 208.466 168.226 209.402C165.334 207.967 163.426 205.723 162.288 203.181C162.305 203.218 162.322 203.255 162.335 203.302C162.38 203.401 162.426 203.501 162.48 203.604C162.627 203.896 162.775 204.189 162.939 204.467C163.028 204.614 163.117 204.761 163.206 204.908C163.341 205.124 163.48 205.331 163.622 205.529C163.755 205.723 163.901 205.912 164.05 206.091C164.14 206.208 164.234 206.315 164.324 206.432C164.546 206.69 164.775 206.931 165.026 207.17C165.117 207.256 165.199 207.338 165.291 207.424C165.559 207.669 165.84 207.909 166.137 208.133C166.217 208.194 166.297 208.255 166.377 208.316C166.701 208.551 167.032 208.768 167.384 208.983C167.453 209.019 167.528 209.068 167.596 209.104C167.979 209.319 168.368 209.517 168.783 209.703C168.828 209.72 168.882 209.74 168.927 209.757C169.381 209.948 169.841 210.121 170.339 210.276C176.344 212.528 182.69 203.376 182.69 203.376C182.69 203.376 190.389 194.515 196.138 191.571C201.874 188.632 205.033 185.316 202.948 176.812Z" fill="#ECB67B"/>
<path d="M185.595 200.243C185.595 200.243 181.904 201.461 178.313 196.946C178.376 201.284 182.718 204.016 185.595 200.243Z" fill="#EFA867"/>
<path d="M176.406 190.274C168.388 181.498 174.64 175.893 175.55 175.14C172.577 177.081 170.102 179.178 168.099 181.307C166.974 184.664 168.395 188.293 170.549 190.184C169.106 188.456 168.635 184.739 169.681 182.912C169.372 186.399 172.028 190.223 174.456 190.834C171.657 188.081 170.575 184.868 171.236 182.308C170.799 185.478 173.644 188.795 176.406 190.274Z" fill="#EFA867"/>
<path d="M191.668 168.713C191.668 168.713 188.23 171.976 190.228 179.229C192.227 186.481 186.384 189.071 183.965 189.919C181.546 190.767 176.059 186.531 176.984 180.932C177.894 175.317 181.677 170.005 191.668 168.713Z" fill="#EFA867"/>
<path d="M191.668 168.713C191.668 168.713 187.035 172.581 189.037 179.825C191.035 187.077 186.379 189.058 183.96 189.906C181.541 190.754 176.053 186.519 176.978 180.919C177.894 175.317 181.677 170.005 191.668 168.713Z" fill="#FFCFA4"/>
<path d="M168.617 240.888C168.617 240.888 182.665 227.481 194.085 225.92C205.506 224.358 211.712 223.134 217.636 215.6C223.561 208.066 220.243 201.558 215.889 200.782C211.531 200.016 195.389 200.602 185.832 203.677C176.275 206.752 164.337 208.925 159.682 215.82C155.045 222.721 158.589 236.427 168.617 240.888Z" fill="#EFA867"/>
<path d="M215.898 200.785C211.629 200.031 195.066 204.238 185.421 207.3C182.921 212.237 186.253 218.514 183.913 220.692C177.641 225.69 166.962 227.829 162.5 235.116C163.583 237.473 165.527 239.513 168.617 240.888C168.617 240.888 182.665 227.481 194.085 225.919C205.506 224.358 211.712 223.134 217.636 215.6C223.561 208.066 220.256 201.552 215.898 200.785Z" fill="#ECB67B"/>
<path d="M187.186 204.597C184.599 208.2 184.951 212.647 187.502 214.605C185.821 211.425 186.957 208.971 189.001 206.186C187.157 209.923 188.437 213.293 190.017 214.216C188.119 208.044 191.51 204.629 193.83 203.083C191.461 203.495 189.202 204.001 187.186 204.597Z" fill="#EFA867"/>
<path d="M212.477 200.597C212.477 200.597 211.512 204.436 210.274 213.645C201.535 216.872 199.615 216.885 197.078 214.613C194.545 212.331 194.01 206.67 196.983 204.234C199.965 201.801 207.933 200.081 212.477 200.597Z" fill="#EFA867"/>
<path d="M212.477 200.597C212.477 200.597 209.014 206.071 210.274 213.645C201.535 216.872 199.615 216.885 197.078 214.613C194.545 212.331 194.01 206.67 196.983 204.234C199.965 201.801 207.933 200.081 212.477 200.597Z" fill="#FFCFA4"/>
<path d="M185.18 273.41C185.18 273.41 184.323 260.505 191.793 255.77C199.264 251.036 200.652 249.12 200.652 249.12C200.652 249.12 212.076 246.971 217.842 239.832C223.62 232.687 218.149 223.545 213.026 222.512C207.912 221.482 191.197 224.971 187.571 226.264C183.953 227.561 171.301 235.019 168.611 240.876C165.936 246.748 165.301 263.47 185.18 273.41Z" fill="#EFA867"/>
<path d="M168.194 241.989C168.17 242.052 168.143 242.125 168.128 242.192C168.143 242.125 168.167 242.062 168.194 241.989Z" fill="#ECB67B"/>
<path d="M173.703 264.793C173.545 264.61 173.378 264.424 173.224 264.231C173.387 264.427 173.545 264.61 173.703 264.793Z" fill="#ECB67B"/>
<path d="M174.216 265.377C174.21 265.365 174.199 265.34 174.193 265.328C174.032 265.153 173.861 264.976 173.703 264.793C173.876 264.992 174.04 265.187 174.216 265.377Z" fill="#ECB67B"/>
<path d="M215.041 223.319C208.088 224.036 198.835 226.08 196.251 227.01C194.445 227.654 190.378 229.846 186.432 232.599C186.449 236.673 192.436 239.495 189.336 244C188.77 245.512 186.809 245.768 184.971 246.524C177.593 252.027 175.393 261.194 178.317 269.134C180.272 270.652 182.54 272.101 185.186 273.423C185.186 273.423 184.328 260.518 191.799 255.783C199.27 251.048 200.657 249.132 200.657 249.132C200.657 249.132 212.081 246.984 217.848 239.845C222.865 233.633 219.391 225.92 215.041 223.319Z" fill="#ECB67B"/>
<path d="M188.663 258.819C188.663 258.819 182.844 262.553 178.026 257.495C178.778 260.213 185.113 261.803 185.722 261.361C184.183 262.91 179.516 262.42 179.516 262.42C182.862 264.841 186.838 264.483 188.663 258.819Z" fill="#EFA867"/>
<path d="M200.648 249.129C200.648 249.129 198.451 249.936 194.272 244.158C195.511 249.123 198.232 252.579 200.648 249.129Z" fill="#EFA867"/>
<path d="M214.044 222.821C213.9 222.767 213.746 222.709 213.598 222.664C213.746 222.709 213.891 222.764 214.044 222.821Z" fill="#ECB67B"/>
<path d="M167.93 242.83C167.947 242.785 167.955 242.736 167.972 242.69C167.955 242.736 167.938 242.781 167.93 242.83Z" fill="#ECB67B"/>
<path d="M167.27 247.31C167.277 247.127 167.28 246.953 167.296 246.773C167.289 246.956 167.283 247.139 167.27 247.31Z" fill="#ECB67B"/>
<path d="M167.317 246.472C167.326 246.31 167.335 246.148 167.353 245.989C167.348 246.142 167.335 246.313 167.317 246.472Z" fill="#ECB67B"/>
<path d="M167.427 245.408C167.449 245.241 167.476 245.085 167.494 244.927C167.467 245.082 167.449 245.241 167.427 245.408Z" fill="#ECB67B"/>
<path d="M167.555 244.517C167.578 244.401 167.601 244.286 167.62 244.179C167.597 244.295 167.578 244.401 167.555 244.517Z" fill="#ECB67B"/>
<path d="M193.06 227.775C193.06 227.775 189.475 232.914 194.207 238.59C191.444 236.811 189.847 233.105 190.216 230.363C188.089 232.766 190.94 237.881 190.94 237.881C188.381 236.437 186.867 233.361 187.584 231.173C188.293 228.982 193.06 227.775 193.06 227.775Z" fill="#EFA867"/>
<path d="M211.068 223.698C211.068 223.698 209.803 227.786 211.25 234.997C206.405 238.497 200.948 237.339 197.842 236.175C194.735 235.01 195.328 227.304 197.154 225.48C198.981 223.657 208.397 222.552 211.068 223.698Z" fill="#EFA867"/>
<path d="M211.068 223.698C211.068 223.698 207.93 228.88 211.25 234.997C206.405 238.497 200.948 237.339 197.842 236.175C194.735 235.01 195.328 227.304 197.154 225.48C198.981 223.657 208.397 222.552 211.068 223.698Z" fill="#FFCFA4"/>
<path d="M280.519 321.715C280.519 321.715 301.413 324.882 329.233 294.743C327.76 306.527 302.813 330.764 280.519 321.715Z" fill="#EFA867"/>
<path d="M341.439 263.117C341.439 263.117 339.985 281.72 330.49 292.324C346.499 303.136 401.315 339.201 404.686 342.023C382.999 322.59 343.341 295.077 339.833 291.439C342.393 283.428 344.055 271.633 341.439 263.117Z" fill="#EFA867"/>
<path d="M88.5142 292.274C90.1125 292.874 92.4298 290.346 91.5585 288.192C91.067 286.976 89.3088 285.594 86.7217 286.286C84.1436 286.982 83.9222 288.891 83.9222 288.891C79.9059 289.274 65.635 288.797 64.1591 318.696C64.0104 321.675 64.6359 326.874 61.239 331.402C62.7554 331.259 64.0638 329.912 64.6464 328.055C64.612 330.592 63.4266 335.732 62.7174 337.624C65.6279 336.207 66.4 332.966 66.4 332.966C66.1785 335.04 64.4467 340.099 63.6038 341.001C69.0548 339.401 70.8452 332.784 70.7823 330.562C71.8024 333.143 67.9817 340.093 67.9817 340.093C71.8454 338.331 74.7948 329.145 74.864 326.9C74.5795 330.324 75.8872 331.588 75.8872 331.588C77.4995 317.782 90.0209 303.585 88.5142 292.274Z" fill="#BC4646"/>
<path d="M90.8192 287.802C90.8192 287.802 89.349 286.311 87.3345 286.712C85.3166 287.122 84.5882 289.12 84.5791 289.282C86.3065 287.586 87.2922 287.512 87.2922 287.512C86.0826 288.183 85.2328 289.269 85.148 289.495C87.0492 287.968 88.8217 288.157 88.8217 288.157C85.9892 289.366 85.5226 289.842 85.5226 289.842C87.4301 289.039 89.2931 288.933 89.2931 288.933C87.2556 289.944 85.5541 290.06 85.5541 290.06C88.3448 290.446 89.728 290.273 90.6036 289.476C91.4701 288.675 90.8192 287.802 90.8192 287.802Z" fill="#CE6161"/>
<path d="M82.836 289.041C82.836 289.041 82.9225 287.959 84.2635 288.42C85.6045 288.882 88.6201 290.755 89.1091 292.363C89.2035 293.101 88.6039 293.216 88.6039 293.216C88.6039 293.216 86.5277 289.496 82.836 289.041Z" fill="#603617"/>
<path d="M64.9014 321.358C64.9014 321.358 64.8992 321.254 64.9039 321.05C64.9332 319.46 65.1525 312.007 67.0024 306.001C69.091 299.249 72.6617 291.4 80.1965 290.477C77.4817 291.235 74.2818 293.287 71.9274 297.205C69.5731 301.122 67.5595 307.098 67.3561 309.014C70.9536 299.802 75.2344 291.982 82.1597 290.79C79.2256 292.106 74.8569 294.308 71.0726 302.644C75.048 297.342 78.4701 292.308 83.442 291.271C80.5369 293.113 74.5888 298.677 71.8621 307.462C69.1353 316.246 68.2042 327.933 65.6539 332.675C66.8544 328.842 68.0642 322.647 68.6159 318.044C69.1552 313.446 71.673 304.779 72.8306 302.488C70.5713 306.152 68.8263 312.29 67.9419 317.946C67.3463 315.359 69.9899 305.944 70.0624 305.559C67.2583 311.857 66.8768 316.803 66.8768 316.803C66.3545 314.46 66.9749 310.058 66.9749 310.058C66.1024 313.127 64.9014 321.358 64.9014 321.358Z" fill="#CE6161"/>
<path d="M84.5854 291.71C84.5854 291.71 77.5364 295.622 74.3809 304.039C71.2254 312.457 70.5319 328.455 66.0357 337.701C69.1253 333.389 70.6977 325.266 71.3977 321.832C72.0977 318.399 74.1538 306.019 76.8552 301.561C75.228 307.082 74.3004 311.535 73.7126 316.042C73.1248 320.55 71.7552 325.879 71.0709 327.759C72.5347 325.283 74.3926 319.146 75.2376 313.156C76.0792 307.174 79.9889 298.916 82.0483 297.159C80.1094 301.149 78.4194 304.284 77.3992 310.549C76.3789 316.815 75.4991 320.727 74.7764 322.655C76.2132 320.004 77.0444 317.869 78.5926 310.553C80.1407 303.236 86.9996 293.018 86.9996 293.018C86.0059 293.306 83.4637 296.048 83.4637 296.048C84.2834 294.301 86.1996 292.294 86.1996 292.294C84.3666 293.063 81.8745 295.287 79.8066 298.001C80.562 296.096 83.0897 293.007 84.5854 291.71Z" fill="#CE6161"/>
<path d="M136.001 292.972L135.28 292.557C136.136 291.072 136.348 289.902 135.899 289.094C135.791 288.888 135.642 288.708 135.456 288.545C135.227 288.387 134.947 288.2 134.594 288.016C133.072 287.321 130.707 287.23 128.985 287.152C127.943 287.102 127.12 287.072 126.615 286.934L124.642 286.401L126.664 286.117C130.89 285.533 133.641 286.492 135.186 287.371C135.437 287.496 135.67 287.645 135.874 287.814C136.412 288.192 136.688 288.501 136.726 288.536L136.603 288.645C136.609 288.658 136.623 288.673 136.625 288.695C137.22 289.774 137.01 291.213 136.001 292.972Z" fill="#603617"/>
<path d="M94.6285 291.459C92.6763 291.502 91.0616 289.957 91.0223 288.002C90.9829 286.046 92.5274 284.426 94.4795 284.384C96.4317 284.342 98.0464 285.886 98.0857 287.842C98.1161 289.794 96.5716 291.414 94.6285 291.459Z" fill="#844914"/>
<path d="M107.846 293.565C109.681 293.314 110.739 291.976 115.814 293.383C120.666 294.727 124.749 294.194 125.099 294.139C125.108 294.142 125.12 294.137 125.129 294.14C127.311 294.091 129.013 290.951 128.931 287.131C128.849 283.312 127.016 280.261 124.825 280.307C124.825 280.307 120.557 279.853 115.556 281.488C110.547 283.12 109.432 281.835 107.588 281.67C105.745 281.505 105.233 283.419 103.858 283.379C102.471 283.344 100.637 282.904 99.1591 283.248C99.1557 283.257 99.1557 283.257 99.1647 283.26C97.8086 283.444 96.7685 285.449 96.8212 287.863C96.8704 290.287 97.9937 292.236 99.3598 292.356L99.3564 292.365C100.848 292.645 102.662 292.118 104.04 292.015C105.414 291.921 106.015 293.808 107.846 293.565Z" fill="#844914"/>
<path d="M92.0639 286.926C92.0397 286.029 92.8858 285.283 93.946 285.258C95.0062 285.232 95.874 285.939 95.8983 286.836C95.9225 287.733 95.0764 288.479 94.0162 288.505C92.956 288.53 92.0882 287.823 92.0639 286.926Z" fill="#A05B22"/>
<path d="M127.448 289.053C127.448 289.053 127.821 283.856 126.137 282.688C124.453 281.52 122.457 281.598 119.538 282.599C116.628 283.603 114.008 284.108 111.274 283.516C108.53 282.921 108.066 282.21 106.225 283.357C104.384 284.505 103.067 284.362 101.552 284.228C100.028 284.09 98.7936 284.525 98.3367 285.717C97.8797 286.908 97.7529 289.224 99.0104 289.716C100.268 290.208 100.288 288.203 100.82 286.978C101.351 285.752 104.75 284.983 105.785 286.754C106.83 288.529 106.621 290.267 108.201 289.817C109.781 289.367 109.279 286.887 111.134 286.499C112.989 286.11 113.642 287.583 118.218 286.997C122.795 286.411 123.876 286.63 124.532 288.342C125.183 290.041 127.256 291.655 127.448 289.053Z" fill="#A05B22"/>
<path d="M150.564 184.509C154.005 185.799 157.843 184.049 159.136 180.6C160.429 177.151 158.687 173.309 155.246 172.019C151.805 170.729 147.967 172.479 146.674 175.928C145.381 179.377 147.122 183.219 150.564 184.509Z" fill="#844914"/>
<path d="M157.12 176.964C156.598 178.358 154.846 178.992 153.221 178.382C151.586 177.769 150.692 176.144 151.215 174.75C151.737 173.356 153.489 172.722 155.114 173.332C156.74 173.941 157.643 175.57 157.12 176.964Z" fill="#A05B22"/>
<path d="M156.637 193.557C155.344 197.006 151.505 198.756 148.065 197.466C144.624 196.177 142.882 192.334 144.175 188.885C145.468 185.437 149.306 183.686 152.747 184.976C156.187 186.266 157.929 190.109 156.637 193.557Z" fill="#844914"/>
<path d="M154.621 189.922C154.099 191.315 152.347 191.949 150.722 191.34C149.087 190.727 148.193 189.101 148.716 187.708C149.238 186.314 150.99 185.68 152.615 186.289C154.241 186.899 155.144 188.528 154.621 189.922Z" fill="#A05B22"/>
<path d="M154.822 206.751C153.529 210.199 149.69 211.95 146.249 210.66C142.809 209.37 141.067 205.527 142.36 202.079C143.653 198.63 147.491 196.88 150.932 198.17C154.372 199.459 156.114 203.302 154.822 206.751Z" fill="#844914"/>
<path d="M152.815 203.118C152.293 204.512 150.541 205.146 148.916 204.536C147.281 203.924 146.387 202.298 146.91 200.904C147.432 199.51 149.184 198.877 150.809 199.486C152.435 200.096 153.338 201.725 152.815 203.118Z" fill="#A05B22"/>
<path d="M145.576 223.362C149.017 224.652 152.855 222.902 154.148 219.453C155.441 216.004 153.7 212.162 150.259 210.872C146.817 209.582 142.98 211.332 141.687 214.781C140.394 218.23 142.135 222.072 145.576 223.362Z" fill="#844914"/>
<path d="M152.136 215.809C151.614 217.202 149.862 217.836 148.237 217.227C146.602 216.614 145.708 214.988 146.231 213.595C146.753 212.201 148.505 211.567 150.13 212.176C151.765 212.789 152.659 214.415 152.136 215.809Z" fill="#A05B22"/>
<path d="M153.152 232.055C151.859 235.504 148.021 237.254 144.58 235.965C141.14 234.675 139.398 230.832 140.69 227.384C141.983 223.935 145.822 222.185 149.262 223.475C152.703 224.764 154.445 228.607 153.152 232.055Z" fill="#844914"/>
<path d="M151.137 228.42C150.614 229.814 148.863 230.447 147.237 229.838C145.603 229.225 144.709 227.6 145.231 226.206C145.754 224.812 147.505 224.178 149.131 224.788C150.765 225.4 151.659 227.026 151.137 228.42Z" fill="#A05B22"/>
<path d="M152.316 245.193C151.023 248.641 147.184 250.392 143.744 249.102C140.303 247.812 138.561 243.969 139.854 240.521C141.147 237.073 144.986 235.322 148.426 236.612C151.867 237.902 153.609 241.744 152.316 245.193Z" fill="#844914"/>
<path d="M150.301 241.557C149.778 242.951 148.027 243.585 146.401 242.975C144.767 242.362 143.872 240.737 144.395 239.343C144.917 237.949 146.669 237.316 148.295 237.925C149.929 238.538 150.823 240.163 150.301 241.557Z" fill="#A05B22"/>
<path d="M141.335 262.011C144.776 263.301 148.614 261.551 149.907 258.102C151.2 254.653 149.459 250.811 146.018 249.521C142.576 248.231 138.738 249.981 137.445 253.43C136.152 256.879 137.894 260.721 141.335 262.011Z" fill="#844914"/>
<path d="M147.892 254.466C147.369 255.86 145.618 256.494 143.992 255.884C142.358 255.271 141.464 253.646 141.986 252.252C142.509 250.858 144.26 250.224 145.886 250.834C147.52 251.447 148.415 253.072 147.892 254.466Z" fill="#A05B22"/>
<path d="M147.844 271.078C146.551 274.526 142.712 276.277 139.272 274.987C135.831 273.697 134.089 269.854 135.382 266.406C136.675 262.958 140.514 261.207 143.954 262.497C147.395 263.787 149.137 267.63 147.844 271.078Z" fill="#844914"/>
<path d="M145.832 267.433C145.31 268.827 143.558 269.461 141.932 268.851C140.298 268.239 139.404 266.613 139.926 265.219C140.449 263.825 142.2 263.192 143.826 263.801C145.46 264.414 146.355 266.039 145.832 267.433Z" fill="#A05B22"/>
<path d="M144.468 283.903C143.175 287.351 139.336 289.102 135.896 287.812C132.455 286.522 130.713 282.679 132.006 279.231C133.299 275.783 137.137 274.032 140.578 275.322C144.028 276.615 145.76 280.455 144.468 283.903Z" fill="#844914"/>
<path d="M142.461 280.271C141.939 281.665 140.187 282.298 138.562 281.689C136.927 281.076 136.033 279.451 136.556 278.057C137.078 276.663 138.83 276.029 140.455 276.639C142.084 277.239 142.987 278.868 142.461 280.271Z" fill="#A05B22"/>
<path d="M131.533 300.412C134.974 301.702 138.812 299.952 140.105 296.502C141.398 293.053 139.656 289.212 136.215 287.922C132.774 286.632 128.936 288.382 127.643 291.831C126.35 295.28 128.091 299.122 131.533 300.412Z" fill="#844914"/>
<path d="M138.089 292.867C137.567 294.261 135.815 294.894 134.19 294.285C132.555 293.672 131.661 292.047 132.184 290.653C132.706 289.259 134.458 288.625 136.083 289.235C137.718 289.847 138.612 291.473 138.089 292.867Z" fill="#A05B22"/>
<path d="M135.106 308.874C133.813 312.322 129.975 314.073 126.534 312.783C123.094 311.493 121.352 307.65 122.644 304.202C123.937 300.754 127.776 299.003 131.217 300.293C134.666 301.586 136.399 305.426 135.106 308.874Z" fill="#844914"/>
<path d="M133.1 305.242C132.577 306.635 130.826 307.269 129.2 306.66C127.566 306.047 126.672 304.421 127.194 303.028C127.717 301.634 129.468 301 131.094 301.61C132.723 302.21 133.626 303.839 133.1 305.242Z" fill="#A05B22"/>
<path d="M128.306 320.281C127.014 323.729 123.175 325.48 119.734 324.19C116.294 322.9 114.552 319.058 115.845 315.609C117.137 312.161 120.976 310.41 124.417 311.7C127.854 312.999 129.599 316.833 128.306 320.281Z" fill="#844914"/>
<path d="M126.291 316.645C125.769 318.039 124.017 318.673 122.392 318.064C120.757 317.451 119.863 315.825 120.385 314.431C120.908 313.038 122.659 312.404 124.285 313.013C125.91 313.623 126.814 315.252 126.291 316.645Z" fill="#A05B22"/>
<path d="M113.35 335.918C116.791 337.209 120.629 335.458 121.922 332.009C123.215 328.56 121.473 324.718 118.032 323.428C114.591 322.138 110.753 323.889 109.46 327.338C108.167 330.787 109.909 334.628 113.35 335.918Z" fill="#844914"/>
<path d="M119.91 328.365C119.388 329.758 117.636 330.392 116.01 329.783C114.376 329.17 113.482 327.544 114.004 326.151C114.527 324.757 116.278 324.123 117.904 324.732C119.529 325.342 120.433 326.971 119.91 328.365Z" fill="#A05B22"/>
<path d="M116.895 344.236C115.603 347.685 111.764 349.435 108.323 348.145C104.883 346.855 103.141 343.013 104.434 339.564C105.726 336.116 109.565 334.365 113.006 335.655C116.446 336.945 118.188 340.788 116.895 344.236Z" fill="#844914"/>
<path d="M114.883 340.591C114.361 341.985 112.609 342.619 110.984 342.01C109.349 341.397 108.455 339.771 108.978 338.377C109.5 336.984 111.252 336.35 112.877 336.959C114.503 337.569 115.406 339.198 114.883 340.591Z" fill="#A05B22"/>
<path d="M113.336 356.972C112.043 360.42 108.205 362.171 104.764 360.881C101.324 359.591 99.5817 355.748 100.874 352.3C102.167 348.852 106.006 347.101 109.446 348.391C112.887 349.681 114.629 353.523 113.336 356.972Z" fill="#844914"/>
<path d="M111.321 353.336C110.798 354.73 109.047 355.364 107.421 354.754C105.787 354.141 104.893 352.516 105.415 351.122C105.938 349.728 107.689 349.095 109.315 349.704C110.94 350.313 111.843 351.942 111.321 353.336Z" fill="#A05B22"/>
<path d="M103.106 374.04C106.547 375.33 110.385 373.58 111.678 370.131C112.971 366.682 111.23 362.84 107.788 361.55C104.347 360.26 100.509 362.01 99.2164 365.459C97.9234 368.908 99.6648 372.75 103.106 374.04Z" fill="#844914"/>
<path d="M109.663 366.495C109.14 367.889 107.389 368.523 105.763 367.913C104.129 367.301 103.234 365.675 103.757 364.281C104.28 362.887 106.031 362.254 107.657 362.863C109.291 363.476 110.185 365.101 109.663 366.495Z" fill="#A05B22"/>
<path d="M114.446 383.215C113.153 386.664 109.314 388.414 105.874 387.125C102.433 385.835 100.691 381.992 101.984 378.544C103.277 375.095 107.116 373.345 110.556 374.634C113.997 375.924 115.739 379.767 114.446 383.215Z" fill="#844914"/>
<path d="M112.434 379.571C111.912 380.965 110.16 381.598 108.534 380.989C106.9 380.376 106.006 378.751 106.528 377.357C107.051 375.963 108.802 375.329 110.428 375.939C112.053 376.548 112.957 378.177 112.434 379.571Z" fill="#A05B22"/>
<path d="M111.852 399.007C115.294 400.297 119.131 398.547 120.424 395.098C121.717 391.649 119.976 387.807 116.535 386.517C113.094 385.227 109.256 386.977 107.963 390.426C106.67 393.875 108.411 397.717 111.852 399.007Z" fill="#844914"/>
<path d="M118.413 391.454C117.89 392.847 116.138 393.481 114.513 392.872C112.888 392.262 111.984 390.633 112.507 389.239C113.029 387.846 114.781 387.212 116.406 387.821C118.032 388.431 118.935 390.06 118.413 391.454Z" fill="#A05B22"/>
<path d="M122.336 407.17C125.777 408.46 129.615 406.71 130.908 403.261C132.201 399.812 130.46 395.97 127.018 394.68C123.577 393.39 119.739 395.14 118.446 398.589C117.153 402.038 118.895 405.88 122.336 407.17Z" fill="#844914"/>
<path d="M128.893 399.625C128.37 401.019 126.619 401.652 124.993 401.043C123.359 400.43 122.464 398.805 122.987 397.411C123.509 396.017 125.261 395.383 126.886 395.993C128.512 396.602 129.415 398.231 128.893 399.625Z" fill="#A05B22"/>
<path d="M143.366 407.477C142.073 410.925 138.234 412.676 134.793 411.386C131.353 410.096 129.611 406.253 130.904 402.805C132.197 399.356 136.035 397.606 139.476 398.896C142.916 400.186 144.658 404.028 143.366 407.477Z" fill="#844914"/>
<path d="M141.35 403.841C140.828 405.235 139.076 405.869 137.451 405.259C135.816 404.646 134.922 403.021 135.445 401.627C135.967 400.233 137.719 399.599 139.344 400.209C140.979 400.822 141.873 402.447 141.35 403.841Z" fill="#A05B22"/>
<path d="M156.692 407.755C155.399 411.203 151.56 412.954 148.12 411.664C144.679 410.374 142.937 406.531 144.23 403.083C145.523 399.635 149.361 397.884 152.802 399.174C156.242 400.464 157.984 404.307 156.692 407.755Z" fill="#844914"/>
<path d="M154.685 404.123C154.163 405.517 152.411 406.15 150.786 405.541C149.151 404.928 148.257 403.303 148.78 401.909C149.302 400.515 151.054 399.881 152.679 400.491C154.305 401.1 155.208 402.729 154.685 404.123Z" fill="#A05B22"/>
<path d="M169.757 405.541C168.465 408.989 164.626 410.74 161.185 409.45C157.745 408.16 156.003 404.317 157.296 400.869C158.588 397.421 162.427 395.67 165.868 396.96C169.317 398.253 171.05 402.092 169.757 405.541Z" fill="#844914"/>
<path d="M167.754 401.9C167.232 403.293 165.48 403.927 163.855 403.318C162.229 402.708 161.326 401.079 161.849 399.686C162.371 398.292 164.123 397.658 165.748 398.267C167.374 398.877 168.277 400.506 167.754 401.9Z" fill="#A05B22"/>
<path d="M180.026 397.106C178.733 400.555 174.894 402.305 171.454 401.015C168.013 399.726 166.271 395.883 167.564 392.434C168.857 388.986 172.696 387.236 176.136 388.525C179.577 389.815 181.319 393.658 180.026 397.106Z" fill="#844914"/>
<path d="M178.011 393.471C177.488 394.864 175.737 395.498 174.111 394.889C172.477 394.276 171.582 392.65 172.105 391.257C172.627 389.863 174.379 389.229 176.004 389.838C177.639 390.451 178.533 392.077 178.011 393.471Z" fill="#A05B22"/>
<path d="M188.721 387.483C187.429 390.932 183.59 392.682 180.149 391.392C176.709 390.103 174.967 386.26 176.26 382.811C177.552 379.363 181.391 377.612 184.832 378.902C188.269 380.201 190.014 384.035 188.721 387.483Z" fill="#844914"/>
<path d="M186.706 383.848C186.184 385.241 184.432 385.875 182.807 385.266C181.172 384.653 180.278 383.027 180.8 381.634C181.323 380.24 183.074 379.606 184.7 380.215C186.334 380.828 187.229 382.454 186.706 383.848Z" fill="#A05B22"/>
<path d="M194.367 375.365C193.074 378.813 189.235 380.563 185.794 379.274C182.354 377.984 180.612 374.141 181.905 370.693C183.198 367.244 187.036 365.494 190.477 366.784C193.917 368.073 195.659 371.916 194.367 375.365Z" fill="#844914"/>
<path d="M192.36 371.732C191.838 373.126 190.086 373.76 188.461 373.151C186.826 372.538 185.932 370.912 186.455 369.518C186.977 368.125 188.729 367.491 190.354 368.1C191.98 368.71 192.883 370.339 192.36 371.732Z" fill="#A05B22"/>
<path d="M189.419 366.666C192.86 367.956 196.698 366.206 197.991 362.757C199.284 359.308 197.543 355.466 194.101 354.176C190.66 352.886 186.822 354.636 185.529 358.085C184.236 361.534 185.978 365.376 189.419 366.666Z" fill="#844914"/>
<path d="M195.976 359.121C195.453 360.515 193.702 361.149 192.076 360.539C190.442 359.926 189.548 358.301 190.07 356.907C190.593 355.513 192.344 354.879 193.97 355.489C195.604 356.102 196.498 357.727 195.976 359.121Z" fill="#A05B22"/>
<path d="M201.072 349.842C199.779 353.29 195.94 355.041 192.5 353.751C189.059 352.461 187.317 348.618 188.61 345.17C189.903 341.721 193.741 339.971 197.182 341.261C200.622 342.551 202.364 346.393 201.072 349.842Z" fill="#844914"/>
<path d="M199.056 346.206C198.534 347.6 196.782 348.233 195.157 347.624C193.522 347.011 192.628 345.386 193.151 343.992C193.673 342.598 195.425 341.964 197.05 342.574C198.685 343.187 199.579 344.812 199.056 346.206Z" fill="#A05B22"/>
<path d="M195.439 340.607C198.88 341.897 202.718 340.147 204.011 336.698C205.304 333.249 203.563 329.407 200.122 328.117C196.68 326.827 192.842 328.577 191.549 332.026C190.256 335.475 191.998 339.317 195.439 340.607Z" fill="#844914"/>
<path d="M201.996 333.062C201.473 334.456 199.722 335.09 198.096 334.481C196.471 333.871 195.568 332.242 196.09 330.848C196.613 329.455 198.364 328.821 199.99 329.43C201.615 330.04 202.518 331.669 201.996 333.062Z" fill="#A05B22"/>
<path d="M196.088 327.338C199.529 328.628 203.367 326.878 204.66 323.429C205.953 319.98 204.212 316.138 200.77 314.848C197.329 313.558 193.491 315.308 192.198 318.757C190.905 322.206 192.647 326.048 196.088 327.338Z" fill="#844914"/>
<path d="M202.648 319.784C202.126 321.178 200.374 321.812 198.749 321.202C197.114 320.59 196.22 318.964 196.742 317.57C197.265 316.176 199.016 315.543 200.642 316.152C202.276 316.765 203.171 318.39 202.648 319.784Z" fill="#A05B22"/>
<path d="M205.475 310.211C204.182 313.66 200.343 315.41 196.903 314.12C193.462 312.831 191.72 308.988 193.013 305.539C194.306 302.091 198.145 300.341 201.585 301.63C205.026 302.92 206.768 306.763 205.475 310.211Z" fill="#844914"/>
<path d="M203.46 306.576C202.937 307.969 201.185 308.603 199.56 307.994C197.926 307.381 197.031 305.755 197.554 304.362C198.076 302.968 199.828 302.334 201.453 302.943C203.079 303.553 203.985 305.173 203.46 306.576Z" fill="#A05B22"/>
<path d="M196.539 300.833C199.98 302.123 203.818 300.373 205.111 296.924C206.404 293.475 204.662 289.633 201.221 288.343C197.78 287.053 193.942 288.803 192.649 292.252C191.356 295.701 193.098 299.543 196.539 300.833Z" fill="#844914"/>
<path d="M203.096 293.288C202.573 294.682 200.821 295.316 199.196 294.706C197.562 294.093 196.667 292.468 197.19 291.074C197.712 289.68 199.464 289.046 201.089 289.656C202.715 290.265 203.621 291.885 203.096 293.288Z" fill="#A05B22"/>
<path d="M204.141 270.691C202.848 274.14 199.009 275.89 195.569 274.6C192.128 273.311 190.387 269.468 191.679 266.019C192.972 262.571 196.811 260.82 200.251 262.11C203.688 263.409 205.43 267.252 204.141 270.691Z" fill="#844914"/>
<path d="M202.126 267.056C201.603 268.449 199.852 269.083 198.226 268.474C196.592 267.861 195.697 266.235 196.22 264.842C196.742 263.448 198.494 262.814 200.12 263.423C201.754 264.036 202.648 265.662 202.126 267.056Z" fill="#A05B22"/>
<path d="M197.076 287.697C200.517 288.987 204.355 287.237 205.648 283.788C206.941 280.339 205.199 276.497 201.758 275.207C198.317 273.917 194.479 275.667 193.186 279.116C191.893 282.565 193.634 286.407 197.076 287.697Z" fill="#844914"/>
<path d="M203.633 280.152C203.11 281.546 201.358 282.18 199.733 281.57C198.098 280.958 197.204 279.332 197.727 277.938C198.249 276.544 200.001 275.911 201.626 276.52C203.255 277.12 204.158 278.749 203.633 280.152Z" fill="#A05B22"/>
<path d="M302.457 215.201C302.457 215.201 291.413 219.577 278.008 211.321C264.604 203.065 261.832 203.564 261.043 213.25C260.254 222.937 266.45 241.796 295.885 246.441C325.325 251.099 320.326 237.044 305.649 233.967C290.972 230.891 302.246 231.257 305.754 225.418C309.261 219.579 309.02 214.069 302.457 215.201Z" fill="#EFBF8F"/>
</g>
</g>
</g>
<defs>
<linearGradient id="paint0_linear_2102_2696" x1="251.22" y1="83.9528" x2="172.588" y2="293.699" gradientUnits="userSpaceOnUse">
<stop stop-color="white"/>
<stop offset="0.697917" stop-color="#F5FFFF"/>
<stop offset="1" stop-color="#DEFEFF"/>
</linearGradient>
<linearGradient id="paint1_linear_2102_2696" x1="363.832" y1="144.992" x2="339.466" y2="209.988" gradientUnits="userSpaceOnUse">
<stop stop-color="white"/>
<stop offset="0.697917" stop-color="#F5FFFF"/>
<stop offset="1" stop-color="#DEFEFF"/>
</linearGradient>
<clipPath id="clip0_2102_2696">
<rect width="360" height="440" fill="white"/>
</clipPath>
<clipPath id="clip1_2102_2696">
<rect width="295.999" height="224" fill="white" transform="translate(112.638 32) rotate(20.5505)"/>
</clipPath>
<clipPath id="clip2_2102_2696">
<rect width="382.971" height="344.55" fill="white" transform="translate(132.948 50.2021) rotate(20.5505)"/>
</clipPath>
</defs>
</svg>
