<svg width="32" height="26" viewBox="0 0 32 26" fill="none" xmlns="http://www.w3.org/2000/svg">
<path d="M6.50677 15.8333L15.3334 18.0667V17.4L6.0001 15.0533V15.1667C5.99566 15.3189 6.04352 15.4682 6.13571 15.5895C6.2279 15.7108 6.35885 15.7968 6.50677 15.8333ZM8.50677 24.0466C8.61031 24.1265 8.73503 24.1741 8.86541 24.1836C8.9958 24.193 9.1261 24.164 9.2401 24.1L14.2068 21.22L9.22677 20.08L8.26677 23.3C8.22203 23.4332 8.2205 23.577 8.2624 23.7111C8.30431 23.8452 8.3875 23.9627 8.5001 24.0466H8.50677ZM8.39343 2.21998L6.11343 13.7066L15.3334 16.04V3.23998L9.20677 1.66665C9.11976 1.64592 9.02948 1.64292 8.94129 1.65781C8.8531 1.6727 8.76881 1.70518 8.69343 1.75332C8.61285 1.805 8.54435 1.87344 8.49258 1.95396C8.44082 2.03449 8.407 2.12522 8.39343 2.21998ZM23.5001 24.0466C23.6127 23.9627 23.6959 23.8452 23.7378 23.7111C23.7797 23.577 23.7782 23.4332 23.7334 23.3L22.8668 20.3666L17.9001 21.28L22.7668 24.1C22.8808 24.164 23.0111 24.193 23.1414 24.1836C23.2718 24.1741 23.3966 24.1265 23.5001 24.0466ZM25.8868 13.7066L23.6134 2.22665C23.6004 2.1359 23.5689 2.0488 23.5207 1.97079C23.4725 1.89279 23.4088 1.82557 23.3334 1.77332C23.2562 1.71812 23.1681 1.68005 23.075 1.66165C22.9818 1.64326 22.8858 1.64496 22.7934 1.66665L16.6668 3.23998V16.04L25.8868 13.7066ZM28.0001 2.95332L31.2734 16.6333C31.336 16.9088 31.3429 17.1941 31.2936 17.4723C31.2444 17.7505 31.1401 18.016 30.9868 18.2533C30.8402 18.475 30.6509 18.6652 30.43 18.8128C30.2091 18.9605 29.9609 19.0626 29.7001 19.1133L24.1801 20.1266L25.0068 22.9266C25.1279 23.3128 25.1291 23.7267 25.01 24.1136C24.891 24.5004 24.6574 24.842 24.3401 25.0933C23.9909 25.3704 23.5592 25.5229 23.1134 25.5267C22.7621 25.5235 22.4175 25.4293 22.1134 25.2533L16.0001 21.72L9.9001 25.2533C9.59598 25.4293 9.25145 25.5235 8.9001 25.5267C8.45434 25.5229 8.0226 25.3704 7.67343 25.0933C7.35612 24.842 7.12251 24.5004 7.00348 24.1136C6.88445 23.7267 6.8856 23.3128 7.00677 22.9266L7.9401 19.78L2.22677 18.4466C1.71751 18.3232 1.27705 18.0048 1.0001 17.56C0.706686 17.0839 0.613236 16.5113 0.740099 15.9667L4.0001 2.91998C4.06044 2.66134 4.17169 2.4173 4.32735 2.20211C4.48302 1.98692 4.67999 1.8049 4.90677 1.66665C5.12606 1.53549 5.36918 1.44911 5.62207 1.41249C5.87496 1.37587 6.13261 1.38975 6.3801 1.45332L7.17343 1.66665C7.32993 1.24534 7.62034 0.887017 8.0001 0.646651C8.22928 0.500666 8.4858 0.402913 8.75401 0.359357C9.02223 0.315801 9.2965 0.327357 9.5601 0.393318L16.0001 2.03332L22.4668 0.393318C22.7263 0.331093 22.9957 0.32145 23.259 0.364958C23.5224 0.408467 23.7744 0.504245 24.0001 0.646651C24.3801 0.885068 24.6689 1.24431 24.8201 1.66665L25.6068 1.45998C25.8546 1.39222 26.1136 1.3756 26.368 1.41113C26.6225 1.44666 26.867 1.53359 27.0868 1.66665C27.3168 1.80973 27.5161 1.99719 27.6729 2.21811C27.8297 2.43902 27.9409 2.68895 28.0001 2.95332ZM25.1068 2.95332L27.3334 14.0667C27.3368 14.0887 27.3368 14.1112 27.3334 14.1333C27.3334 14.1333 27.3334 14.1733 27.3334 14.1933V15.1667C27.3364 15.6147 27.1889 16.0508 26.9145 16.405C26.6401 16.7592 26.2547 17.011 25.8201 17.12L16.1668 19.5666C16.0572 19.5932 15.943 19.5932 15.8334 19.5666L6.1801 17.12C5.74551 17.011 5.36011 16.7592 5.08569 16.405C4.81128 16.0508 4.66376 15.6147 4.66677 15.1667V14.1933C4.66677 14.1933 4.66677 14.1533 4.66677 14.1333C4.66338 14.1112 4.66338 14.0887 4.66677 14.0667L6.88677 2.95332L6.0401 2.73332C5.96537 2.71338 5.88743 2.70842 5.81077 2.71872C5.73412 2.72901 5.66025 2.75437 5.59343 2.79332C5.43392 2.8948 5.32123 3.05546 5.2801 3.23998L2.0001 16.3333C1.97711 16.4292 1.97352 16.5288 1.98955 16.6261C2.00558 16.7234 2.0409 16.8165 2.09343 16.9C2.18248 17.0442 2.32313 17.1491 2.48677 17.1933L15.6668 20.2133L15.9934 20.2866L23.1201 18.9533L29.4668 17.8C29.5514 17.7849 29.632 17.7522 29.7032 17.7039C29.7744 17.6557 29.8347 17.593 29.8801 17.52C29.9378 17.4349 29.978 17.3393 29.9986 17.2386C30.0192 17.1379 30.0197 17.0342 30.0001 16.9333L26.7134 3.25332C26.6958 3.15921 26.6581 3.07 26.6028 2.99178C26.5476 2.91355 26.4762 2.84813 26.3934 2.79998C26.3272 2.75957 26.2536 2.73284 26.1769 2.72139C26.1001 2.70994 26.0219 2.714 25.9468 2.73332L25.1068 2.95332ZM25.4868 15.8333C25.6347 15.7968 25.7656 15.7108 25.8578 15.5895C25.95 15.4682 25.9979 15.3189 25.9934 15.1667V15.0533L16.6668 17.4133V18.08L25.4868 15.8333Z" fill="#75BFC0"/>
</svg>
